<svg width="24" height="24" viewBox="0 0 24 24" fill="none" xmlns="http://www.w3.org/2000/svg">
<path d="M13.8176 2.75063L11.4309 2.08484C10.0853 1.7095 9.46543 2.65656 8.64394 3.54824C7.88554 4.37145 7.50634 4.78305 7.60814 5.36687C7.82439 6.60701 9.9046 6.90019 10.8817 6.73886L10.8818 6.73886C11.7657 6.59292 12.2078 6.51994 12.462 6.62462C13.0097 6.85012 13.3808 7.59496 13.7358 8.05737L13.7359 8.05743C14.1223 8.56074 14.3155 8.81241 14.3749 8.96185C14.4342 9.1113 14.5274 9.95236 14.7136 11.6344C14.792 12.3424 15.0139 13.08 15.4646 13.5692C14.5255 12.9322 12.6605 12.2258 10.7814 12.8289C8.62595 10.7959 4.56837 10.7377 2.30427 12.6548C2.10254 12.8256 2.00098 13.0829 2.00098 13.3472L2.00098 19.9238C2.00098 20.1749 2.09241 20.4202 2.27737 20.59C4.39359 22.5321 8.19958 22.4686 10.2055 20.3997C10.2598 20.3437 10.3064 20.2803 10.3462 20.213L10.3806 20.155C12.9094 21.1437 15.0678 21.0593 17.5373 20.2462C19.9839 19.4406 21.2072 19.0379 21.7791 17.6044C22.3511 16.1709 21.7671 14.8877 20.5991 12.3214C19.1549 9.14842 17.4562 6.65242 14.8477 3.43456C14.4375 2.92854 14.4266 2.9205 13.8176 2.75063Z" fill="#77A9E8" fill-opacity="0.16"/>
<path d="M1.46929 12.4055C1.17715 12.6991 1.17836 13.174 1.47201 13.4662C1.76565 13.7583 2.24052 13.7571 2.53266 13.4634L1.46929 12.4055ZM11.4309 2.08484L11.6324 1.36243V1.36243L11.4309 2.08484ZM13.8176 2.75063L14.0191 2.02821V2.02821L13.8176 2.75063ZM14.8477 3.43456L14.2651 3.90685V3.90685L14.8477 3.43456ZM20.5991 12.3214L19.9165 12.6321V12.6321L20.5991 12.3214ZM8.64394 3.54824L8.09235 3.04007L8.64394 3.54824ZM10.8817 6.73886L10.7596 5.99888L10.7596 5.99888L10.8817 6.73886ZM13.7358 8.05737L14.3307 7.60065L14.3307 7.60065L13.7358 8.05737ZM14.7136 11.6344L13.9682 11.7169V11.7169L14.7136 11.6344ZM15.4646 13.5692L15.0435 14.1899C15.3587 14.4037 15.7842 14.3473 16.0328 14.0588C16.2814 13.7703 16.2743 13.3412 16.0162 13.0611L15.4646 13.5692ZM7.62635 14.2286C7.36965 14.5537 7.42508 15.0253 7.75015 15.282C8.07523 15.5387 8.54686 15.4833 8.80356 15.1582L7.62635 14.2286ZM7.60814 5.36687L6.86929 5.49571L7.60814 5.36687ZM21.7791 17.6044L22.4757 17.8823L21.7791 17.6044ZM17.5373 20.2462L17.7719 20.9586L17.5373 20.2462ZM12.462 6.62462L12.7475 5.93111L12.7475 5.93111L12.462 6.62462ZM10.2055 20.3997L10.7439 20.9218L10.7439 20.9218L10.2055 20.3997ZM2.55259 19.8061C2.27194 19.5014 1.79746 19.482 1.49282 19.7626C1.18817 20.0433 1.16872 20.5177 1.44937 20.8224L2.55259 19.8061ZM10.3806 20.155L10.6537 19.4565C10.3113 19.3226 9.92244 19.4566 9.73518 19.7729L10.3806 20.155ZM10.3462 20.213L9.70085 19.8309L9.70085 19.8309L10.3462 20.213ZM10.7814 12.8289L11.0107 13.543L10.7814 12.8289ZM11.2293 2.80726L13.6161 3.47304L14.0191 2.02821L11.6324 1.36243L11.2293 2.80726ZM14.2651 3.90685C16.8513 7.09714 18.5082 9.53797 19.9165 12.6321L21.2817 12.0107C19.8017 8.75888 18.0612 6.20769 15.4304 2.96228L14.2651 3.90685ZM13.9682 11.7169C14.054 12.4923 14.3049 13.4173 14.913 14.0774L16.0162 13.0611C15.7229 12.7427 15.53 12.1925 15.4591 11.5518L13.9682 11.7169ZM13.1409 8.51409C13.3373 8.76985 13.4737 8.94764 13.5693 9.08049C13.6757 9.22829 13.6865 9.26045 13.6779 9.23879L15.0719 8.68492C15.0039 8.51381 14.8884 8.3454 14.7867 8.20416C14.6742 8.04797 14.5208 7.84824 14.3307 7.60065L13.1409 8.51409ZM15.4591 11.5518C15.3662 10.713 15.2957 10.0767 15.2411 9.6319C15.2138 9.41003 15.1895 9.22792 15.1674 9.08856C15.1505 8.98202 15.1232 8.81417 15.0719 8.68492L13.6779 9.23879C13.6562 9.18426 13.6628 9.17759 13.6859 9.32334C13.7038 9.43628 13.7256 9.59758 13.7523 9.8149C13.8056 10.2485 13.8748 10.8737 13.9682 11.7169L15.4591 11.5518ZM8.09235 3.04007C7.73213 3.43106 7.39165 3.79645 7.17017 4.14553C6.9216 4.53731 6.77829 4.97383 6.86929 5.49571L8.34699 5.23803C8.33619 5.17609 8.33157 5.11491 8.43675 4.94913C8.56903 4.74064 8.79735 4.48862 9.19554 4.05641L8.09235 3.04007ZM19.9165 12.6321C20.5108 13.9379 20.9166 14.8352 21.1173 15.5823C21.3068 16.2876 21.2945 16.7952 21.0826 17.3264L22.4757 17.8823C22.8358 16.9801 22.8175 16.1293 22.5659 15.1931C22.3256 14.2986 21.8554 13.2713 21.2817 12.0107L19.9165 12.6321ZM17.7719 20.9586C18.9682 20.5647 19.9661 20.2394 20.7262 19.8159C21.5349 19.3654 22.116 18.7839 22.4757 17.8823L21.0826 17.3264C20.8703 17.8583 20.5538 18.195 19.9962 18.5056C19.39 18.8433 18.553 19.1221 17.3028 19.5338L17.7719 20.9586ZM11.0039 7.47885C11.4575 7.40396 11.7575 7.35491 11.9772 7.33457C12.215 7.31255 12.23 7.34021 12.1764 7.31814L12.7475 5.93111C12.4397 5.80436 12.1066 5.81616 11.8389 5.84095C11.553 5.86742 11.19 5.92783 10.7596 5.99888L11.0039 7.47885ZM9.66699 19.8777C8.7873 20.785 7.45886 21.2629 6.09073 21.2502C4.72275 21.2375 3.40864 20.7353 2.55259 19.8061L1.44937 20.8224C2.63803 22.1127 4.37787 22.7344 6.07681 22.7502C7.77559 22.766 9.52703 22.1769 10.7439 20.9218L9.66699 19.8777ZM17.3028 19.5338C14.9711 20.3015 12.9947 20.3718 10.6537 19.4565L10.1074 20.8535C12.8241 21.9157 15.1645 21.817 17.7719 20.9586L17.3028 19.5338ZM10.9916 20.5951L11.0259 20.5371L9.73518 19.7729L9.70085 19.8309L10.9916 20.5951ZM10.7439 20.9218C10.8457 20.8168 10.9268 20.7045 10.9916 20.5951L9.70085 19.8309C9.68596 19.856 9.67398 19.8705 9.66698 19.8777L10.7439 20.9218ZM15.8857 12.9486C14.8297 12.2322 12.7238 11.4178 10.5522 12.1148L11.0107 13.543C12.5971 13.0338 14.2214 13.6321 15.0435 14.1899L15.8857 12.9486ZM10.5522 12.1148C9.51818 12.4467 8.50859 13.1114 7.62635 14.2286L8.80356 15.1582C9.51187 14.2612 10.2766 13.7786 11.0107 13.543L10.5522 12.1148ZM11.296 12.2833C9.99689 11.058 8.14541 10.4906 6.35733 10.5098C4.56938 10.5289 2.73233 11.136 1.46929 12.4055L2.53266 13.4634C3.45627 12.5351 4.88168 12.0257 6.37341 12.0097C7.86502 11.9937 9.31045 12.4725 10.2668 13.3745L11.296 12.2833ZM12.1764 7.31813C12.2542 7.35015 12.3823 7.45222 12.5727 7.70422C12.6614 7.82157 12.7471 7.94831 12.8421 8.08934C12.932 8.22275 13.0353 8.37656 13.1409 8.5141L14.3307 7.60065C14.2588 7.50698 14.1826 7.39428 14.0859 7.25093C13.9944 7.1152 13.8866 6.95493 13.7696 6.80008C13.5487 6.50769 13.2174 6.12459 12.7475 5.93111L12.1764 7.31813ZM13.6161 3.47304C13.7753 3.51745 13.8646 3.54303 13.9302 3.56596C13.9595 3.57622 13.9757 3.58312 13.9841 3.58707C13.9881 3.58895 13.9903 3.59014 13.9911 3.59063C13.9916 3.59089 13.9919 3.59104 13.9919 3.59109C13.992 3.59112 13.992 3.59114 13.992 3.59115C13.992 3.59115 13.992 3.59116 13.9921 3.59116C13.9921 3.59116 13.9921 3.59118 13.9921 3.5912C13.9921 3.59123 13.9922 3.59127 13.9923 3.59134C13.9925 3.59148 13.9929 3.59176 13.9935 3.59224C13.9947 3.59317 13.9972 3.59516 14.0011 3.5987C14.0094 3.60612 14.0234 3.61971 14.046 3.6444C14.0959 3.69887 14.158 3.77474 14.2651 3.90685L15.4304 2.96228C15.2533 2.74384 15.0697 2.50629 14.8224 2.34192C14.5713 2.17505 14.2825 2.10168 14.0191 2.02821L13.6161 3.47304ZM11.6324 1.36243C10.7236 1.10893 10.0014 1.30908 9.40768 1.72916C8.89576 2.09137 8.44091 2.66172 8.09235 3.04007L9.19554 4.05641C9.66846 3.54308 9.93429 3.19406 10.2741 2.95365C10.532 2.77112 10.7925 2.68541 11.2293 2.80726L11.6324 1.36243ZM6.86929 5.49571C7.05331 6.55102 7.99812 7.06481 8.73686 7.29458C9.51476 7.53652 10.3971 7.57902 11.0039 7.47885L10.7596 5.99888C10.3892 6.06003 9.7429 6.0366 9.18235 5.86226C8.58264 5.67573 8.37922 5.42287 8.34699 5.23803L6.86929 5.49571Z" fill="url(#paint0_radial_1920_5315)"/>
<defs>
<radialGradient id="paint0_radial_1920_5315" cx="0" cy="0" r="1" gradientUnits="userSpaceOnUse" gradientTransform="translate(9.81299 9.79461) rotate(-38.7335) scale(9.28373 4.75793)">
<stop stop-color="#2A5FDD"/>
<stop offset="1" stop-color="#77A9E8"/>
</radialGradient>
</defs>
</svg>
