<svg width="24" height="24" viewBox="0 0 24 24" fill="none" xmlns="http://www.w3.org/2000/svg">
<path d="M2.50098 11.9995C2.50098 7.52117 2.50098 5.282 3.89222 3.89075C5.28346 2.49951 7.52263 2.49951 12.001 2.49951C16.4793 2.49951 18.7185 2.49951 20.1097 3.89075C21.501 5.282 21.501 7.52117 21.501 11.9995C21.501 16.4779 21.501 18.717 20.1097 20.1083C18.7185 21.4995 16.4793 21.4995 12.001 21.4995C7.52263 21.4995 5.28346 21.4995 3.89222 20.1083C2.50098 18.717 2.50098 16.4779 2.50098 11.9995Z" fill="#77A9E8" fill-opacity="0.16"/>
<path d="M7.00098 17.9995L7.00098 15.9995" stroke="url(#paint0_radial_1920_5311)" stroke-width="1.5" stroke-linecap="round"/>
<path d="M12.001 17.9998L12.001 14.9998" stroke="url(#paint1_radial_1920_5311)" stroke-width="1.5" stroke-linecap="round"/>
<path d="M17.001 17.9995L17.001 12.9995" stroke="url(#paint2_radial_1920_5311)" stroke-width="1.5" stroke-linecap="round"/>
<path d="M6.00098 10.7498C5.58676 10.7498 5.25098 11.0855 5.25098 11.4998C5.25098 11.914 5.58676 12.2498 6.00098 12.2498V10.7498ZM16.6522 6.87186C16.8577 6.51222 16.7327 6.05408 16.3731 5.84857C16.0134 5.64307 15.5553 5.76801 15.3498 6.12765L16.6522 6.87186ZM13.8789 5.55453C13.4702 5.62195 13.1936 6.00791 13.261 6.4166C13.3284 6.82529 13.7143 7.10195 14.123 7.03453L13.8789 5.55453ZM15.2686 6.08543L15.1466 5.34543L15.2686 6.08543ZM16.6828 6.88928L15.9618 7.09584L16.6828 6.88928ZM16.28 8.20631C16.3941 8.60451 16.8093 8.83483 17.2075 8.72075C17.6057 8.60667 17.8361 8.19139 17.722 7.7932L16.28 8.20631ZM16.2751 6.0713L16.6457 5.41927L16.6457 5.41927L16.2751 6.0713ZM6.00098 12.2498C10.6751 12.2498 14.4774 10.6777 16.6522 6.87186L15.3498 6.12765C13.5246 9.32179 10.3268 10.7498 6.00098 10.7498V12.2498ZM14.123 7.03453L15.3907 6.82543L15.1466 5.34543L13.8789 5.55453L14.123 7.03453ZM15.9618 7.09584L16.28 8.20631L17.722 7.7932L17.4038 6.68272L15.9618 7.09584ZM15.3907 6.82543C15.6752 6.7785 15.8238 6.75524 15.9282 6.75048C16.0151 6.74651 15.9728 6.76217 15.9045 6.72333L16.6457 5.41927C16.3703 5.2627 16.0912 5.24148 15.8599 5.25203C15.6461 5.26179 15.3949 5.30446 15.1466 5.34543L15.3907 6.82543ZM17.4038 6.68272C17.3431 6.47079 17.2771 6.23355 17.1901 6.0408C17.0899 5.81886 16.9314 5.58162 16.6457 5.41927L15.9045 6.72333C15.8742 6.70611 15.8467 6.68224 15.8273 6.65855C15.8112 6.63893 15.8113 6.63221 15.8229 6.65794C15.8351 6.68504 15.8523 6.73008 15.8769 6.80759C15.9014 6.88499 15.9276 6.9762 15.9618 7.09584L17.4038 6.68272Z" fill="url(#paint3_radial_1920_5311)"/>
<path d="M2.50098 11.9995C2.50098 7.52117 2.50098 5.282 3.89222 3.89075C5.28346 2.49951 7.52263 2.49951 12.001 2.49951C16.4793 2.49951 18.7185 2.49951 20.1097 3.89075C21.501 5.282 21.501 7.52117 21.501 11.9995C21.501 16.4779 21.501 18.717 20.1097 20.1083C18.7185 21.4995 16.4793 21.4995 12.001 21.4995C7.52263 21.4995 5.28346 21.4995 3.89222 20.1083C2.50098 18.717 2.50098 16.4779 2.50098 11.9995Z" stroke="url(#paint4_radial_1920_5311)" stroke-width="1.5"/>
<defs>
<radialGradient id="paint0_radial_1920_5311" cx="0" cy="0" r="1" gradientUnits="userSpaceOnUse" gradientTransform="translate(7.39158 16.7789) rotate(-58.0625) scale(0.684498 0.322655)">
<stop stop-color="#2A5FDD"/>
<stop offset="1" stop-color="#77A9E8"/>
</radialGradient>
<radialGradient id="paint1_radial_1920_5311" cx="0" cy="0" r="1" gradientUnits="userSpaceOnUse" gradientTransform="translate(12.3916 16.1689) rotate(-67.4337) scale(0.943567 0.351099)">
<stop stop-color="#2A5FDD"/>
<stop offset="1" stop-color="#77A9E8"/>
</radialGradient>
<radialGradient id="paint2_radial_1920_5311" cx="0" cy="0" r="1" gradientUnits="userSpaceOnUse" gradientTransform="translate(17.3916 14.948) rotate(-75.9993) scale(1.49667 0.368914)">
<stop stop-color="#2A5FDD"/>
<stop offset="1" stop-color="#77A9E8"/>
</radialGradient>
<radialGradient id="paint3_radial_1920_5311" cx="0" cy="0" r="1" gradientUnits="userSpaceOnUse" gradientTransform="translate(10.2976 8.14314) rotate(-21.8536) scale(4.29144 1.5568)">
<stop stop-color="#2A5FDD"/>
<stop offset="1" stop-color="#77A9E8"/>
</radialGradient>
<radialGradient id="paint4_radial_1920_5311" cx="0" cy="0" r="1" gradientUnits="userSpaceOnUse" gradientTransform="translate(9.92239 9.90392) rotate(-38.7335) scale(8.81955 4.52003)">
<stop stop-color="#2A5FDD"/>
<stop offset="1" stop-color="#77A9E8"/>
</radialGradient>
</defs>
</svg>
