<svg width="32" height="32" viewBox="0 0 32 32" fill="none" xmlns="http://www.w3.org/2000/svg">
<path d="M16.0002 2.6665C11.9898 2.6665 9.38951 5.35849 6.31422 6.33971C5.06379 6.73868 4.43857 6.93816 4.18554 7.21937C3.93251 7.50058 3.85842 7.9115 3.71023 8.73335C2.12452 17.5278 5.59047 25.6585 13.8563 28.8231C14.7445 29.1632 15.1885 29.3332 16.0046 29.3332C16.8207 29.3332 17.2647 29.1631 18.1527 28.8231C26.4181 25.6584 29.8807 17.5278 28.2946 8.73334C28.1463 7.91136 28.0722 7.50036 27.8191 7.21915C27.566 6.93794 26.9409 6.73857 25.6905 6.33982C22.614 5.3587 20.0107 2.6665 16.0002 2.6665Z" fill="white" fill-opacity="0.16"/>
<path d="M16.0002 2.6665C11.9898 2.6665 9.38951 5.35849 6.31422 6.33971C5.06379 6.73868 4.43857 6.93816 4.18554 7.21937C3.93251 7.50058 3.85842 7.9115 3.71023 8.73335C2.12452 17.5278 5.59047 25.6585 13.8563 28.8231C14.7445 29.1632 15.1885 29.3332 16.0046 29.3332C16.8207 29.3332 17.2647 29.1631 18.1527 28.8231C26.4181 25.6584 29.8808 17.5278 28.2946 8.73334C28.1463 7.91136 28.0722 7.50036 27.8191 7.21915C27.566 6.93794 26.9409 6.73857 25.6905 6.33982C22.614 5.3587 20.0107 2.6665 16.0002 2.6665Z" stroke="white" stroke-width="2" stroke-linecap="round" stroke-linejoin="round"/>
<path d="M12.0039 17.3331C12.0039 17.3331 13.3372 17.3331 14.6706 19.9998C14.6706 19.9998 18.9059 13.3331 22.6706 11.9998" stroke="white" stroke-width="2" stroke-linecap="round" stroke-linejoin="round"/>
</svg>
