<svg width="48" height="48" viewBox="0 0 48 48" fill="none" xmlns="http://www.w3.org/2000/svg">
<g id="Group 1707478850">
<circle id="Ellipse 1" cx="24" cy="24" r="24" fill="url(#paint0_radial_0_108)"/>
<path id="Vector" d="M13.0872 16.1469C13.136 16.2309 14.9359 19.3756 17.0881 23.136C19.2403 26.8964 21.0995 30.1251 21.2215 30.307C21.8076 31.192 22.3796 31.6677 23.14 31.9056C23.4435 31.9965 23.4819 32 24.2039 32C24.919 32 24.9678 31.9965 25.2608 31.9056C25.8294 31.7307 26.1817 31.5103 26.6003 31.0626C26.7572 30.8982 26.97 30.6323 27.0746 30.4749C27.2456 30.216 35.3659 16.049 35.3659 16.0105C35.3659 16.0035 34.7346 16 33.9637 16.0105C32.7952 16.021 32.5266 16.0315 32.3661 16.0805C31.8987 16.2204 31.4418 16.5352 31.1941 16.8955C31.1139 17.0075 29.6105 19.6205 27.849 22.6988C26.091 25.777 24.6085 28.3376 24.5597 28.3936C24.3748 28.5894 24.0469 28.6034 23.8551 28.425C23.7958 28.3726 22.3238 25.833 20.5204 22.6813C18.745 19.575 17.2346 16.955 17.1648 16.864C16.9939 16.6262 16.68 16.3743 16.3765 16.2274C15.9475 16.021 15.7487 16 14.2906 16H13L13.0872 16.1469Z" fill="white"/>
</g>
<defs>
<radialGradient id="paint0_radial_0_108" cx="0" cy="0" r="1" gradientUnits="userSpaceOnUse" gradientTransform="translate(24 24) scale(34.5796 38.8716)">
<stop stop-color="#94A8ED"/>
<stop offset="1" stop-color="#94A8ED" stop-opacity="0"/>
</radialGradient>
</defs>
</svg>
