<svg width="48" height="48" viewBox="0 0 48 48" fill="none" xmlns="http://www.w3.org/2000/svg">
<circle cx="24" cy="24" r="24" fill="url(#paint0_radial_253_617)"/>
<g clip-path="url(#clip0_253_617)">
<path d="M10.4663 30.5331H14.1996V26.7998H10.4663V30.5331Z" fill="white" fill-opacity="0.2"/>
<path d="M33.7988 30.5331H37.5321V26.7998H33.7988V30.5331Z" fill="white" fill-opacity="0.2"/>
<path d="M10.4663 20.7331H14.1996V16.9998H10.4663V20.7331Z" fill="white" fill-opacity="0.2"/>
<path d="M22.1328 36.5998H25.8661V32.8665H22.1328V36.5998Z" fill="white" fill-opacity="0.2"/>
<path d="M22.1328 15.1332H25.8661V11.3999H22.1328V15.1332Z" fill="white" fill-opacity="0.2"/>
<path d="M33.7988 20.7331H37.5321V16.9998H33.7988V20.7331Z" fill="white" fill-opacity="0.2"/>
<path d="M23.9991 28.6666L19.3325 26.3333V21.2L23.9991 23.0666V28.6666Z" fill="white" fill-opacity="0.2"/>
<path d="M23.999 28.6666L28.6657 26.3333V21.2L23.999 23.0666V28.6666Z" fill="white" fill-opacity="0.2"/>
<path d="M23.9991 23.0667L19.3325 21.2L23.9991 18.8667L28.6658 21.2L23.9991 23.0667Z" fill="white" fill-opacity="0.2"/>
<path d="M19.7995 26.0448L23.5329 27.9115V23.3826L19.7995 21.8892V26.0448ZM23.9995 29.1332C23.9281 29.1332 23.8567 29.1169 23.7909 29.0842L19.1243 26.7509C18.9661 26.6716 18.8662 26.5101 18.8662 26.3333V21.2C18.8662 21.045 18.9432 20.9004 19.0711 20.8136C19.1999 20.7268 19.3637 20.7095 19.506 20.7664L24.1727 22.6331C24.35 22.7045 24.4662 22.8758 24.4662 23.0666V28.6666C24.4662 28.8286 24.3821 28.9788 24.2445 29.0637C24.1699 29.1099 24.0849 29.1332 23.9995 29.1332Z" fill="white"/>
<path d="M24.4661 23.3826V27.9116L28.1994 26.0449V21.8893L24.4661 23.3826ZM23.9994 29.1333C23.914 29.1333 23.8291 29.1095 23.7544 29.0633C23.6167 28.9784 23.5327 28.8281 23.5327 28.6667V23.0667C23.5327 22.8759 23.6489 22.7041 23.8262 22.6332L28.4928 20.7665C28.6352 20.7091 28.7985 20.7264 28.9278 20.8137C29.0557 20.9004 29.1327 21.0451 29.1327 21.2001V26.3334C29.1327 26.5102 29.0328 26.6717 28.8746 26.7506L24.208 29.0839C24.1422 29.117 24.0708 29.1333 23.9994 29.1333Z" fill="white"/>
<path d="M20.472 21.1525L24.0004 22.5637L27.5284 21.1525L24.0004 19.3886L20.472 21.1525ZM24.0004 23.5335C23.9416 23.5335 23.8828 23.5223 23.8269 23.4999L19.1602 21.6333C18.9894 21.5651 18.8751 21.4032 18.8676 21.2193C18.8597 21.0359 18.9605 20.8647 19.1248 20.7825L23.7914 18.4492C23.923 18.3835 24.0779 18.3835 24.209 18.4492L28.8756 20.7825C29.0399 20.8647 29.1407 21.036 29.1332 21.2193C29.1253 21.4032 29.011 21.5651 28.8402 21.6333L24.1736 23.4999C24.1175 23.5223 24.0592 23.5335 24.0004 23.5335Z" fill="white"/>
<path d="M19.3328 21.6665C19.2274 21.6665 19.1219 21.631 19.0342 21.5582L16.3644 19.3332H14.2C13.9419 19.3332 13.7334 19.1241 13.7334 18.8665C13.7334 18.609 13.942 18.3999 14.2 18.3999H16.5333C16.6425 18.3999 16.7485 18.4382 16.8325 18.5082L19.6325 20.8415C19.8298 21.0062 19.8569 21.3006 19.6922 21.4985C19.5993 21.6091 19.4668 21.6665 19.3328 21.6665Z" fill="white"/>
<path d="M28.6669 21.6665C28.533 21.6665 28.4004 21.6092 28.3076 21.4985C28.1428 21.3006 28.1699 21.0062 28.3673 20.8415L31.1673 18.5082C31.2513 18.4382 31.3572 18.3999 31.4664 18.3999H33.7997C34.0578 18.3999 34.2664 18.609 34.2664 18.8665C34.2664 19.1241 34.0578 19.3332 33.7997 19.3332H31.6353L28.9655 21.5582C28.8779 21.6311 28.7724 21.6665 28.6669 21.6665Z" fill="white"/>
<path d="M33.7997 29.1333H31.4664C31.3572 29.1333 31.2513 29.095 31.1673 29.025L28.3673 26.6917C28.1699 26.527 28.1428 26.2325 28.3076 26.0347C28.4728 25.8368 28.7668 25.8097 28.9656 25.975L31.6354 28.2H33.7998C34.0579 28.2 34.2664 28.4091 34.2664 28.6666C34.2664 28.9242 34.0578 29.1333 33.7997 29.1333Z" fill="white"/>
<path d="M16.5333 29.1332H14.2C13.9419 29.1332 13.7334 28.9242 13.7334 28.6666C13.7334 28.409 13.942 28.2 14.2 28.2H16.3644L19.0342 25.9749C19.2335 25.8097 19.527 25.8368 19.6922 26.0346C19.857 26.2325 19.8299 26.5269 19.6325 26.6917L16.8325 29.025C16.7485 29.095 16.6425 29.1332 16.5333 29.1332Z" fill="white"/>
<path d="M23.9998 19.3334C23.7418 19.3334 23.5332 19.1243 23.5332 18.8667V15.1334C23.5332 14.8758 23.7418 14.6667 23.9998 14.6667C24.2579 14.6667 24.4665 14.8758 24.4665 15.1334V18.8667C24.4665 19.1243 24.2579 19.3334 23.9998 19.3334Z" fill="white"/>
<path d="M23.9998 33.3332C23.7418 33.3332 23.5332 33.1242 23.5332 32.8666V28.6666C23.5332 28.409 23.7418 28.2 23.9998 28.2C24.2579 28.2 24.4665 28.409 24.4665 28.6666V32.8666C24.4665 33.1242 24.2579 33.3332 23.9998 33.3332Z" fill="white"/>
<path d="M10.9333 30.0665H13.7333V27.2665H10.9333V30.0665ZM14.1999 30.9999H10.4666C10.2086 30.9999 10 30.7908 10 30.5332V26.7999C10 26.5423 10.2086 26.3333 10.4666 26.3333H14.2C14.4576 26.3333 14.6666 26.5423 14.6666 26.7999V30.5332C14.6666 30.7908 14.4576 30.9999 14.1999 30.9999Z" fill="white"/>
<path d="M34.2663 30.0665H37.0663V27.2665H34.2663V30.0665ZM37.533 30.9999H33.7996C33.5416 30.9999 33.333 30.7908 33.333 30.5332V26.7999C33.333 26.5423 33.5416 26.3333 33.7996 26.3333H37.533C37.7906 26.3333 37.9996 26.5423 37.9996 26.7999V30.5332C37.9997 30.7908 37.7906 30.9999 37.533 30.9999Z" fill="white"/>
<path d="M10.9333 20.2667H13.7333V17.4667H10.9333V20.2667ZM14.1999 21.2001H10.4666C10.2086 21.2001 10 20.991 10 20.7334V17.0001C10 16.7425 10.2086 16.5334 10.4666 16.5334H14.2C14.4576 16.5334 14.6666 16.7425 14.6666 17.0001V20.7334C14.6666 20.991 14.4576 21.2001 14.1999 21.2001Z" fill="white"/>
<path d="M22.5998 36.1332H25.3998V33.3332H22.5998V36.1332ZM25.8665 37.0665H22.1331C21.8751 37.0665 21.6665 36.8575 21.6665 36.5999V32.8665C21.6665 32.609 21.8751 32.3999 22.1331 32.3999H25.8665C26.1241 32.3999 26.3331 32.609 26.3331 32.8665V36.5999C26.3332 36.8575 26.1241 37.0665 25.8665 37.0665Z" fill="white"/>
<path d="M22.5998 14.6666H25.3998V11.8666H22.5998V14.6666ZM25.8665 15.6H22.1331C21.8751 15.6 21.6665 15.3909 21.6665 15.1333V11.4C21.6665 11.1424 21.8751 10.9333 22.1331 10.9333H25.8665C26.1241 10.9333 26.3331 11.1424 26.3331 11.4V15.1333C26.3332 15.3909 26.1241 15.6 25.8665 15.6Z" fill="white"/>
<path d="M34.2663 20.2667H37.0663V17.4667H34.2663V20.2667ZM37.533 21.2001H33.7996C33.5416 21.2001 33.333 20.991 33.333 20.7334V17.0001C33.333 16.7425 33.5416 16.5334 33.7996 16.5334H37.533C37.7906 16.5334 37.9996 16.7425 37.9996 17.0001V20.7334C37.9997 20.991 37.7906 21.2001 37.533 21.2001Z" fill="white"/>
</g>
<defs>
<radialGradient id="paint0_radial_253_617" cx="0" cy="0" r="1" gradientUnits="userSpaceOnUse" gradientTransform="translate(18.7488 18.7059) rotate(-38.7335) scale(22.281 11.419)">
<stop stop-color="#2A5FDD"/>
<stop offset="1" stop-color="#77A9E8"/>
</radialGradient>
<clipPath id="clip0_253_617">
<rect width="28" height="28" fill="white" transform="translate(10 10)"/>
</clipPath>
</defs>
</svg>
