<svg width="48" height="48" viewBox="0 0 48 48" fill="none" xmlns="http://www.w3.org/2000/svg">
<circle cx="24" cy="24" r="24" fill="url(#paint0_radial_253_1208)"/>
<path d="M21.7382 15.5994C21.0983 16.2392 20.4643 16.5363 19.5521 16.5363C18.7556 16.5363 17.6224 16.3818 17 17.0094C16.3825 17.6321 16.5363 18.7607 16.5363 19.5521C16.5363 20.4643 16.2392 21.0983 15.5994 21.7382C14.5331 22.8044 14 23.3375 14 24C14 24.6624 14.5331 25.1956 15.5994 26.2618C16.3162 26.9786 16.5363 27.4414 16.5363 28.4479C16.5363 29.2444 16.3818 30.3776 17.0095 31C17.6322 31.6175 18.7607 31.4637 19.5521 31.4637C20.5235 31.4637 20.9913 31.6537 21.6846 32.347C22.2749 32.9374 23.0663 34 24 34C24.9337 34 25.7251 32.9374 26.3154 32.347C27.0087 31.6537 27.4765 31.4637 28.4479 31.4637C29.2393 31.4637 30.3678 31.6175 30.9905 31C31.6182 30.3776 31.4637 29.2444 31.4637 28.4479C31.4637 27.4414 31.6838 26.9786 32.4006 26.2618C33.4669 25.1956 34 24.6624 34 24C34 23.3375 33.4669 22.8044 32.4006 21.7382C31.6839 21.0214 31.4637 20.5586 31.4637 19.5521C31.4637 18.7556 31.6182 17.6224 30.9906 17C30.3679 16.3825 29.2393 16.5363 28.4479 16.5363C27.5355 16.5363 26.9015 16.2391 26.2618 15.5994C25.1956 14.5331 24.6625 14 24 14C23.3375 14 22.8044 14.5331 21.7382 15.5994Z" fill="white" fill-opacity="0.2"/>
<path d="M26.2618 15.5994C25.1956 14.5331 24.6625 14 24 14C23.3375 14 22.8044 14.5331 21.7382 15.5994C21.0983 16.2392 20.4643 16.5363 19.5521 16.5363C18.7556 16.5363 17.6224 16.3818 17 17.0094C16.3825 17.6321 16.5363 18.7607 16.5363 19.5521C16.5363 20.4643 16.2392 21.0983 15.5994 21.7382C14.5331 22.8044 14 23.3375 14 24C14 24.6624 14.5331 25.1956 15.5994 26.2618C16.3162 26.9786 16.5363 27.4414 16.5363 28.4479C16.5363 29.2444 16.3818 30.3776 17.0095 31C17.6322 31.6175 18.7607 31.4637 19.5521 31.4637C20.5235 31.4637 20.9913 31.6537 21.6846 32.347C22.2749 32.9374 23.0663 34 24 34C24.9337 34 25.7251 32.9374 26.3154 32.347C27.0087 31.6537 27.4765 31.4637 28.4479 31.4637C29.2393 31.4637 30.3678 31.6175 30.9905 31M32.4006 21.7382C33.4669 22.8044 34 23.3375 34 24C34 24.6624 33.4669 25.1956 32.4006 26.2618C31.6838 26.9786 31.4637 27.4414 31.4637 28.4479C31.4637 29.2444 31.6182 30.3776 30.9905 31M30.9905 31H31" stroke="white" stroke-width="1.5" stroke-linecap="round" stroke-linejoin="round"/>
<path d="M20 22.3077C20 22.3077 22.25 22 24 26C24 26 29.0588 16 34 14" stroke="white" stroke-width="1.5" stroke-linecap="round" stroke-linejoin="round"/>
<defs>
<radialGradient id="paint0_radial_253_1208" cx="0" cy="0" r="1" gradientUnits="userSpaceOnUse" gradientTransform="translate(18.7488 18.7059) rotate(-38.7335) scale(22.281 11.419)">
<stop stop-color="#2A5FDD"/>
<stop offset="1" stop-color="#77A9E8"/>
</radialGradient>
</defs>
</svg>
