<svg width="48" height="48" viewBox="0 0 48 48" fill="none" xmlns="http://www.w3.org/2000/svg">
<circle cx="24" cy="24" r="24" fill="url(#paint0_radial_253_1198)"/>
<path d="M24 34C29.5228 34 34 29.5228 34 24C34 22.5778 33.7031 21.2249 33.1679 20L31 16.8586C29.1962 15.0903 26.7255 14 24 14C18.4772 14 14 18.4772 14 24C14 25.4222 14.2969 26.7751 14.8321 28C15.4775 28.9738 16.8146 30.9654 17 31.1414C18.8038 32.9097 21.2745 34 24 34Z" fill="white" fill-opacity="0.2"/>
<path d="M29.458 21.0801L29.1669 20.5662C28.9468 20.1775 28.8367 19.9831 28.6494 19.9056C28.4622 19.8281 28.2503 19.8893 27.8267 20.0116L27.1071 20.2178C26.8366 20.2813 26.5529 20.2453 26.3059 20.1162L26.1072 19.9996C25.8955 19.8616 25.7326 19.6581 25.6424 19.419L25.4455 18.8205C25.316 18.4245 25.2512 18.2265 25.0971 18.1133C24.943 18 24.7382 18 24.3287 18H23.6713C23.2618 18 23.057 18 22.9029 18.1133C22.7488 18.2265 22.684 18.4245 22.5545 18.8205L22.3576 19.419C22.2674 19.6581 22.1045 19.8616 21.8928 19.9996L21.6941 20.1162C21.4471 20.2453 21.1634 20.2813 20.8929 20.2178L20.1733 20.0116C19.7497 19.8893 19.5378 19.8281 19.3506 19.9056C19.1633 19.9831 19.0532 20.1775 18.8331 20.5662L18.542 21.0801C18.3356 21.4445 18.2324 21.6267 18.2525 21.8206C18.2725 22.0145 18.4106 22.1708 18.6869 22.4834L19.2949 23.175C19.4435 23.3664 19.549 23.7 19.549 23.9999C19.549 24.3 19.4436 24.6335 19.2949 24.8249L18.6869 25.5166L18.6869 25.5166C18.4106 25.8291 18.2725 25.9854 18.2525 26.1793C18.2324 26.3733 18.3356 26.5555 18.542 26.9198L18.833 27.4337C19.0532 27.8224 19.1633 28.0168 19.3506 28.0943C19.5379 28.1718 19.7497 28.1106 20.1733 27.9883L20.8929 27.7821C21.1634 27.7186 21.4472 27.7547 21.6942 27.8838L21.8928 28.0004C22.1046 28.1384 22.2674 28.3419 22.3576 28.581L22.5545 29.1795C22.684 29.5755 22.7488 29.7735 22.9029 29.8867C23.057 30 23.2618 30 23.6713 30H24.3287C24.7382 30 24.943 30 25.0971 29.8867C25.2512 29.7735 25.316 29.5755 25.4455 29.1795L25.6424 28.581C25.7326 28.3419 25.8954 28.1384 26.1072 28.0004L26.3058 27.8838C26.5528 27.7547 26.8366 27.7186 27.1071 27.7821L27.8267 27.9883C28.2503 28.1106 28.4621 28.1718 28.6494 28.0943C28.8367 28.0168 28.9468 27.8224 29.167 27.4338L29.167 27.4337L29.458 26.9198C29.6644 26.5555 29.7676 26.3733 29.7475 26.1793C29.7275 25.9854 29.5894 25.8291 29.3131 25.5166L28.7051 24.8249C28.5564 24.6335 28.451 24.3 28.451 23.9999C28.451 23.7 28.5565 23.3664 28.7051 23.175L29.3131 22.4834C29.5894 22.1708 29.7275 22.0145 29.7475 21.8206C29.7676 21.6267 29.6644 21.4445 29.458 21.0801Z" fill="white" fill-opacity="0.2"/>
<path d="M29.458 21.0801L29.1669 20.5662C28.9468 20.1775 28.8367 19.9831 28.6494 19.9056C28.4622 19.8281 28.2503 19.8893 27.8267 20.0116L27.1071 20.2178C26.8366 20.2813 26.5529 20.2453 26.3059 20.1162L26.1072 19.9996C25.8955 19.8616 25.7326 19.6581 25.6424 19.419L25.4455 18.8205C25.316 18.4245 25.2512 18.2265 25.0971 18.1133C24.943 18 24.7382 18 24.3287 18H23.6713C23.2618 18 23.057 18 22.9029 18.1133C22.7488 18.2265 22.684 18.4245 22.5545 18.8205L22.3576 19.419C22.2674 19.6581 22.1045 19.8616 21.8928 19.9996L21.6941 20.1162C21.4471 20.2453 21.1634 20.2813 20.8929 20.2178L20.1733 20.0116C19.7497 19.8893 19.5378 19.8281 19.3506 19.9056C19.1633 19.9831 19.0532 20.1775 18.8331 20.5662L18.542 21.0801C18.3356 21.4445 18.2324 21.6267 18.2525 21.8206C18.2725 22.0145 18.4106 22.1708 18.6869 22.4834L19.2949 23.175C19.4435 23.3664 19.549 23.7 19.549 23.9999C19.549 24.3 19.4436 24.6335 19.2949 24.8249L18.6869 25.5166L18.6869 25.5166C18.4106 25.8291 18.2725 25.9854 18.2525 26.1793C18.2324 26.3733 18.3356 26.5555 18.542 26.9198L18.833 27.4337C19.0532 27.8224 19.1633 28.0168 19.3506 28.0943C19.5379 28.1718 19.7497 28.1106 20.1733 27.9883L20.8929 27.7821C21.1634 27.7186 21.4472 27.7547 21.6942 27.8838L21.8928 28.0004C22.1046 28.1384 22.2674 28.3419 22.3576 28.581L22.5545 29.1795C22.684 29.5755 22.7488 29.7735 22.9029 29.8867C23.057 30 23.2618 30 23.6713 30H24.3287C24.7382 30 24.943 30 25.0971 29.8867C25.2512 29.7735 25.316 29.5755 25.4455 29.1795L25.6424 28.581C25.7326 28.3419 25.8954 28.1384 26.1072 28.0004L26.3058 27.8838C26.5528 27.7547 26.8366 27.7186 27.1071 27.7821L27.8267 27.9883C28.2503 28.1106 28.4621 28.1718 28.6494 28.0943C28.8367 28.0168 28.9468 27.8224 29.167 27.4338L29.167 27.4337L29.458 26.9198C29.6644 26.5555 29.7676 26.3733 29.7475 26.1793C29.7275 25.9854 29.5894 25.8291 29.3131 25.5166L28.7051 24.8249C28.5564 24.6335 28.451 24.3 28.451 23.9999C28.451 23.7 28.5565 23.3664 28.7051 23.175L29.3131 22.4834C29.5894 22.1708 29.7275 22.0145 29.7475 21.8206C29.7676 21.6267 29.6644 21.4445 29.458 21.0801Z" stroke="white" stroke-width="1.5" stroke-linecap="round"/>
<circle cx="24" cy="24" r="1.75" fill="white" fill-opacity="0.2"/>
<circle cx="24" cy="24" r="1.75" stroke="white" stroke-width="1.5"/>
<path d="M31 14V16.8586C29.1962 15.0903 26.7255 14 24 14C18.4772 14 14 18.4772 14 24C14 25.4222 14.2969 26.7751 14.8321 28M17 34V31.1414C18.8038 32.9097 21.2745 34 24 34C29.5228 34 34 29.5228 34 24C34 22.5778 33.7031 21.2249 33.1679 20" stroke="white" stroke-width="1.5" stroke-linecap="round" stroke-linejoin="round"/>
<defs>
<radialGradient id="paint0_radial_253_1198" cx="0" cy="0" r="1" gradientUnits="userSpaceOnUse" gradientTransform="translate(18.7488 18.7059) rotate(-38.7335) scale(22.281 11.419)">
<stop stop-color="#2A5FDD"/>
<stop offset="1" stop-color="#77A9E8"/>
</radialGradient>
</defs>
</svg>
