<svg width="48" height="48" viewBox="0 0 48 48" fill="none" xmlns="http://www.w3.org/2000/svg">
<circle cx="24" cy="24" r="24" fill="url(#paint0_radial_0_955)"/>
<path d="M28.5252 19.4748C33.4489 24.3985 35.4143 30.416 32.9152 32.9152C31.5631 34.2672 29.1813 34.3126 26.5 33.2897C24.2252 32.4218 21.7348 30.7851 19.4748 28.5252C14.5511 23.6015 12.5857 17.584 15.0848 15.0848C16.3522 13.8174 18.5245 13.6982 21 14.5308C23.8595 15.4925 26.4048 17.3545 28.5252 19.4748Z" fill="white" fill-opacity="0.2"/>
<path d="M19.4748 19.4748C14.5511 24.3985 12.5857 30.416 15.0848 32.9152C16.4369 34.2672 18.8187 34.3126 21.5 33.2897C23.7748 32.4218 26.2652 30.7851 28.5252 28.5252C33.4489 23.6015 35.4143 17.584 32.9152 15.0848C31.6478 13.8174 29.4755 13.6982 27 14.5308C24.1405 15.4925 21.5952 17.3545 19.4748 19.4748Z" fill="white" fill-opacity="0.2"/>
<path d="M33.6256 20.5C34.2803 18.2336 34.0965 16.2662 32.9152 15.0848C30.416 12.5857 24.3985 14.5511 19.4748 19.4748C18.9489 20.0008 18.4566 20.5393 18 21.0846M30 26.9154C29.5434 27.4607 29.0511 27.9992 28.5252 28.5252C23.6015 33.4489 17.584 35.4143 15.0848 32.9152C13.8174 31.6478 13.6982 29.4755 14.5308 27" stroke="white" stroke-width="1.5" stroke-linecap="round" stroke-linejoin="round"/>
<path d="M21.5 30.3399C20.8127 29.7904 20.134 29.1843 19.4748 28.5252C14.5511 23.6015 12.5857 17.584 15.0848 15.0848C16.3522 13.8174 18.5245 13.6982 21 14.5308M26.5 33.2897C29.1813 34.3126 31.5631 34.2672 32.9152 32.9152C35.4143 30.416 33.4489 24.3985 28.5252 19.4748C27.866 18.8157 27.1873 18.2096 26.5 17.6601" stroke="white" stroke-width="1.5" stroke-linecap="round" stroke-linejoin="round"/>
<defs>
<radialGradient id="paint0_radial_0_955" cx="0" cy="0" r="1" gradientUnits="userSpaceOnUse" gradientTransform="translate(24 24) scale(34.5796 38.8716)">
<stop stop-color="#94A8ED"/>
<stop offset="1" stop-color="#94A8ED" stop-opacity="0"/>
</radialGradient>
</defs>
</svg>
