<svg width="88" height="21" viewBox="0 0 88 21" fill="none" xmlns="http://www.w3.org/2000/svg">
<g id="Group">
<path id="Vector" d="M70.1001 0.460012C68.5516 0.790588 67.3502 1.96065 66.9685 3.50479C66.8904 3.82232 66.873 4.01805 66.873 4.58786C66.873 5.36211 66.9294 5.69703 67.155 6.25814C67.554 7.26292 68.4388 8.14591 69.4278 8.52868C70.1825 8.82446 69.6967 8.80706 77.3001 8.80706H84.1749L84.5652 8.70702C86.105 8.31554 87.2804 7.09763 87.5971 5.55784C87.6881 5.10983 87.6881 4.07025 87.5971 3.61788C87.2848 2.07809 86.0052 0.786239 84.4785 0.473062C84.1055 0.394767 83.7498 0.390417 77.2351 0.394767C71.5487 0.394767 70.3343 0.407816 70.1001 0.460012ZM84.1055 1.3517C84.7908 1.46044 85.3503 1.75187 85.8448 2.25643C86.2264 2.6479 86.413 2.94803 86.5995 3.46564C86.7296 3.83537 86.7339 3.87452 86.7339 4.56611C86.7339 5.19682 86.7209 5.32296 86.6342 5.61004C86.4563 6.17115 86.2525 6.50607 85.8231 6.94104C85.3633 7.40211 84.9426 7.64569 84.357 7.78488C83.9927 7.87188 83.8843 7.87188 77.1396 7.86318L70.2952 7.85013L69.9483 7.72834C68.9767 7.38471 68.2523 6.65831 67.94 5.71008C67.849 5.42735 67.8273 5.26641 67.8099 4.7314C67.7882 3.94411 67.8533 3.60483 68.1352 3.03068C68.3 2.69575 68.3998 2.56526 68.7294 2.23903C69.2499 1.72142 69.6707 1.49524 70.3386 1.3691C70.729 1.29515 83.6587 1.27775 84.1055 1.3517Z" fill="white"/>
<path id="Vector_2" d="M70.5352 2.58233C70.1882 2.65627 69.9106 2.80416 69.6287 3.06514C69.3554 3.32177 69.1906 3.59145 69.0822 3.97423C68.9781 4.3309 69.0084 5.1008 69.1385 5.43572C69.325 5.91419 69.7501 6.33611 70.2316 6.53619C70.4658 6.63188 70.5005 6.63188 72.7689 6.64493C74.3781 6.65363 75.1458 6.64493 75.328 6.61014C76.0393 6.47095 76.6162 5.92289 76.807 5.19649C76.8851 4.90506 76.8808 4.2961 76.8027 3.97858C76.6205 3.26958 76.009 2.69977 75.2889 2.56928C74.9203 2.49968 70.8561 2.51273 70.5352 2.58233ZM75.1371 3.43487C75.4321 3.49141 75.6793 3.66105 75.8441 3.92638C75.9526 4.10472 75.9743 4.19171 75.9916 4.50489C76.022 5.07035 75.8355 5.44007 75.4191 5.66625C75.2456 5.76195 75.2109 5.76195 73.0335 5.775C70.5569 5.78805 70.5092 5.7837 70.2185 5.50097C69.9453 5.23564 69.9063 5.12254 69.9063 4.60493C69.9063 4.16996 69.9149 4.13517 70.0364 3.93508C70.1969 3.6741 70.4484 3.49141 70.7087 3.43922C70.9863 3.38267 74.8509 3.38267 75.1371 3.43487Z" fill="white"/>
<path id="Vector_3" d="M78.1478 2.64756C77.5449 2.92159 77.328 3.92202 77.7444 4.50488C77.8181 4.60927 77.9569 4.74846 78.0567 4.81371L78.2345 4.9355L81.3488 4.95725L84.4673 4.97899L84.5498 5.08339C84.6669 5.22693 84.6625 5.57925 84.5454 5.69669C84.4587 5.78369 84.4023 5.78369 81.1839 5.78369H77.9092V6.19691V6.61013H81.3184C85.1266 6.61013 84.8751 6.63187 85.1787 6.29695C85.3825 6.07076 85.4563 5.88373 85.4866 5.51835C85.53 4.98334 85.3305 4.54403 84.9358 4.31349L84.7406 4.19605L81.6264 4.1743L78.5078 4.15255L78.4254 4.04816C78.3126 3.90897 78.3126 3.61319 78.4297 3.48705L78.5208 3.39136H81.7912H85.0659V2.97814V2.56492H81.6958C78.5165 2.56492 78.3126 2.56927 78.1478 2.64756Z" fill="white"/>
<path id="Vector_4" d="M0.108435 0.659967C0.169158 0.76436 2.40725 4.67473 5.08341 9.35064C7.75958 14.0266 10.0714 18.0413 10.2232 18.2675C10.9519 19.368 11.6632 19.9595 12.6088 20.2553C12.9861 20.3684 13.0338 20.3727 13.9317 20.3727C14.8208 20.3727 14.8816 20.3684 15.2459 20.2553C15.9529 20.0378 16.391 19.7638 16.9115 19.207C17.1066 19.0026 17.3712 18.672 17.5013 18.4763C17.7139 18.1544 27.8113 0.538177 27.8113 0.49033C27.8113 0.48163 27.0262 0.477282 26.0677 0.49033C24.6146 0.50338 24.2807 0.516428 24.0812 0.577324C23.4999 0.751312 22.9317 1.14278 22.6238 1.5908C22.524 1.72999 20.6546 4.97921 18.4642 8.80693C16.2782 12.6347 14.4348 15.8186 14.3741 15.8882C14.1442 16.1318 13.7365 16.1492 13.4979 15.9274C13.4242 15.8621 11.5938 12.7042 9.3514 8.78518C7.14367 4.92266 5.26558 1.66475 5.17884 1.55165C4.9663 1.25587 4.57594 0.942698 4.19859 0.760012C3.66509 0.50338 3.41786 0.477282 1.60483 0.477282H0L0.108435 0.659967Z" fill="white"/>
<path id="Vector_5" d="M33.3069 0.529352C32.8732 0.577198 32.2443 0.781633 31.9103 0.977369C31.3334 1.32099 30.839 1.82556 30.3011 2.63025C30.1276 2.89123 27.7594 6.99298 25.0399 11.7428L20.0996 20.377L21.7955 20.39C23.6866 20.4031 23.756 20.3944 24.3416 20.1073C24.5931 19.9855 24.7449 19.868 25.0095 19.5984C25.3478 19.2504 25.3869 19.1808 29.4163 12.1387C32.1662 7.32791 33.5151 5.00518 33.5975 4.94428C33.8491 4.76159 34.2525 4.80509 34.4607 5.03562C34.5041 5.08347 36.3518 8.28919 38.5682 12.1648C40.9754 16.3753 42.68 19.3069 42.8101 19.4679C43.0574 19.7724 43.4998 20.0855 43.9292 20.2595L44.2285 20.377L46.0415 20.39C47.0347 20.3987 47.8502 20.39 47.8502 20.377C47.8502 20.3161 37.8438 2.86078 37.5793 2.46061C36.56 0.912123 35.2241 0.307518 33.3069 0.529352Z" fill="white"/>
<path id="Vector_6" d="M62.3665 0.542398C61.7636 0.66419 61.1086 1.07741 60.7573 1.55587C60.6749 1.67332 58.2026 5.95341 55.2705 11.073L49.9355 20.377L51.6315 20.39C53.5269 20.4031 53.6006 20.3944 54.1818 20.1073C54.4204 19.9898 54.5939 19.8637 54.8325 19.6201C55.1534 19.2939 55.2315 19.1634 60.471 10.0247C63.3901 4.92688 65.819 0.694637 65.8624 0.616343L65.9448 0.477154L64.301 0.481503C63.1082 0.485853 62.579 0.50325 62.3665 0.542398Z" fill="white"/>
<path id="Vector_7" d="M70.7207 11.1599C70.5038 11.2687 70.3997 11.4731 70.3737 11.8515L70.3477 12.1778H70.1828C70.0137 12.1778 70.0137 12.1778 70.0137 12.3518V12.5257H70.1872H70.3607V13.2652V14.0046H70.5992H70.8378V13.2652V12.5257H71.033H71.2281V12.3518V12.1778H71.033H70.8378V11.9255C70.8378 11.5949 70.9158 11.4818 71.1457 11.4818H71.3149V11.2861V11.0903H71.0893C70.9636 11.0903 70.7944 11.1251 70.7207 11.1599Z" fill="white"/>
<path id="Vector_8" d="M83.1992 12.5692V14.0046H83.4161H83.633V12.5692V11.1338H83.4161H83.1992V12.5692Z" fill="white"/>
<path id="Vector_9" d="M75.7094 11.2644C75.306 11.3514 74.959 11.6081 74.7639 11.9647C74.521 12.4171 74.573 13.1261 74.8853 13.535C75.3494 14.1439 76.386 14.257 76.9239 13.7525C76.9889 13.6916 77.041 13.6263 77.041 13.6046C77.041 13.5872 76.9629 13.5176 76.8675 13.4567L76.6897 13.3392L76.5942 13.4262C76.2603 13.7307 75.7485 13.709 75.4145 13.3784C74.8636 12.8216 75.1716 11.7733 75.9133 11.6733C76.1475 11.6429 76.4251 11.7081 76.5552 11.8299C76.6723 11.943 76.6853 11.9386 76.8848 11.769L77.0497 11.6255L76.9022 11.5124C76.6116 11.2905 76.0954 11.1818 75.7094 11.2644Z" fill="white"/>
<path id="Vector_10" d="M69.2979 11.3731C69.2372 11.4297 69.1895 11.5036 69.1895 11.5384C69.1895 11.6515 69.3673 11.8298 69.4757 11.8298C69.5972 11.8298 69.7967 11.6515 69.7967 11.5471C69.7967 11.4471 69.6015 11.2644 69.4931 11.2644C69.4454 11.2644 69.3543 11.3122 69.2979 11.3731Z" fill="white"/>
<path id="Vector_11" d="M82.1421 11.3557C81.8515 11.5863 82.1898 11.9777 82.4977 11.7602C82.6929 11.6211 82.5758 11.2644 82.3286 11.2644C82.2895 11.2644 82.2071 11.3035 82.1421 11.3557Z" fill="white"/>
<path id="Vector_12" d="M67.3242 12.6562V14.0046H68.1266H68.9291V13.7872V13.5697H68.3652H67.8013V12.4388V11.3078H67.5628H67.3242V12.6562Z" fill="white"/>
<path id="Vector_13" d="M79.8164 12.6519V14.0046H80.055H80.2935V13.4392V12.8737H80.6362C81.3345 12.8737 81.6815 12.604 81.6815 12.069C81.6815 11.7906 81.5557 11.5688 81.3302 11.4383C81.1523 11.3383 81.0873 11.3296 80.48 11.3165L79.8164 11.2991V12.6519ZM81.0482 11.8037C81.1089 11.8428 81.174 11.9255 81.187 11.9907C81.2651 12.2909 81.0179 12.4822 80.5668 12.4822H80.2935V12.0864V11.6863L80.6145 11.708C80.814 11.7211 80.9832 11.7559 81.0482 11.8037Z" fill="white"/>
<path id="Vector_14" d="M86.7552 11.9168V12.1778H86.5817C86.4082 12.1778 86.4082 12.1778 86.4082 12.3474C86.4082 12.5171 86.4125 12.5214 86.573 12.5345L86.7335 12.5475L86.7552 13.1347C86.7682 13.5044 86.7986 13.7611 86.8333 13.822C86.9027 13.9481 87.1325 14.0482 87.3364 14.0482C87.5793 14.0482 87.6227 14.0134 87.6227 13.8263C87.6227 13.6567 87.6227 13.6567 87.4492 13.6567C87.215 13.6567 87.1889 13.5871 87.1889 13.0086V12.5258H87.4275H87.666V12.3518V12.1778H87.4275H87.1889V11.9168V11.6558H86.9721H86.7552V11.9168Z" fill="white"/>
<path id="Vector_15" d="M71.9878 12.2083C71.6148 12.404 71.4239 12.7476 71.4543 13.1696C71.4803 13.5132 71.6018 13.735 71.8533 13.896C72.235 14.1308 72.8336 14.0873 73.0982 13.8046L73.2023 13.6915L73.0505 13.5697C72.8987 13.4436 72.8987 13.4436 72.8076 13.5306C72.569 13.7568 72.157 13.7133 71.9791 13.4436C71.9271 13.3653 71.8924 13.2826 71.9054 13.2609C71.9184 13.2392 72.2307 13.2218 72.5994 13.2218H73.2673V13.0086C73.2673 12.6954 73.0852 12.3649 72.8379 12.2344C72.6081 12.1126 72.1917 12.0995 71.9878 12.2083ZM72.6775 12.578C72.7382 12.6345 72.7946 12.7259 72.7989 12.7868L72.8119 12.8955L72.3695 12.9086C71.9401 12.9216 71.9227 12.9173 71.9227 12.8303C71.9227 12.7781 71.9791 12.678 72.0485 12.6084C72.2134 12.4432 72.5083 12.4301 72.6775 12.578Z" fill="white"/>
<path id="Vector_16" d="M77.7917 12.2389C77.2149 12.5086 77.1064 13.335 77.5922 13.7961C77.9609 14.1484 78.6072 14.1354 78.9715 13.7656C79.453 13.2872 79.2968 12.4607 78.6809 12.2041C78.4337 12.0997 78.0607 12.1171 77.7917 12.2389ZM78.6158 12.6521C78.7156 12.7478 78.7503 12.8305 78.7676 13.0001C78.8023 13.3916 78.6115 13.6569 78.2949 13.6569C78.0476 13.6569 77.9219 13.5786 77.8178 13.3655C77.6052 12.9262 77.9002 12.4433 78.3426 12.5042C78.4293 12.5129 78.5421 12.5782 78.6158 12.6521Z" fill="white"/>
<path id="Vector_17" d="M84.7611 12.2039C84.4098 12.3561 84.1973 12.6867 84.1973 13.0782C84.2016 13.6567 84.592 14.0482 85.1732 14.0482C85.7457 14.0482 86.1491 13.6523 86.1491 13.0912C86.1491 12.6867 85.9322 12.3518 85.5766 12.2039C85.3727 12.1169 84.9606 12.1169 84.7611 12.2039ZM85.3857 12.5475C85.7197 12.7085 85.7978 13.2348 85.5245 13.5088C85.3293 13.7045 85.0561 13.7176 84.8522 13.5436C84.4618 13.2174 84.6787 12.4953 85.1645 12.4823C85.2122 12.4823 85.3076 12.5127 85.3857 12.5475Z" fill="white"/>
<path id="Vector_18" d="M69.2773 13.0912V14.0046H69.4942H69.7111V13.0912V12.1778H69.4942H69.2773V13.0912Z" fill="white"/>
<path id="Vector_19" d="M82.0723 13.0912V14.0046H82.3108H82.5494V13.0912V12.1778H82.3108H82.0723V13.0912Z" fill="white"/>
</g>
</svg>
