<svg width="18" height="18" viewBox="0 0 18 18" fill="none" xmlns="http://www.w3.org/2000/svg">
<g id="elements">
<path id="Rectangle 1875" d="M1 4C1 2.58579 1 1.87868 1.43934 1.43934C1.87868 1 2.58579 1 4 1C5.41421 1 6.12132 1 6.56066 1.43934C7 1.87868 7 2.58579 7 4V14C7 15.4142 7 16.1213 6.56066 16.5607C6.12132 17 5.41421 17 4 17C2.58579 17 1.87868 17 1.43934 16.5607C1 16.1213 1 15.4142 1 14V4Z" fill="#77A9E8" fill-opacity="0.2"/>
<path id="Rectangle 1877" d="M1 4C1 2.58579 1 1.87868 1.43934 1.43934C1.87868 1 2.58579 1 4 1C5.41421 1 6.12132 1 6.56066 1.43934C7 1.87868 7 2.58579 7 4V14C7 15.4142 7 16.1213 6.56066 16.5607C6.12132 17 5.41421 17 4 17C2.58579 17 1.87868 17 1.43934 16.5607C1 16.1213 1 15.4142 1 14V4Z" stroke="url(#paint0_radial_2001_296)" stroke-width="1.5"/>
<path id="Rectangle 1876" d="M11 4C11 2.58579 11 1.87868 11.4393 1.43934C11.8787 1 12.5858 1 14 1C15.4142 1 16.1213 1 16.5607 1.43934C17 1.87868 17 2.58579 17 4V14C17 15.4142 17 16.1213 16.5607 16.5607C16.1213 17 15.4142 17 14 17C12.5858 17 11.8787 17 11.4393 16.5607C11 16.1213 11 15.4142 11 14V4Z" fill="#77A9E8" fill-opacity="0.2"/>
<path id="Rectangle 1878" d="M11 4C11 2.58579 11 1.87868 11.4393 1.43934C11.8787 1 12.5858 1 14 1C15.4142 1 16.1213 1 16.5607 1.43934C17 1.87868 17 2.58579 17 4V14C17 15.4142 17 16.1213 16.5607 16.5607C16.1213 17 15.4142 17 14 17C12.5858 17 11.8787 17 11.4393 16.5607C11 16.1213 11 15.4142 11 14V4Z" stroke="url(#paint1_radial_2001_296)" stroke-width="1.5"/>
</g>
<defs>
<radialGradient id="paint0_radial_2001_296" cx="0" cy="0" r="1" gradientUnits="userSpaceOnUse" gradientTransform="translate(3.34361 7.23529) rotate(-64.9432) scale(5.12984 2.06656)">
<stop stop-color="#2A5FDD"/>
<stop offset="1" stop-color="#77A9E8"/>
</radialGradient>
<radialGradient id="paint1_radial_2001_296" cx="0" cy="0" r="1" gradientUnits="userSpaceOnUse" gradientTransform="translate(13.3436 7.23529) rotate(-64.9432) scale(5.12984 2.06656)">
<stop stop-color="#2A5FDD"/>
<stop offset="1" stop-color="#77A9E8"/>
</radialGradient>
</defs>
</svg>
