<svg width="18" height="18" viewBox="0 0 18 18" fill="none" xmlns="http://www.w3.org/2000/svg">
<g id="elements">
<path id="Vector 3642" d="M15.3906 9.84597C15.0371 11.189 13.3667 12.138 10.0257 14.0361C6.79605 15.8709 5.1812 16.7884 3.87983 16.4196C3.3418 16.2671 2.85159 15.9776 2.45624 15.5787C1.5 14.6139 1.5 12.7426 1.5 9C1.5 5.2574 1.5 3.3861 2.45624 2.42132C2.85159 2.02245 3.3418 1.73288 3.87983 1.58042C5.1812 1.21165 6.79605 2.12907 10.0257 3.96393C13.3667 5.86197 15.0371 6.811 15.3906 8.15403C15.5365 8.70839 15.5365 9.29161 15.3906 9.84597Z" fill="#77A9E8" fill-opacity="0.2"/>
<path id="Vector 3643" d="M15.3906 9.84597C15.0371 11.189 13.3667 12.138 10.0257 14.0361C6.79605 15.8709 5.1812 16.7884 3.87983 16.4196C3.3418 16.2671 2.85159 15.9776 2.45624 15.5787C1.5 14.6139 1.5 12.7426 1.5 9C1.5 5.2574 1.5 3.3861 2.45624 2.42132C2.85159 2.02245 3.3418 1.73288 3.87983 1.58042C5.1812 1.21165 6.79605 2.12907 10.0257 3.96393C13.3667 5.86197 15.0371 6.811 15.3906 8.15403C15.5365 8.70839 15.5365 9.29161 15.3906 9.84597Z" stroke="url(#paint0_radial_2001_405)" stroke-width="1.5" stroke-linejoin="round"/>
</g>
<defs>
<radialGradient id="paint0_radial_2001_405" cx="0" cy="0" r="1" gradientUnits="userSpaceOnUse" gradientTransform="translate(8.5 9) scale(10.0857 12.1474)">
<stop stop-color="#94A8ED"/>
<stop offset="1" stop-color="white"/>
</radialGradient>
</defs>
</svg>
