<svg width="20" height="22" viewBox="0 0 20 22" fill="none" xmlns="http://www.w3.org/2000/svg">
<g id="elements">
<path id="Rectangle 2176" d="M10.5294 1C14.5225 1 16.519 1 17.7595 2.17157C19 3.34315 19 5.22876 19 9V13C19 16.7712 19 18.6569 17.7595 19.8284C16.519 21 14.5225 21 10.5294 21H9.47059C5.47751 21 3.48098 21 2.24049 19.8284C1 18.6569 1 16.7712 1 13L1 9C1 5.22876 1 3.34315 2.24049 2.17157C3.48098 1 5.47752 1 9.47059 1L10.5294 1Z" fill="#77A9E8" fill-opacity="0.2"/>
<path id="Rectangle 2175" d="M10.5294 1C14.5225 1 16.519 1 17.7595 2.17157C19 3.34315 19 5.22876 19 9V13C19 16.7712 19 18.6569 17.7595 19.8284C16.519 21 14.5225 21 10.5294 21H9.47059C5.47751 21 3.48098 21 2.24049 19.8284C1 18.6569 1 16.7712 1 13L1 9C1 5.22876 1 3.34315 2.24049 2.17157C3.48098 1 5.47752 1 9.47059 1L10.5294 1Z" stroke="url(#paint0_radial_2001_275)" stroke-width="1.5" stroke-linecap="round"/>
<path id="Vector 4435" d="M6 6H14" stroke="url(#paint1_radial_2001_275)" stroke-width="1.5" stroke-linecap="round"/>
<path id="Vector 4436" d="M6 11H14" stroke="url(#paint2_radial_2001_275)" stroke-width="1.5" stroke-linecap="round"/>
<path id="Vector 4438" d="M6 16L10 16" stroke="url(#paint3_radial_2001_275)" stroke-width="1.5" stroke-linecap="round"/>
</g>
<defs>
<radialGradient id="paint0_radial_2001_275" cx="0" cy="0" r="1" gradientUnits="userSpaceOnUse" gradientTransform="translate(8.03082 8.79412) rotate(-41.7086) scale(8.73058 4.55344)">
<stop stop-color="#2A5FDD"/>
<stop offset="1" stop-color="#77A9E8"/>
</radialGradient>
<radialGradient id="paint1_radial_2001_275" cx="0" cy="0" r="1" gradientUnits="userSpaceOnUse" gradientTransform="translate(9.12481 6.38971) rotate(-5.72557) scale(2.91129 0.303449)">
<stop stop-color="#2A5FDD"/>
<stop offset="1" stop-color="#77A9E8"/>
</radialGradient>
<radialGradient id="paint2_radial_2001_275" cx="0" cy="0" r="1" gradientUnits="userSpaceOnUse" gradientTransform="translate(9.12481 11.3897) rotate(-5.72557) scale(2.91129 0.303449)">
<stop stop-color="#2A5FDD"/>
<stop offset="1" stop-color="#77A9E8"/>
</radialGradient>
<radialGradient id="paint3_radial_2001_275" cx="0" cy="0" r="1" gradientUnits="userSpaceOnUse" gradientTransform="translate(7.5624 16.3897) rotate(-11.339) scale(1.47722 0.299017)">
<stop stop-color="#2A5FDD"/>
<stop offset="1" stop-color="#77A9E8"/>
</radialGradient>
</defs>
</svg>
