<svg width="32" height="32" viewBox="0 0 32 32" fill="none" xmlns="http://www.w3.org/2000/svg">
<path d="M28.34 9.51143L27.6819 8.3693C27.1841 7.50552 26.9353 7.07364 26.5118 6.90142C26.0884 6.7292 25.6095 6.86509 24.6517 7.13688L23.0248 7.59515C22.4133 7.73616 21.7717 7.65617 21.2134 7.3693L20.7642 7.11013C20.2855 6.80349 19.9172 6.35135 19.7134 5.8199L19.2681 4.49005C18.9753 3.61002 18.8289 3.17001 18.4804 2.91833C18.1319 2.66666 17.669 2.66666 16.7432 2.66666H15.2568C14.331 2.66666 13.8681 2.66666 13.5196 2.91833C13.1711 3.17001 13.0247 3.61002 12.732 4.49005L12.2867 5.8199C12.0829 6.35135 11.7146 6.80349 11.2358 7.11013L10.7866 7.3693C10.2283 7.65617 9.58679 7.73616 8.97531 7.59515L7.34833 7.13688C6.39055 6.86509 5.91166 6.7292 5.48823 6.90142C5.06479 7.07364 4.81593 7.50552 4.31821 8.3693L3.66009 9.51143C3.19354 10.3211 2.96027 10.7259 3.00554 11.1569C3.05082 11.5878 3.36311 11.9351 3.98768 12.6297L5.3624 14.1667C5.6984 14.592 5.93694 15.3333 5.93694 15.9998C5.93694 16.6667 5.69848 17.4077 5.36244 17.8332L3.98769 19.3701C3.36311 20.0647 3.05082 20.412 3.00555 20.843C2.96027 21.2739 3.19355 21.6788 3.66009 22.4884L4.31819 23.6305C4.8159 24.4943 5.06479 24.9262 5.48823 25.0984C5.91167 25.2707 6.39057 25.1347 7.34836 24.8629L8.97525 24.4047C9.58684 24.2636 10.2285 24.3437 10.7869 24.6306L11.236 24.8898C11.7147 25.1965 12.0829 25.6486 12.2867 26.1799L12.732 27.5099C13.0247 28.39 13.1711 28.83 13.5196 29.0816C13.8681 29.3333 14.331 29.3333 15.2568 29.3333H16.7432C17.669 29.3333 18.1319 29.3333 18.4804 29.0816C18.8289 28.83 18.9753 28.39 19.2681 27.5099L19.7134 26.1799C19.9172 25.6486 20.2854 25.1965 20.7641 24.8898L21.2132 24.6306C21.7716 24.3437 22.4132 24.2636 23.0248 24.4047L24.6517 24.8629C25.6095 25.1347 26.0884 25.2707 26.5118 25.0984C26.9353 24.9262 27.1842 24.4943 27.6819 23.6306L27.6819 23.6305L28.34 22.4884C28.8065 21.6788 29.0398 21.2739 28.9945 20.843C28.9492 20.412 28.637 20.0647 28.0124 19.3701L26.6376 17.8332C26.3016 17.4077 26.0631 16.6667 26.0631 15.9998C26.0631 15.3333 26.3017 14.592 26.6377 14.1667L28.0124 12.6297C28.637 11.9351 28.9492 11.5878 28.9945 11.1569C29.0398 10.7259 28.8065 10.3211 28.34 9.51143Z" fill="white" fill-opacity="0.16"/>
<path d="M28.34 9.51143L27.6819 8.3693C27.1841 7.50552 26.9353 7.07364 26.5118 6.90142C26.0884 6.7292 25.6095 6.86509 24.6517 7.13688L23.0248 7.59515C22.4133 7.73616 21.7717 7.65617 21.2134 7.3693L20.7642 7.11013C20.2855 6.80349 19.9172 6.35135 19.7134 5.8199L19.2681 4.49005C18.9753 3.61002 18.8289 3.17001 18.4804 2.91833C18.1319 2.66666 17.669 2.66666 16.7432 2.66666H15.2568C14.331 2.66666 13.8681 2.66666 13.5196 2.91833C13.1711 3.17001 13.0247 3.61002 12.732 4.49005L12.2867 5.8199C12.0829 6.35135 11.7146 6.80349 11.2358 7.11013L10.7866 7.3693C10.2283 7.65617 9.58679 7.73616 8.97531 7.59515L7.34833 7.13688C6.39055 6.86509 5.91166 6.7292 5.48823 6.90142C5.06479 7.07364 4.81593 7.50552 4.31821 8.3693L3.66009 9.51143C3.19354 10.3211 2.96027 10.7259 3.00554 11.1569C3.05082 11.5878 3.36311 11.9351 3.98768 12.6297L5.3624 14.1667C5.6984 14.592 5.93694 15.3333 5.93694 15.9998C5.93694 16.6667 5.69848 17.4077 5.36244 17.8332L3.98769 19.3701C3.36311 20.0647 3.05082 20.412 3.00555 20.843C2.96027 21.2739 3.19355 21.6788 3.66009 22.4884L4.31819 23.6305C4.8159 24.4943 5.06479 24.9262 5.48823 25.0984C5.91167 25.2707 6.39057 25.1347 7.34836 24.8629L8.97525 24.4047C9.58684 24.2636 10.2285 24.3437 10.7869 24.6306L11.236 24.8898C11.7147 25.1965 12.0829 25.6486 12.2867 26.1799L12.732 27.5099C13.0247 28.39 13.1711 28.83 13.5196 29.0816C13.8681 29.3333 14.331 29.3333 15.2568 29.3333H16.7432C17.669 29.3333 18.1319 29.3333 18.4804 29.0816C18.8289 28.83 18.9753 28.39 19.2681 27.5099L19.7134 26.1799C19.9172 25.6486 20.2854 25.1965 20.7641 24.8898L21.2132 24.6306C21.7716 24.3437 22.4132 24.2636 23.0248 24.4047L24.6517 24.8629C25.6095 25.1347 26.0884 25.2707 26.5118 25.0984C26.9353 24.9262 27.1842 24.4943 27.6819 23.6306L27.6819 23.6305L28.34 22.4884C28.8065 21.6788 29.0398 21.2739 28.9945 20.843C28.9492 20.412 28.637 20.0647 28.0124 19.3701L26.6376 17.8332C26.3016 17.4077 26.0631 16.6667 26.0631 15.9998C26.0631 15.3333 26.3017 14.592 26.6377 14.1667L28.0124 12.6297C28.637 11.9351 28.9492 11.5878 28.9945 11.1569C29.0398 10.7259 28.8065 10.3211 28.34 9.51143Z" stroke="white" stroke-width="2" stroke-linecap="round"/>
<path d="M21.3346 16C21.3346 18.9455 18.9468 21.3333 16.0013 21.3333C15.294 21.3333 14.6189 21.1957 14.0013 20.9456L11.5998 18.4434C11.3255 18.1576 11.1066 17.9294 10.9422 17.7581C10.9771 17.8533 11.0173 17.9327 11.0678 17.9977C11.1618 18.1163 11.1967 18.1603 11.0718 18.0029C11.0704 18.0012 11.0691 17.9995 11.0678 17.9977C10.9045 17.7919 10.5629 17.3611 10.5694 17.3686C10.5756 17.3757 10.6991 17.5046 10.9422 17.7581C10.8771 17.5803 10.8307 17.3474 10.7712 17.0496C10.7035 16.7102 10.668 16.3593 10.668 16C10.668 13.0545 13.0558 10.6667 16.0013 10.6667C16.7086 10.6667 17.3837 10.8043 18.0013 11.0543L20.4478 13.6535L20.4499 13.6557C20.7185 13.941 20.933 14.169 21.0942 14.3403C21.0612 14.246 21.0224 14.1672 20.9731 14.1023C20.8808 13.9836 20.8465 13.9395 20.9691 14.0971C20.9704 14.0988 20.9718 14.1006 20.9731 14.1023C21.1333 14.3084 21.4683 14.7394 21.4618 14.7318C21.4557 14.7247 21.3339 14.5951 21.0942 14.3403C21.1583 14.5235 21.2005 14.765 21.2548 15.0756L21.2548 15.0756C21.3073 15.3759 21.3346 15.6847 21.3346 16Z" fill="white" fill-opacity="0.16"/>
<path d="M18.7506 15.3333L19.4174 14.6665C20.0056 14.0784 20.2997 13.7843 20.6858 13.9063C21.0718 14.0284 21.1328 14.3775 21.2548 15.0756C21.3073 15.3759 21.3346 15.6847 21.3346 16C21.3346 18.9455 18.9468 21.3333 16.0013 21.3333C15.294 21.3333 14.6189 21.1957 14.0013 20.9456M13.3346 16.7135L12.6091 17.439C12.0301 18.018 11.7406 18.3075 11.3583 18.1917C10.976 18.0759 10.9078 17.7338 10.7712 17.0496C10.7035 16.7102 10.668 16.3593 10.668 16C10.668 13.0545 13.0558 10.6667 16.0013 10.6667C16.7086 10.6667 17.3837 10.8043 18.0013 11.0543" stroke="white" stroke-width="2" stroke-linecap="round" stroke-linejoin="round"/>
</svg>
