<svg width="32" height="32" viewBox="0 0 32 32" fill="none" xmlns="http://www.w3.org/2000/svg">
<path d="M16.0002 2.66669C11.9898 2.66669 9.38951 5.35868 6.31422 6.33989C5.06379 6.73886 4.43857 6.93834 4.18554 7.21955C3.93251 7.50076 3.85842 7.91169 3.71023 8.73353C2.12452 17.528 5.59047 25.6587 13.8563 28.8233C14.7445 29.1634 15.1885 29.3334 16.0046 29.3334C16.8207 29.3333 17.2647 29.1633 18.1527 28.8233C26.4181 25.6586 29.8807 17.528 28.2946 8.73352C28.1463 7.91154 28.0722 7.50055 27.8191 7.21934C27.566 6.93812 26.9409 6.73875 25.6905 6.34C22.614 5.35888 20.0107 2.66669 16.0002 2.66669Z" fill="white" fill-opacity="0.16"/>
<path d="M17.1693 13.8334H14.8359C13.7487 13.8334 13.2051 13.8334 12.7763 14.0237C12.2046 14.2774 11.7504 14.7641 11.5136 15.3767C11.3359 15.8361 11.3359 16.4185 11.3359 17.5834C11.3359 18.7482 11.3359 19.3307 11.5136 19.7901C11.7504 20.4027 12.2046 20.8893 12.7763 21.1431C13.2051 21.3334 13.7487 21.3334 14.8359 21.3334H17.1693C18.2565 21.3334 18.8001 21.3334 19.2289 21.1431C19.8006 20.8893 20.2548 20.4027 20.4917 19.7901C20.6693 19.3307 20.6693 18.7482 20.6693 17.5834C20.6693 16.4185 20.6693 15.8361 20.4917 15.3767C20.2548 14.7641 19.8006 14.2774 19.2289 14.0237C18.8001 13.8334 18.2565 13.8334 17.1693 13.8334Z" fill="white" fill-opacity="0.16"/>
<path d="M16.0002 2.66669C11.9898 2.66669 9.38951 5.35868 6.31422 6.33989C5.06379 6.73886 4.43857 6.93835 4.18554 7.21955C3.93251 7.50076 3.85842 7.91169 3.71023 8.73353C2.12452 17.528 5.59047 25.6587 13.8563 28.8233C14.7445 29.1634 15.1885 29.3334 16.0046 29.3334C16.8207 29.3333 17.2647 29.1633 18.1527 28.8233C26.4181 25.6586 29.8808 17.528 28.2946 8.73352C28.1463 7.91154 28.0722 7.50055 27.8191 7.21934C27.566 6.93812 26.9409 6.73875 25.6905 6.34C22.614 5.35888 20.0107 2.66669 16.0002 2.66669Z" stroke="white" stroke-width="2" stroke-linecap="round" stroke-linejoin="round"/>
<path d="M12.7763 21.1431L12.3707 22.0571H12.3707L12.7763 21.1431ZM11.5136 19.7901L10.5808 20.1507H10.5808L11.5136 19.7901ZM20.4917 19.7901L21.4244 20.1507V20.1507L20.4917 19.7901ZM19.2289 21.1431L19.6345 22.0571H19.6345L19.2289 21.1431ZM19.2289 14.0237L19.6345 13.1096L19.2289 14.0237ZM20.4917 15.3767L21.4244 15.0161V15.0161L20.4917 15.3767ZM12.7763 14.0237L12.3707 13.1096L12.3707 13.1096L12.7763 14.0237ZM11.5136 15.3767L10.5808 15.0161V15.0161L11.5136 15.3767ZM12.6693 13.8334C12.6693 14.3857 13.117 14.8334 13.6693 14.8334C14.2216 14.8334 14.6693 14.3857 14.6693 13.8334H12.6693ZM17.3359 13.8334C17.3359 14.3857 17.7837 14.8334 18.3359 14.8334C18.8882 14.8334 19.3359 14.3857 19.3359 13.8334H17.3359ZM14.8359 14.8334H17.1693V12.8334H14.8359V14.8334ZM17.1693 20.3334H14.8359V22.3334H17.1693V20.3334ZM14.8359 20.3334C14.2777 20.3334 13.9126 20.3328 13.6321 20.3122C13.3621 20.2925 13.2477 20.2582 13.182 20.229L12.3707 22.0571C12.7338 22.2182 13.1056 22.2791 13.4863 22.3069C13.8566 22.334 14.307 22.3334 14.8359 22.3334V20.3334ZM10.3359 17.5834C10.3359 18.153 10.3355 18.627 10.3602 19.0148C10.3853 19.4104 10.4396 19.7854 10.5808 20.1507L12.4463 19.4295C12.4099 19.3353 12.3753 19.1895 12.3561 18.8877C12.3364 18.5782 12.3359 18.1786 12.3359 17.5834H10.3359ZM13.182 20.229C12.8654 20.0886 12.5929 19.8088 12.4463 19.4295L10.5808 20.1507C10.9078 20.9965 11.5438 21.6901 12.3707 22.0571L13.182 20.229ZM19.6693 17.5834C19.6693 18.1786 19.6688 18.5782 19.6491 18.8877C19.6299 19.1895 19.5953 19.3353 19.5589 19.4295L21.4244 20.1507C21.5656 19.7854 21.6199 19.4104 21.645 19.0148C21.6697 18.627 21.6693 18.153 21.6693 17.5834H19.6693ZM17.1693 22.3334C17.6982 22.3334 18.1486 22.334 18.5189 22.3069C18.8996 22.2791 19.2714 22.2182 19.6345 22.0571L18.8232 20.229C18.7575 20.2582 18.6431 20.2925 18.3731 20.3122C18.0926 20.3328 17.7275 20.3334 17.1693 20.3334V22.3334ZM19.5589 19.4295C19.4123 19.8088 19.1398 20.0886 18.8232 20.229L19.6345 22.0571C20.4614 21.6901 21.0974 20.9965 21.4244 20.1507L19.5589 19.4295ZM17.1693 14.8334C17.7275 14.8334 18.0926 14.834 18.3731 14.8545C18.6431 14.8742 18.7575 14.9086 18.8232 14.9377L19.6345 13.1096C19.2714 12.9485 18.8996 12.8877 18.5189 12.8598C18.1486 12.8328 17.6982 12.8334 17.1693 12.8334V14.8334ZM21.6693 17.5834C21.6693 17.0137 21.6697 16.5397 21.645 16.1519C21.6199 15.7564 21.5656 15.3813 21.4244 15.0161L19.5589 15.7373C19.5953 15.8314 19.6299 15.9773 19.6491 16.279C19.6688 16.5885 19.6693 16.9882 19.6693 17.5834H21.6693ZM18.8232 14.9377C19.1398 15.0782 19.4123 15.358 19.5589 15.7373L21.4244 15.0161C21.0974 14.1702 20.4614 13.4766 19.6345 13.1096L18.8232 14.9377ZM14.8359 12.8334C14.307 12.8334 13.8566 12.8328 13.4863 12.8598C13.1056 12.8877 12.7338 12.9485 12.3707 13.1096L13.182 14.9377C13.2477 14.9086 13.3621 14.8742 13.6321 14.8545C13.9126 14.834 14.2777 14.8334 14.8359 14.8334V12.8334ZM12.3359 17.5834C12.3359 16.9882 12.3364 16.5885 12.3561 16.279C12.3753 15.9773 12.4099 15.8315 12.4463 15.7373L10.5808 15.0161C10.4396 15.3813 10.3853 15.7564 10.3602 16.1519C10.3355 16.5397 10.3359 17.0137 10.3359 17.5834H12.3359ZM12.3707 13.1096C11.5438 13.4766 10.9078 14.1702 10.5808 15.0161L12.4463 15.7373C12.5929 15.358 12.8654 15.0782 13.182 14.9377L12.3707 13.1096ZM14.6693 13.8334V11.5834H12.6693V13.8334H14.6693ZM17.3359 11.5834V13.8334H19.3359V11.5834H17.3359ZM16.0026 10.3334C16.7736 10.3334 17.3359 10.927 17.3359 11.5834H19.3359C19.3359 9.75448 17.809 8.33337 16.0026 8.33337V10.3334ZM14.6693 11.5834C14.6693 10.927 15.2316 10.3334 16.0026 10.3334V8.33337C14.1962 8.33337 12.6693 9.75448 12.6693 11.5834H14.6693Z" fill="white"/>
</svg>
