<svg width="32" height="32" viewBox="0 0 32 32" fill="none" xmlns="http://www.w3.org/2000/svg">
<path d="M26.6654 8.66671V19.3334H5.33203V8.66671C5.33203 6.15255 5.33203 4.89547 6.11308 4.11442C6.89413 3.33337 8.15121 3.33337 10.6654 3.33337H21.332C23.8462 3.33337 25.1033 3.33337 25.8843 4.11442C26.6654 4.89547 26.6654 6.15255 26.6654 8.66671Z" fill="white" fill-opacity="0.16"/>
<path d="M4.66089 20.6873L5.35677 19.3334H26.5998L27.3338 20.6873C29.2576 24.236 29.7368 26.0103 29.0056 27.3385C28.2743 28.6667 26.3355 28.6667 22.4579 28.6667L9.53689 28.6667C5.65928 28.6667 3.72048 28.6667 2.98922 27.3385C2.25797 26.0103 2.73705 24.236 4.66089 20.6873Z" fill="white" fill-opacity="0.16"/>
<path d="M26.6654 19.3334V8.66671C26.6654 6.15255 26.6654 4.89547 25.8843 4.11442C25.1033 3.33337 23.8462 3.33337 21.332 3.33337H10.6654C8.15121 3.33337 6.89413 3.33337 6.11308 4.11442C5.33203 4.89547 5.33203 6.15255 5.33203 8.66671V19.3334" stroke="white" stroke-width="2" stroke-linecap="round" stroke-linejoin="round"/>
<path d="M10.6641 11.1914H10.8798C11.9616 11.1914 12.5025 11.1914 12.9155 11.4237C13.3284 11.6559 13.5141 12.0645 13.8854 12.8818L14.334 13.8692C14.578 14.4062 14.7 14.6748 14.8969 14.6664C15.0937 14.6581 15.18 14.3807 15.3524 13.826L16.895 8.86316C17.0724 8.29241 17.1611 8.00704 17.36 8.00006C17.5588 7.99308 17.6781 8.27115 17.9166 8.82729L18.1868 9.45713C18.5461 10.2947 18.7257 10.7135 19.1425 10.9525C19.5594 11.1914 20.1102 11.1914 21.2118 11.1914H21.3307" stroke="white" stroke-width="2" stroke-linecap="round" stroke-linejoin="round"/>
<path d="M4.66089 20.6873L5.35677 19.3334H26.5998L27.3338 20.6873C29.2576 24.236 29.7368 26.0103 29.0056 27.3385C28.2743 28.6667 26.3355 28.6667 22.4579 28.6667L9.53689 28.6667C5.65928 28.6667 3.72048 28.6667 2.98922 27.3385C2.25797 26.0103 2.73705 24.236 4.66089 20.6873Z" stroke="white" stroke-width="2" stroke-linecap="round" stroke-linejoin="round"/>
</svg>
