<svg width="32" height="32" viewBox="0 0 32 32" fill="none" xmlns="http://www.w3.org/2000/svg">
<path d="M22.9339 16.8453C22.9057 13.4782 25.6951 11.8371 25.8249 11.7637C24.2439 9.46267 21.7934 9.14683 20.9294 9.12428C18.8685 8.90999 16.8753 10.3538 15.8251 10.3538C14.7579 10.3538 13.1429 9.14684 11.3982 9.1807C9.15655 9.21451 7.06171 10.5117 5.91549 12.5195C3.54397 16.6197 5.31133 22.643 7.58685 25.9592C8.72175 27.5835 10.0487 29.3939 11.7878 29.3318C13.4874 29.2641 14.1255 28.2489 16.1751 28.2489C18.2079 28.2489 18.8063 29.3318 20.5794 29.2923C22.4032 29.2641 23.5551 27.6624 24.6504 26.0269C25.9661 24.1658 26.4912 22.3328 26.5138 22.2425C26.4686 22.2143 22.9678 20.8777 22.9339 16.8453ZM19.5856 6.94167C20.5003 5.79679 21.127 4.24585 20.952 2.66669C19.6308 2.72306 17.9707 3.58031 17.0221 4.69703C16.1808 5.68399 15.4241 7.29696 15.6218 8.8141C17.1011 8.92124 18.6313 8.06398 19.5856 6.94167Z" fill="black"/>
</svg>
