<svg width="125" height="29" viewBox="0 0 125 29" fill="none" xmlns="http://www.w3.org/2000/svg">
<g id="Group">
<path id="Vector" d="M99.5203 0.0943117C97.322 0.563623 95.6163 2.22474 95.0744 4.41692C94.9636 4.8677 94.939 5.14559 94.939 5.95453C94.939 7.05371 95.019 7.52919 95.3392 8.32579C95.9057 9.75225 97.1619 11.0058 98.5658 11.5492C99.6373 11.9691 98.9476 11.9444 109.742 11.9444H119.502L120.056 11.8024C122.242 11.2466 123.911 9.51759 124.36 7.33159C124.49 6.69555 124.49 5.21969 124.36 4.57747C123.917 2.39147 122.101 0.557448 119.933 0.112837C119.403 0.00168419 118.899 -0.00449085 109.65 0.00168419C101.577 0.00168419 99.8528 0.0202103 99.5203 0.0943117ZM119.403 1.36022C120.376 1.5146 121.171 1.92833 121.873 2.64465C122.415 3.20041 122.679 3.6265 122.944 4.36134C123.129 4.88623 123.135 4.94181 123.135 5.92366C123.135 6.81905 123.117 6.99813 122.993 7.40569C122.741 8.20229 122.452 8.67777 121.842 9.29529C121.189 9.94985 120.592 10.2957 119.761 10.4933C119.243 10.6168 119.089 10.6168 109.514 10.6044L99.7974 10.5859L99.3048 10.413C97.9254 9.92515 96.8971 8.8939 96.4538 7.54772C96.3244 7.14634 96.2937 6.91785 96.269 6.15831C96.2382 5.04061 96.3306 4.55895 96.7309 3.74383C96.9648 3.26834 97.1065 3.08309 97.5745 2.61995C98.3134 1.88511 98.9107 1.564 99.859 1.38492C100.413 1.27994 118.769 1.25524 119.403 1.36022Z" fill="white"/>
<path id="Vector_2" d="M100.137 3.10735C99.644 3.21233 99.2499 3.42228 98.8496 3.79279C98.4617 4.15712 98.2277 4.53998 98.0738 5.0834C97.926 5.58976 97.9691 6.68276 98.1538 7.15825C98.4186 7.83751 99.0221 8.4365 99.7056 8.72056C100.038 8.85641 100.087 8.85641 103.308 8.87494C105.592 8.88729 106.682 8.87494 106.941 8.82554C107.951 8.62793 108.77 7.84986 109.041 6.81861C109.151 6.40488 109.145 5.54036 109.034 5.08957C108.776 4.08302 107.908 3.27408 106.885 3.08882C106.362 2.99002 100.592 3.00855 100.137 3.10735ZM106.67 4.31768C107.089 4.39795 107.44 4.63879 107.674 5.01547C107.828 5.26865 107.858 5.39215 107.883 5.83677C107.926 6.63953 107.661 7.16442 107.07 7.48553C106.824 7.62138 106.775 7.62138 103.683 7.63991C100.167 7.65844 100.1 7.65226 99.6871 7.25088C99.2991 6.87419 99.2437 6.71364 99.2437 5.97879C99.2437 5.36128 99.256 5.31188 99.4285 5.02782C99.6563 4.65731 100.013 4.39795 100.383 4.32385C100.777 4.24358 106.263 4.24358 106.67 4.31768Z" fill="white"/>
<path id="Vector_3" d="M110.943 3.19996C110.087 3.58899 109.779 5.00928 110.37 5.83675C110.475 5.98495 110.672 6.18256 110.814 6.27518L111.066 6.44809L115.487 6.47896L119.915 6.50984L120.032 6.65804C120.198 6.86182 120.192 7.36201 120.026 7.52874C119.902 7.65224 119.822 7.65224 115.253 7.65224H110.604V8.23888V8.82552H115.444C120.851 8.82552 120.494 8.8564 120.925 8.38091C121.214 8.0598 121.319 7.79427 121.362 7.27556C121.423 6.51601 121.14 5.89232 120.58 5.56504L120.303 5.39831L115.881 5.36744L111.454 5.33656L111.337 5.18836C111.177 4.99075 111.177 4.57084 111.343 4.39176L111.473 4.25591H116.115H120.764V3.66927V3.08263H115.98C111.466 3.08263 111.177 3.08881 110.943 3.19996Z" fill="white"/>
<path id="Vector_4" d="M0.153942 0.378227C0.24015 0.52643 3.41752 6.07789 7.21681 12.7162C11.0161 19.3545 14.2981 25.0541 14.5137 25.3752C15.5482 26.9376 16.558 27.7774 17.9004 28.1973C18.4361 28.3578 18.5038 28.364 19.7785 28.364C21.0408 28.364 21.127 28.3578 21.6443 28.1973C22.648 27.8885 23.2699 27.4995 24.0088 26.7091C24.2859 26.4188 24.6615 25.9495 24.8463 25.6716C25.148 25.2147 39.4831 0.205322 39.4831 0.137396C39.4831 0.125046 38.3685 0.11887 37.0077 0.137396C34.9449 0.155922 34.4707 0.174446 34.1875 0.260899C33.3623 0.507904 32.5557 1.06367 32.1185 1.69971C31.9769 1.89731 29.3229 6.51015 26.2133 11.9443C23.1098 17.3784 20.4928 21.8986 20.4066 21.9974C20.0802 22.3432 19.5014 22.3679 19.1627 22.053C19.058 21.9604 16.4595 17.4772 13.276 11.9134C10.1417 6.42987 7.47543 1.80469 7.35228 1.64413C7.05055 1.22422 6.49636 0.779612 5.96064 0.520256C5.20325 0.155922 4.85226 0.11887 2.27834 0.11887H0L0.153942 0.378227Z" fill="white"/>
<path id="Vector_5" d="M47.2848 0.192785C46.669 0.260712 45.7762 0.550943 45.302 0.828825C44.4831 1.31666 43.7811 2.03298 43.0175 3.17538C42.7712 3.54589 39.4091 9.36906 35.5483 16.1123L28.5347 28.37L30.9423 28.3885C33.6271 28.407 33.7256 28.3947 34.5569 27.9871C34.914 27.8142 35.1295 27.6475 35.5052 27.2646C35.9855 26.7706 36.0409 26.6718 41.7614 16.6743C45.6653 9.84455 47.5804 6.54701 47.6974 6.46056C48.0545 6.20121 48.6272 6.26296 48.9228 6.59024C48.9843 6.65817 51.6075 11.2093 54.7541 16.7113C58.1716 22.6889 60.5916 26.8509 60.7763 27.0794C61.1273 27.5117 61.7554 27.9563 62.365 28.2033L62.7899 28.37L65.3638 28.3885C66.7739 28.4009 67.9315 28.3885 67.9315 28.37C67.9315 28.2835 53.7258 3.50266 53.3501 2.93455C51.9031 0.736198 50.0065 -0.122149 47.2848 0.192785Z" fill="white"/>
<path id="Vector_6" d="M88.5415 0.211306C87.6856 0.384211 86.7558 0.97085 86.257 1.65012C86.14 1.81684 82.6301 7.89319 78.4675 15.1613L70.8936 28.37L73.3012 28.3885C75.9921 28.407 76.0968 28.3947 76.9219 27.9871C77.2606 27.8204 77.5069 27.6413 77.8456 27.2955C78.3013 26.8324 78.4121 26.6471 85.8506 13.6731C89.9947 6.43586 93.443 0.427437 93.5046 0.316284L93.6216 0.118679L91.2878 0.124853C89.5944 0.131029 88.8432 0.155729 88.5415 0.211306Z" fill="white"/>
<path id="Vector_7" d="M100.401 15.2848C100.093 15.4392 99.9455 15.7294 99.9085 16.2667L99.8716 16.7298H99.6376C99.3975 16.7298 99.3975 16.7298 99.3975 16.9768V17.2238H99.6438H99.8901V18.2736V19.3234H100.229H100.567V18.2736V17.2238H100.845H101.122V16.9768V16.7298H100.845H100.567V16.3716C100.567 15.9023 100.678 15.7418 101.005 15.7418H101.245V15.4639V15.186H100.925C100.746 15.186 100.506 15.2354 100.401 15.2848Z" fill="white"/>
<path id="Vector_8" d="M118.116 17.2856V19.3234H118.424H118.732V17.2856V15.2478H118.424H118.116V17.2856Z" fill="white"/>
<path id="Vector_9" d="M107.483 15.4331C106.91 15.5566 106.417 15.921 106.14 16.4273C105.796 17.0695 105.869 18.0761 106.313 18.6566C106.972 19.5211 108.443 19.6816 109.207 18.9653C109.299 18.8789 109.373 18.7862 109.373 18.7554C109.373 18.7307 109.262 18.6319 109.127 18.5454L108.874 18.3787L108.739 18.5022C108.265 18.9344 107.538 18.9036 107.064 18.4343C106.282 17.6438 106.719 16.1556 107.772 16.0136C108.105 15.9704 108.499 16.063 108.684 16.2359C108.85 16.3965 108.868 16.3903 109.151 16.1495L109.385 15.9457L109.176 15.7851C108.764 15.4702 108.031 15.3158 107.483 15.4331Z" fill="white"/>
<path id="Vector_10" d="M98.3815 15.5874C98.2953 15.6677 98.2275 15.7727 98.2275 15.8221C98.2275 15.9827 98.48 16.2358 98.6339 16.2358C98.8064 16.2358 99.0896 15.9827 99.0896 15.8345C99.0896 15.6924 98.8125 15.4331 98.6586 15.4331C98.5908 15.4331 98.4615 15.501 98.3815 15.5874Z" fill="white"/>
<path id="Vector_11" d="M116.614 15.5627C116.202 15.89 116.682 16.4457 117.119 16.137C117.396 15.9394 117.23 15.433 116.879 15.433C116.824 15.433 116.707 15.4886 116.614 15.5627Z" fill="white"/>
<path id="Vector_12" d="M95.5801 17.4091V19.3234H96.7193H97.8584V19.0146V18.7058H97.0579H96.2574V17.1003V15.4948H95.9188H95.5801V17.4091Z" fill="white"/>
<path id="Vector_13" d="M113.313 17.4029V19.3234H113.652H113.991V18.5206V17.7178H114.477C115.469 17.7178 115.961 17.335 115.961 16.5754C115.961 16.1802 115.783 15.8653 115.463 15.68C115.21 15.538 115.118 15.5256 114.256 15.5071L113.313 15.4824V17.4029ZM115.062 16.1987C115.148 16.2543 115.241 16.3716 115.259 16.4643C115.37 16.8904 115.019 17.1621 114.379 17.1621H113.991V16.6001V16.032L114.446 16.0629C114.73 16.0814 114.97 16.1308 115.062 16.1987Z" fill="white"/>
<path id="Vector_14" d="M123.166 16.3593V16.7298H122.92C122.673 16.7298 122.673 16.7298 122.673 16.9706C122.673 17.2115 122.679 17.2177 122.907 17.2362L123.135 17.2547L123.166 18.0884C123.184 18.6132 123.228 18.9776 123.277 19.064C123.375 19.2431 123.702 19.3851 123.991 19.3851C124.336 19.3851 124.397 19.3357 124.397 19.0702C124.397 18.8294 124.397 18.8294 124.151 18.8294C123.819 18.8294 123.782 18.7306 123.782 17.9093V17.2238H124.12H124.459V16.9768V16.7298H124.12H123.782V16.3593V15.9888H123.474H123.166V16.3593Z" fill="white"/>
<path id="Vector_15" d="M102.199 16.7731C101.67 17.0509 101.399 17.5388 101.442 18.1378C101.479 18.6256 101.651 18.9405 102.008 19.169C102.55 19.5025 103.4 19.4407 103.776 19.0393L103.924 18.8788L103.708 18.7059C103.492 18.5268 103.492 18.5268 103.363 18.6503C103.024 18.9714 102.44 18.9097 102.187 18.5268C102.113 18.4156 102.064 18.2983 102.082 18.2674C102.101 18.2366 102.544 18.2119 103.068 18.2119H104.016V17.9093C104.016 17.4647 103.757 16.9954 103.406 16.8101C103.08 16.6372 102.489 16.6187 102.199 16.7731ZM103.178 17.2979C103.265 17.3782 103.345 17.5079 103.351 17.5943L103.369 17.7487L102.741 17.7673C102.132 17.7858 102.107 17.7796 102.107 17.6561C102.107 17.582 102.187 17.44 102.286 17.3412C102.52 17.1065 102.938 17.088 103.178 17.2979Z" fill="white"/>
<path id="Vector_16" d="M110.438 16.8165C109.619 17.1994 109.465 18.3727 110.155 19.0272C110.678 19.5274 111.596 19.5089 112.113 18.984C112.796 18.3047 112.575 17.1315 111.7 16.7671C111.349 16.6189 110.82 16.6436 110.438 16.8165ZM111.608 17.4032C111.75 17.539 111.799 17.6564 111.823 17.8972C111.873 18.453 111.602 18.8296 111.152 18.8296C110.801 18.8296 110.623 18.7185 110.475 18.4159C110.173 17.7922 110.592 17.1068 111.22 17.1932C111.343 17.2056 111.503 17.2982 111.608 17.4032Z" fill="white"/>
<path id="Vector_17" d="M120.333 16.7669C119.834 16.983 119.533 17.4523 119.533 18.0081C119.539 18.8294 120.093 19.3851 120.918 19.3851C121.731 19.3851 122.304 18.8232 122.304 18.0266C122.304 17.4523 121.996 16.9768 121.491 16.7669C121.201 16.6434 120.616 16.6434 120.333 16.7669ZM121.22 17.2547C121.694 17.4832 121.805 18.2304 121.417 18.6194C121.14 18.8973 120.752 18.9158 120.463 18.6688C119.908 18.2057 120.216 17.1806 120.906 17.1621C120.974 17.1621 121.109 17.2053 121.22 17.2547Z" fill="white"/>
<path id="Vector_18" d="M98.3506 18.0266V19.3234H98.6585H98.9664V18.0266V16.7298H98.6585H98.3506V18.0266Z" fill="white"/>
<path id="Vector_19" d="M116.516 18.0266V19.3234H116.854H117.193V18.0266V16.7298H116.854H116.516V18.0266Z" fill="white"/>
</g>
</svg>
