<svg width="73" height="48" viewBox="0 0 73 48" fill="none" xmlns="http://www.w3.org/2000/svg">
<g id="Group 3">
<path id="Vector" d="M11.3254 0.233076C5.89105 1.39326 1.67446 5.49969 0.334892 10.919C0.0608894 12.0333 0 12.7203 0 14.7201C0 17.4373 0.197891 18.6128 0.989453 20.582C2.38991 24.1084 5.49527 27.2073 8.96597 28.5506C11.6147 29.5887 9.90975 29.5276 36.5945 29.5276H60.722L62.092 29.1765C67.4959 27.8026 71.6212 23.5283 72.7324 18.1243C73.0521 16.5519 73.0521 12.9035 72.7324 11.3159C71.6364 5.91186 67.1458 1.37799 61.7875 0.278872C60.4784 0.00409317 59.2302 -0.0111732 36.3662 0.00409317C16.4097 0.00409317 12.1474 0.0498886 11.3254 0.233076ZM60.4784 3.36251C62.8836 3.74415 64.8472 4.76694 66.5826 6.53774C67.9222 7.91164 68.5767 8.96496 69.2313 10.7816C69.688 12.0791 69.7032 12.2165 69.7032 14.6437C69.7032 16.8572 69.6575 17.2999 69.3531 18.3075C68.7289 20.2767 68.0135 21.4522 66.5065 22.9787C64.8929 24.5969 63.4163 25.4517 61.3613 25.9402C60.0826 26.2456 59.7021 26.2456 36.0313 26.215L12.0104 26.1692L10.7927 25.7418C7.38284 24.5358 4.84071 21.9865 3.7447 18.6586C3.42503 17.6663 3.34892 17.1015 3.28803 15.2238C3.21192 12.4608 3.44025 11.2701 4.42971 9.25501C5.00816 8.07956 5.35827 7.6216 6.51517 6.47668C8.34185 4.66008 9.81842 3.86627 12.1627 3.42357C13.5327 3.16406 58.9105 3.103 60.4784 3.36251Z" fill="url(#paint0_radial_161_1264)"/>
<path id="Vector_2" d="M12.8486 7.68166C11.6308 7.94117 10.6566 8.4602 9.6671 9.37613C8.70809 10.2768 8.12964 11.2233 7.74908 12.5666C7.38374 13.8184 7.4903 16.5204 7.94697 17.6959C8.60153 19.3751 10.0933 20.8558 11.783 21.558C12.605 21.8939 12.7268 21.8939 20.6881 21.9397C26.3356 21.9702 29.0299 21.9397 29.6693 21.8175C32.1657 21.3291 34.1903 19.4056 34.8601 16.8562C35.1341 15.8335 35.1189 13.6963 34.8449 12.5819C34.2055 10.0936 32.0592 8.09383 29.5323 7.63586C28.2384 7.39161 13.975 7.43741 12.8486 7.68166ZM28.9995 10.6737C30.0346 10.8722 30.9023 11.4675 31.4807 12.3987C31.8613 13.0246 31.9374 13.3299 31.9983 14.429C32.1049 16.4135 31.4503 17.7111 29.9889 18.5049C29.3801 18.8408 29.2583 18.8408 21.6167 18.8866C12.9247 18.9324 12.7572 18.9171 11.7373 17.9248C10.7783 16.9936 10.6413 16.5967 10.6413 14.7801C10.6413 13.2536 10.6718 13.1315 11.098 12.4292C11.6612 11.5133 12.5441 10.8722 13.4575 10.689C14.4317 10.4905 27.9948 10.4905 28.9995 10.6737Z" fill="url(#paint1_radial_161_1264)"/>
<path id="Vector_3" d="M39.5627 7.91045C37.4468 8.87218 36.6857 12.3833 38.147 14.4288C38.4058 14.7952 38.8929 15.2837 39.243 15.5127L39.8671 15.9401L50.7968 16.0164L61.7417 16.0928L62.0309 16.4591C62.4419 16.9629 62.4267 18.1994 62.0157 18.6116C61.7112 18.9169 61.5133 18.9169 50.2183 18.9169H38.7255V20.3671V21.8174H50.6902C64.0555 21.8174 63.1726 21.8937 64.2381 20.7182C64.9536 19.9244 65.2124 19.268 65.3189 17.9857C65.4711 16.108 64.7709 14.5662 63.3857 13.7571L62.7007 13.345L51.771 13.2687L40.8261 13.1923L40.5369 12.826C40.1411 12.3375 40.1411 11.2994 40.5521 10.8567L40.8718 10.5209H52.3495H63.8423V9.07063V7.62041H52.0146C40.8566 7.62041 40.1411 7.63567 39.5627 7.91045Z" fill="url(#paint2_radial_161_1264)"/>
<path id="Vector_4" d="M13.5018 37.7859C12.7406 38.1675 12.3753 38.885 12.284 40.2131L12.1926 41.358H11.6142C11.0205 41.358 11.0205 41.358 11.0205 41.9686V42.5792H11.6294H12.2383V45.1744V47.7695H13.0755H13.9128V45.1744V42.5792H14.5978H15.2828V41.9686V41.358H14.5978H13.9128V40.4726C13.9128 39.3124 14.1868 38.9155 14.9935 38.9155H15.5872V38.2286V37.5416H14.7957C14.3542 37.5416 13.7605 37.6637 13.5018 37.7859Z" fill="url(#paint3_radial_161_1264)"/>
<path id="Vector_5" d="M57.2964 42.7319V47.7695H58.0575H58.8186V42.7319V37.6943H58.0575H57.2964V42.7319Z" fill="url(#paint4_radial_161_1264)"/>
<path id="Vector_6" d="M31.0086 38.1521C29.5929 38.4575 28.3751 39.3581 27.6901 40.6099C26.8377 42.1975 27.0203 44.6858 28.1164 46.1208C29.7451 48.2579 33.3833 48.6548 35.2709 46.884C35.4992 46.6703 35.6819 46.4413 35.6819 46.365C35.6819 46.3039 35.4079 46.0597 35.073 45.846L34.4489 45.4338L34.114 45.7391C32.9418 46.8077 31.1456 46.7314 29.9735 45.5712C28.0402 43.6172 29.121 39.9382 31.7241 39.5871C32.5461 39.4802 33.5203 39.7092 33.977 40.1367C34.388 40.5336 34.4336 40.5183 35.1339 39.9229L35.7123 39.4192L35.1947 39.0223C34.1749 38.2437 32.3634 37.8621 31.0086 38.1521Z" fill="url(#paint5_radial_161_1264)"/>
<path id="Vector_7" d="M8.50898 38.5338C8.29586 38.7323 8.12842 38.9918 8.12842 39.1139C8.12842 39.5108 8.75253 40.1367 9.13309 40.1367C9.55932 40.1367 10.2595 39.5108 10.2595 39.1445C10.2595 38.7934 9.57454 38.1522 9.19398 38.1522C9.02654 38.1522 8.70687 38.3201 8.50898 38.5338Z" fill="url(#paint6_radial_161_1264)"/>
<path id="Vector_8" d="M53.5828 38.4723C52.5629 39.2814 53.7502 40.6553 54.831 39.892C55.516 39.4035 55.105 38.1517 54.2374 38.1517C54.1003 38.1517 53.8111 38.2891 53.5828 38.4723Z" fill="url(#paint7_radial_161_1264)"/>
<path id="Vector_9" d="M1.58447 43.0372V47.7695H4.40061H7.21675V47.0063V46.243H5.23784H3.25893V42.2739V38.3049H2.4217H1.58447V43.0372Z" fill="url(#paint8_radial_161_1264)"/>
<path id="Vector_10" d="M45.4229 43.022V47.7695H46.2601H47.0973V45.785V43.8005H48.2999C50.7507 43.8005 51.9685 42.854 51.9685 40.9764C51.9685 39.9994 51.527 39.2208 50.7355 38.7629C50.1113 38.4118 49.883 38.3812 47.7519 38.3354L45.4229 38.2744V43.022ZM49.746 40.0452C49.9591 40.1826 50.1875 40.4726 50.2331 40.7016C50.5071 41.7549 49.6394 42.4266 48.0563 42.4266H47.0973V41.0374V39.633L48.2238 39.7093C48.924 39.7551 49.5177 39.8773 49.746 40.0452Z" fill="url(#paint9_radial_161_1264)"/>
<path id="Vector_11" d="M69.7793 40.4418V41.3577H69.1704C68.5615 41.3577 68.5615 41.3577 68.5615 41.9531C68.5615 42.5484 68.5767 42.5637 69.14 42.6095L69.7032 42.6553L69.7793 44.7161C69.825 46.0137 69.9315 46.9143 70.0533 47.1281C70.2969 47.5708 71.1037 47.9219 71.8191 47.9219C72.6716 47.9219 72.8238 47.7998 72.8238 47.1433C72.8238 46.548 72.8238 46.548 72.2149 46.548C71.3929 46.548 71.3015 46.3037 71.3015 44.2734V42.5789H72.1388H72.976V41.9683V41.3577H72.1388H71.3015V40.4418V39.5258H70.5404H69.7793V40.4418Z" fill="url(#paint10_radial_161_1264)"/>
<path id="Vector_12" d="M17.9478 41.4644C16.6387 42.1514 15.9689 43.3574 16.0755 44.8381C16.1668 46.0441 16.593 46.8226 17.4759 47.3875C18.8155 48.2118 20.9162 48.0591 21.8447 47.0669L22.2101 46.67L21.6773 46.2426C21.1445 45.7999 21.1445 45.7999 20.8248 46.1052C19.9876 46.899 18.5415 46.7463 17.9174 45.7999C17.7347 45.5251 17.6129 45.235 17.6586 45.1587C17.7043 45.0824 18.8003 45.0213 20.0942 45.0213H22.4384V44.2733C22.4384 43.1742 21.7991 42.014 20.9314 41.556C20.1246 41.1286 18.6633 41.0828 17.9478 41.4644ZM20.3682 42.762C20.5813 42.9605 20.7792 43.281 20.7944 43.4948L20.8401 43.8764L19.2874 43.9222C17.7804 43.968 17.7195 43.9527 17.7195 43.6474C17.7195 43.4642 17.9174 43.1131 18.1609 42.8689C18.7394 42.2888 19.7745 42.243 20.3682 42.762Z" fill="url(#paint11_radial_161_1264)"/>
<path id="Vector_13" d="M38.314 41.5723C36.2894 42.5187 35.9089 45.4192 37.6138 47.0373C38.9077 48.2739 41.1758 48.2281 42.4545 46.9305C44.1442 45.2513 43.5962 42.3508 41.4346 41.4502C40.5669 41.0838 39.2578 41.1449 38.314 41.5723ZM41.2062 43.0225C41.5564 43.3584 41.6781 43.6484 41.739 44.2438C41.8608 45.6177 41.191 46.5488 40.0798 46.5488C39.2121 46.5488 38.7707 46.2741 38.4053 45.5261C37.6594 43.9842 38.6946 42.2898 40.2472 42.5035C40.5517 42.534 40.9475 42.763 41.2062 43.0225Z" fill="url(#paint12_radial_161_1264)"/>
<path id="Vector_14" d="M62.7768 41.4493C61.5437 41.9836 60.7979 43.1438 60.7979 44.5177C60.8131 46.548 62.1831 47.9219 64.2229 47.9219C66.2322 47.9219 67.6479 46.5327 67.6479 44.5635C67.6479 43.1438 66.8868 41.9683 65.6386 41.4493C64.9231 41.144 63.477 41.144 62.7768 41.4493ZM64.9688 42.6553C66.1409 43.2201 66.4149 45.0672 65.4559 46.0289C64.7709 46.7159 63.8119 46.7617 63.0964 46.1511C61.7264 45.0062 62.4875 42.4721 64.1924 42.4263C64.3599 42.4263 64.6948 42.5331 64.9688 42.6553Z" fill="url(#paint13_radial_161_1264)"/>
<path id="Vector_15" d="M8.43359 44.5638V47.7695H9.19471H9.95583V44.5638V41.358H9.19471H8.43359V44.5638Z" fill="url(#paint14_radial_161_1264)"/>
<path id="Vector_16" d="M53.3384 44.5638V47.7695H54.1756H55.0128V44.5638V41.358H54.1756H53.3384V44.5638Z" fill="url(#paint15_radial_161_1264)"/>
</g>
<defs>
<radialGradient id="paint0_radial_161_1264" cx="0" cy="0" r="1" gradientUnits="userSpaceOnUse" gradientTransform="translate(28.503 18.021) rotate(17.9822) scale(27.7799 8.56536)">
<stop stop-color="#2A5FDD"/>
<stop offset="1" stop-color="#77A9E8"/>
</radialGradient>
<radialGradient id="paint1_radial_161_1264" cx="0" cy="0" r="1" gradientUnits="userSpaceOnUse" gradientTransform="translate(18.2821 16.309) rotate(22.8705) scale(10.8186 4.06788)">
<stop stop-color="#2A5FDD"/>
<stop offset="1" stop-color="#77A9E8"/>
</radialGradient>
<radialGradient id="paint2_radial_161_1264" cx="0" cy="0" r="1" gradientUnits="userSpaceOnUse" gradientTransform="translate(48.3083 16.2853) rotate(22.1706) scale(10.9275 4.00981)">
<stop stop-color="#2A5FDD"/>
<stop offset="1" stop-color="#77A9E8"/>
</radialGradient>
<radialGradient id="paint3_radial_161_1264" cx="0" cy="0" r="1" gradientUnits="userSpaceOnUse" gradientTransform="translate(12.8043 43.7837) rotate(60.8975) scale(3.39983 1.5171)">
<stop stop-color="#2A5FDD"/>
<stop offset="1" stop-color="#77A9E8"/>
</radialGradient>
<radialGradient id="paint4_radial_161_1264" cx="0" cy="0" r="1" gradientUnits="userSpaceOnUse" gradientTransform="translate(57.891 43.8431) rotate(79.3327) scale(2.97773 0.568766)">
<stop stop-color="#2A5FDD"/>
<stop offset="1" stop-color="#77A9E8"/>
</radialGradient>
<radialGradient id="paint5_radial_161_1264" cx="0" cy="0" r="1" gradientUnits="userSpaceOnUse" gradientTransform="translate(30.4974 44.1245) rotate(42.9885) scale(4.23606 2.2185)">
<stop stop-color="#2A5FDD"/>
<stop offset="1" stop-color="#77A9E8"/>
</radialGradient>
<radialGradient id="paint6_radial_161_1264" cx="0" cy="0" r="1" gradientUnits="userSpaceOnUse" gradientTransform="translate(8.96084 39.3633) rotate(36.7572) scale(0.963172 0.484889)">
<stop stop-color="#2A5FDD"/>
<stop offset="1" stop-color="#77A9E8"/>
</radialGradient>
<radialGradient id="paint7_radial_161_1264" cx="0" cy="0" r="1" gradientUnits="userSpaceOnUse" gradientTransform="translate(53.9677 39.35) rotate(38.4849) scale(0.916406 0.468736)">
<stop stop-color="#2A5FDD"/>
<stop offset="1" stop-color="#77A9E8"/>
</radialGradient>
<radialGradient id="paint8_radial_161_1264" cx="0" cy="0" r="1" gradientUnits="userSpaceOnUse" gradientTransform="translate(3.78444 44.0811) rotate(53.4283) scale(3.42283 1.71982)">
<stop stop-color="#2A5FDD"/>
<stop offset="1" stop-color="#77A9E8"/>
</radialGradient>
<radialGradient id="paint9_radial_161_1264" cx="0" cy="0" r="1" gradientUnits="userSpaceOnUse" gradientTransform="translate(47.9796 44.0692) rotate(49.3231) scale(3.63634 1.88742)">
<stop stop-color="#2A5FDD"/>
<stop offset="1" stop-color="#77A9E8"/>
</radialGradient>
<radialGradient id="paint10_radial_161_1264" cx="0" cy="0" r="1" gradientUnits="userSpaceOnUse" gradientTransform="translate(70.2858 44.6499) rotate(56.7553) scale(2.91576 1.40373)">
<stop stop-color="#2A5FDD"/>
<stop offset="1" stop-color="#77A9E8"/>
</radialGradient>
<radialGradient id="paint11_radial_161_1264" cx="0" cy="0" r="1" gradientUnits="userSpaceOnUse" gradientTransform="translate(18.5541 45.3029) rotate(40.1999) scale(3.02172 1.56422)">
<stop stop-color="#2A5FDD"/>
<stop offset="1" stop-color="#77A9E8"/>
</radialGradient>
<radialGradient id="paint12_radial_161_1264" cx="0" cy="0" r="1" gradientUnits="userSpaceOnUse" gradientTransform="translate(39.2359 45.3141) rotate(37.9715) scale(3.17479 1.61689)">
<stop stop-color="#2A5FDD"/>
<stop offset="1" stop-color="#77A9E8"/>
</radialGradient>
<radialGradient id="paint13_radial_161_1264" cx="0" cy="0" r="1" gradientUnits="userSpaceOnUse" gradientTransform="translate(63.4735 45.3102) rotate(38.1221) scale(3.1529 1.60783)">
<stop stop-color="#2A5FDD"/>
<stop offset="1" stop-color="#77A9E8"/>
</radialGradient>
<radialGradient id="paint14_radial_161_1264" cx="0" cy="0" r="1" gradientUnits="userSpaceOnUse" gradientTransform="translate(9.02818 45.2709) rotate(73.5115) scale(1.94203 0.554967)">
<stop stop-color="#2A5FDD"/>
<stop offset="1" stop-color="#77A9E8"/>
</radialGradient>
<radialGradient id="paint15_radial_161_1264" cx="0" cy="0" r="1" gradientUnits="userSpaceOnUse" gradientTransform="translate(53.9924 45.2709) rotate(71.965) scale(1.95839 0.605364)">
<stop stop-color="#2A5FDD"/>
<stop offset="1" stop-color="#77A9E8"/>
</radialGradient>
</defs>
</svg>
