<svg width="125" height="29" viewBox="0 0 125 29" fill="none" xmlns="http://www.w3.org/2000/svg">
<path d="M99.5208 0.0942507C97.3225 0.563562 95.6168 2.22468 95.0749 4.41686C94.9641 4.86764 94.9395 5.14552 94.9395 5.95447C94.9395 7.05365 95.0195 7.52913 95.3397 8.32573C95.9062 9.75219 97.1624 11.0057 98.5663 11.5492C99.6378 11.9691 98.9481 11.9444 109.743 11.9444H119.502L120.057 11.8023C122.243 11.2466 123.911 9.51753 124.361 7.33153C124.49 6.69549 124.49 5.21963 124.361 4.57741C123.918 2.39141 122.101 0.557387 119.933 0.112776C119.404 0.00162315 118.899 -0.00455189 109.65 0.00162315C101.577 0.00162315 99.8533 0.0201492 99.5208 0.0942507ZM119.404 1.36016C120.377 1.51454 121.171 1.92827 121.873 2.64459C122.415 3.20035 122.68 3.62644 122.945 4.36128C123.129 4.88617 123.135 4.94175 123.135 5.92359C123.135 6.81899 123.117 6.99807 122.994 7.40563C122.741 8.20223 122.452 8.67771 121.842 9.29523C121.19 9.94979 120.592 10.2956 119.761 10.4932C119.244 10.6167 119.09 10.6167 109.515 10.6044L99.7979 10.5858L99.3053 10.4129C97.9259 9.92509 96.8976 8.89384 96.4542 7.54766C96.3249 7.14627 96.2941 6.91779 96.2695 6.15825C96.2387 5.04055 96.3311 4.55889 96.7313 3.74377C96.9653 3.26828 97.107 3.08302 97.5749 2.61989C98.3139 1.88505 98.9112 1.56394 99.8594 1.38486C100.414 1.27988 118.77 1.25518 119.404 1.36016Z" fill="white"/>
<path d="M100.136 3.10735C99.6435 3.21233 99.2494 3.42228 98.8491 3.79279C98.4612 4.15712 98.2272 4.53998 98.0733 5.0834C97.9255 5.58976 97.9686 6.68276 98.1533 7.15825C98.4181 7.83751 99.0216 8.4365 99.7051 8.72056C100.038 8.85641 100.087 8.85641 103.307 8.87494C105.592 8.88729 106.682 8.87494 106.94 8.82554C107.95 8.62793 108.769 7.84986 109.04 6.81861C109.151 6.40488 109.145 5.54036 109.034 5.08957C108.775 4.08302 107.907 3.27408 106.885 3.08882C106.362 2.99002 100.592 3.00855 100.136 3.10735ZM106.669 4.31768C107.088 4.39795 107.439 4.63879 107.673 5.01547C107.827 5.26865 107.858 5.39215 107.882 5.83677C107.926 6.63953 107.661 7.16442 107.07 7.48553C106.823 7.62138 106.774 7.62138 103.683 7.63991C100.167 7.65844 100.099 7.65226 99.6866 7.25088C99.2987 6.87419 99.2432 6.71364 99.2432 5.97879C99.2432 5.36128 99.2556 5.31188 99.428 5.02782C99.6558 4.65731 100.013 4.39795 100.382 4.32385C100.777 4.24358 106.263 4.24358 106.669 4.31768Z" fill="white"/>
<path d="M110.942 3.19996C110.087 3.58899 109.779 5.00928 110.37 5.83675C110.475 5.98495 110.672 6.18256 110.813 6.27518L111.066 6.44809L115.487 6.47896L119.914 6.50984L120.031 6.65804C120.197 6.86182 120.191 7.36201 120.025 7.52874C119.902 7.65224 119.822 7.65224 115.253 7.65224H110.604V8.23888V8.82552H115.444C120.85 8.82552 120.493 8.8564 120.924 8.38091C121.214 8.0598 121.318 7.79427 121.361 7.27556C121.423 6.51601 121.14 5.89232 120.579 5.56504L120.302 5.39831L115.881 5.36744L111.454 5.33656L111.337 5.18836C111.176 4.99075 111.176 4.57084 111.343 4.39176L111.472 4.25591H116.115H120.764V3.66927V3.08263H115.979C111.466 3.08263 111.176 3.08881 110.942 3.19996Z" fill="white"/>
<path d="M0.153942 0.378166C0.24015 0.526369 3.41752 6.07783 7.21681 12.7161C11.0161 19.3544 14.2981 25.0541 14.5137 25.3752C15.5482 26.9375 16.558 27.7773 17.9004 28.1972C18.4361 28.3578 18.5038 28.364 19.7785 28.364C21.0408 28.364 21.127 28.3578 21.6443 28.1972C22.648 27.8885 23.2699 27.4994 24.0088 26.709C24.2859 26.4188 24.6615 25.9495 24.8463 25.6716C25.148 25.2146 39.4831 0.205261 39.4831 0.137335C39.4831 0.124985 38.3685 0.118809 37.0077 0.137335C34.9449 0.155861 34.4707 0.174385 34.1875 0.260838C33.3623 0.507843 32.5557 1.06361 32.1185 1.69965C31.9769 1.89725 29.3229 6.51009 26.2133 11.9442C23.1098 17.3784 20.4928 21.8986 20.4066 21.9974C20.0802 22.3432 19.5014 22.3679 19.1627 22.0529C19.058 21.9603 16.4595 17.4772 13.276 11.9133C10.1417 6.42981 7.47543 1.80463 7.35228 1.64407C7.05055 1.22416 6.49636 0.779551 5.96064 0.520195C5.20325 0.155861 4.85226 0.118809 2.27834 0.118809H0L0.153942 0.378166Z" fill="white"/>
<path d="M47.2853 0.192785C46.6695 0.260712 45.7767 0.550943 45.3025 0.828825C44.4836 1.31666 43.7816 2.03298 43.018 3.17538C42.7717 3.54589 39.4096 9.36906 35.5488 16.1123L28.5352 28.37L30.9428 28.3885C33.6276 28.407 33.7261 28.3947 34.5574 27.9871C34.9145 27.8142 35.13 27.6475 35.5057 27.2646C35.986 26.7706 36.0414 26.6718 41.7619 16.6743C45.6658 9.84455 47.5809 6.54701 47.6979 6.46056C48.055 6.20121 48.6277 6.26296 48.9233 6.59024C48.9848 6.65817 51.608 11.2093 54.7546 16.7113C58.1721 22.6889 60.5921 26.8509 60.7768 27.0794C61.1278 27.5117 61.7559 27.9563 62.3655 28.2033L62.7904 28.37L65.3643 28.3885C66.7744 28.4009 67.932 28.3885 67.932 28.37C67.932 28.2835 53.7262 3.50266 53.3506 2.93455C51.9036 0.736198 50.007 -0.122149 47.2853 0.192785Z" fill="white"/>
<path d="M88.5425 0.211306C87.6865 0.384211 86.7567 0.97085 86.258 1.65012C86.141 1.81684 82.6311 7.89319 78.4685 15.1613L70.8945 28.37L73.3022 28.3885C75.9931 28.407 76.0978 28.3947 76.9229 27.9871C77.2616 27.8204 77.5079 27.6413 77.8466 27.2955C78.3022 26.8324 78.4131 26.6471 85.8515 13.6731C89.9957 6.43586 93.444 0.427437 93.5056 0.316284L93.6225 0.118679L91.2888 0.124853C89.5954 0.131029 88.8442 0.155729 88.5425 0.211306Z" fill="white"/>
<path d="M100.4 15.2849C100.092 15.4393 99.9445 15.7295 99.9076 16.2667L99.8706 16.7299H99.6366C99.3965 16.7299 99.3965 16.7299 99.3965 16.9769V17.2239H99.6428H99.8891V18.2736V19.3234H100.228H100.566V18.2736V17.2239H100.844H101.121V16.9769V16.7299H100.844H100.566V16.3717C100.566 15.9024 100.677 15.7418 101.004 15.7418H101.244V15.464V15.1861H100.924C100.745 15.1861 100.505 15.2355 100.4 15.2849Z" fill="white"/>
<path d="M118.117 17.2856V19.3234H118.425H118.733V17.2856V15.2478H118.425H118.117V17.2856Z" fill="white"/>
<path d="M107.483 15.4331C106.91 15.5566 106.417 15.921 106.14 16.4273C105.796 17.0695 105.869 18.0761 106.313 18.6566C106.972 19.5211 108.443 19.6816 109.207 18.9653C109.299 18.8789 109.373 18.7862 109.373 18.7554C109.373 18.7307 109.262 18.6319 109.127 18.5454L108.874 18.3787L108.739 18.5022C108.265 18.9344 107.538 18.9036 107.064 18.4343C106.282 17.6438 106.719 16.1556 107.772 16.0136C108.105 15.9704 108.499 16.063 108.684 16.2359C108.85 16.3965 108.868 16.3903 109.151 16.1495L109.385 15.9457L109.176 15.7851C108.764 15.4702 108.031 15.3158 107.483 15.4331Z" fill="white"/>
<path d="M98.3805 15.5874C98.2943 15.6677 98.2266 15.7727 98.2266 15.8221C98.2266 15.9827 98.479 16.2358 98.633 16.2358C98.8054 16.2358 99.0886 15.9827 99.0886 15.8345C99.0886 15.6924 98.8115 15.4331 98.6576 15.4331C98.5899 15.4331 98.4606 15.501 98.3805 15.5874Z" fill="white"/>
<path d="M116.614 15.5627C116.202 15.89 116.682 16.4457 117.119 16.137C117.396 15.9394 117.23 15.433 116.879 15.433C116.824 15.433 116.707 15.4886 116.614 15.5627Z" fill="white"/>
<path d="M95.5801 17.4091V19.3234H96.7193H97.8584V19.0147V18.7059H97.0579H96.2574V17.1004V15.4948H95.9188H95.5801V17.4091Z" fill="white"/>
<path d="M113.312 17.403V19.3234H113.651H113.99V18.5207V17.7179H114.476C115.468 17.7179 115.96 17.335 115.96 16.5755C115.96 16.1803 115.782 15.8653 115.462 15.6801C115.209 15.5381 115.117 15.5257 114.255 15.5072L113.312 15.4825V17.403ZM115.061 16.1988C115.147 16.2544 115.24 16.3717 115.258 16.4643C115.369 16.8904 115.018 17.1621 114.378 17.1621H113.99V16.6002V16.0321L114.446 16.0629C114.729 16.0815 114.969 16.1309 115.061 16.1988Z" fill="white"/>
<path d="M123.166 16.3593V16.7298H122.92C122.674 16.7298 122.674 16.7298 122.674 16.9706C122.674 17.2115 122.68 17.2177 122.908 17.2362L123.136 17.2547L123.166 18.0884C123.185 18.6132 123.228 18.9776 123.277 19.064C123.376 19.2431 123.702 19.3851 123.992 19.3851C124.336 19.3851 124.398 19.3357 124.398 19.0702C124.398 18.8294 124.398 18.8294 124.152 18.8294C123.819 18.8294 123.782 18.7306 123.782 17.9093V17.2238H124.121H124.46V16.9768V16.7298H124.121H123.782V16.3593V15.9888H123.474H123.166V16.3593Z" fill="white"/>
<path d="M102.199 16.7731C101.67 17.0509 101.399 17.5388 101.442 18.1378C101.479 18.6256 101.651 18.9405 102.008 19.169C102.55 19.5025 103.4 19.4407 103.776 19.0393L103.924 18.8788L103.708 18.7059C103.492 18.5268 103.492 18.5268 103.363 18.6503C103.024 18.9714 102.44 18.9097 102.187 18.5268C102.113 18.4156 102.064 18.2983 102.082 18.2674C102.101 18.2366 102.544 18.2119 103.068 18.2119H104.016V17.9093C104.016 17.4647 103.757 16.9954 103.406 16.8101C103.08 16.6372 102.489 16.6187 102.199 16.7731ZM103.178 17.2979C103.265 17.3782 103.345 17.5079 103.351 17.5943L103.369 17.7487L102.741 17.7673C102.132 17.7858 102.107 17.7796 102.107 17.6561C102.107 17.582 102.187 17.44 102.286 17.3412C102.52 17.1065 102.938 17.088 103.178 17.2979Z" fill="white"/>
<path d="M110.438 16.8165C109.619 17.1994 109.465 18.3727 110.155 19.0272C110.678 19.5274 111.596 19.5089 112.113 18.984C112.796 18.3047 112.575 17.1315 111.7 16.7671C111.349 16.6189 110.82 16.6436 110.438 16.8165ZM111.608 17.4032C111.75 17.539 111.799 17.6564 111.823 17.8972C111.873 18.453 111.602 18.8296 111.152 18.8296C110.801 18.8296 110.623 18.7185 110.475 18.4159C110.173 17.7922 110.592 17.1068 111.22 17.1932C111.343 17.2056 111.503 17.2982 111.608 17.4032Z" fill="white"/>
<path d="M120.334 16.7669C119.835 16.983 119.533 17.4523 119.533 18.0081C119.539 18.8294 120.094 19.3851 120.919 19.3851C121.731 19.3851 122.304 18.8232 122.304 18.0266C122.304 17.4523 121.996 16.9768 121.491 16.7669C121.202 16.6434 120.617 16.6434 120.334 16.7669ZM121.22 17.2547C121.695 17.4832 121.805 18.2304 121.417 18.6194C121.14 18.8973 120.752 18.9158 120.463 18.6688C119.909 18.2057 120.217 17.1806 120.906 17.1621C120.974 17.1621 121.11 17.2053 121.22 17.2547Z" fill="white"/>
<path d="M98.3516 18.0266V19.3234H98.6594H98.9673V18.0266V16.7299H98.6594H98.3516V18.0266Z" fill="white"/>
<path d="M116.516 18.0266V19.3234H116.854H117.193V18.0266V16.7299H116.854H116.516V18.0266Z" fill="white"/>
</svg>
