<svg width="212" height="56" viewBox="0 0 212 56" fill="none" xmlns="http://www.w3.org/2000/svg">
<g filter="url(#filter0_iii_1920_4412)">
<rect width="212" height="56" rx="28" fill="#77A9E8" fill-opacity="0.04"/>
<g filter="url(#filter1_iii_1920_4412)">
<rect x="4" y="4" width="48" height="48" rx="24" fill="#77A9E8" fill-opacity="0.16"/>
<circle cx="28" cy="28" r="10" fill="#2A5FDD" fill-opacity="0.16"/>
<circle cx="28" cy="32" r="2" fill="#2A5FDD" fill-opacity="0.16"/>
<path d="M29 18.0494C28.6711 18.0167 28.3375 18 28 18C22.4772 18 18 22.4772 18 28C18 33.5228 22.4772 38 28 38C33.5228 38 38 33.5228 38 28C38 27.3151 37.9311 26.6462 37.8 26" stroke="#2A5FDD" stroke-width="1.5" stroke-linecap="round" stroke-linejoin="round"/>
<path d="M26 27H24.7071C24.2544 27 23.8201 26.8201 23.5 26.5M30 27H31.2929C31.7456 27 32.1799 26.8201 32.5 26.5" stroke="#2A5FDD" stroke-width="1.5" stroke-linecap="round" stroke-linejoin="round"/>
<circle cx="28" cy="32" r="2" stroke="#2A5FDD" stroke-width="1.5" stroke-linecap="round" stroke-linejoin="round"/>
<path d="M33 18H35.9474C36.5675 18 36.8775 18 36.9601 18.2001C37.0427 18.4002 36.8317 18.6402 36.4098 19.1203L33.9846 21.8797C33.5627 22.3598 33.3517 22.5998 33.4343 22.7999C33.5169 23 33.8269 23 34.447 23H37" stroke="#2A5FDD" stroke-width="1.5" stroke-linecap="round" stroke-linejoin="round"/>
</g>
<path d="M64.6836 30.1426C64.6836 30.0742 64.7129 30.0449 64.7812 30.0352H66.5586C66.6367 30.0352 66.6758 30.0742 66.6758 30.1621C66.6758 31.1777 67.7598 32.4961 70.0156 32.4961C72.1543 32.4961 73.3555 31.3633 73.3555 30.0352C73.3555 28.2578 71.7637 27.8574 70.0156 27.7012C68.8926 27.5938 67.6328 27.3691 66.627 26.793C65.6406 26.2168 64.918 25.2891 64.918 23.7363C64.918 21.168 67.3789 19.7227 69.8008 19.7227C72.3105 19.7227 74.7129 21.0312 74.8203 23.7754C74.8203 23.8438 74.791 23.873 74.7227 23.8828H72.916C72.8477 23.873 72.8184 23.8438 72.8184 23.7754C72.8184 22.4473 71.5781 21.4219 69.8008 21.4219C68.2188 21.4219 66.9199 22.3887 66.9199 23.7363C66.9199 25.377 68.6387 25.6406 70.0156 25.7969C70.6699 25.875 71.3145 25.9824 71.9492 26.1289C72.5938 26.2754 73.1699 26.4902 73.668 26.793C74.6738 27.3887 75.3574 28.3945 75.3574 30.0352C75.3574 32.0566 73.9023 34.1953 70.0156 34.1953C66.5488 34.1953 64.6836 32.3105 64.6836 30.1426ZM76.9645 33.9023V20.0156C76.9645 19.9473 77.0035 19.918 77.0719 19.918H78.7711C78.8395 19.918 78.8687 19.9473 78.8687 20.0156V33.9023C78.8687 33.9707 78.8395 34 78.7711 34H77.0719C77.0035 34 76.9742 33.9707 76.9645 33.9023ZM80.2609 28.9414C80.2609 25.7871 81.9992 23.6777 85.1145 23.6777C88.2199 23.6777 89.9973 25.8262 89.9973 28.9414C89.9973 29.166 89.9777 29.3613 89.9387 29.5176C89.9094 29.5859 89.8801 29.6152 89.841 29.6152H82.3801C82.3117 29.6152 82.2824 29.6543 82.2727 29.7227C82.2727 31.1777 83.3469 32.4961 85.1145 32.4961C85.8371 32.4961 86.384 32.3594 86.7648 32.0957C87.1457 31.832 87.4484 31.5 87.6535 31.0996C87.6828 31.0312 87.7316 31.002 87.8 31.002H89.5773C89.6555 31.002 89.6848 31.0312 89.675 31.0996C89.4113 32.0859 88.8645 32.8574 88.0441 33.3945C87.2238 33.9316 86.2473 34.1953 85.1145 34.1953C82.1164 34.1953 80.2609 32.0664 80.2609 28.9414ZM82.2727 28.0234C82.2727 28.0918 82.3117 28.1211 82.3801 28.1211H87.8195C87.8879 28.1211 87.9172 28.0918 87.9172 28.0234C87.9172 26.8809 87.0969 25.377 85.1145 25.377C83.1809 25.377 82.2727 27.0859 82.2727 28.0234ZM90.6375 28.9414C90.6375 25.7871 92.3758 23.6777 95.491 23.6777C98.5965 23.6777 100.374 25.8262 100.374 28.9414C100.374 29.166 100.354 29.3613 100.315 29.5176C100.286 29.5859 100.257 29.6152 100.218 29.6152H92.7566C92.6883 29.6152 92.659 29.6543 92.6492 29.7227C92.6492 31.1777 93.7234 32.4961 95.491 32.4961C96.2137 32.4961 96.7605 32.3594 97.1414 32.0957C97.5223 31.832 97.825 31.5 98.0301 31.0996C98.0594 31.0312 98.1082 31.002 98.1766 31.002H99.9539C100.032 31.002 100.061 31.0312 100.052 31.0996C99.7879 32.0859 99.241 32.8574 98.4207 33.3945C97.6004 33.9316 96.6238 34.1953 95.491 34.1953C92.493 34.1953 90.6375 32.0664 90.6375 28.9414ZM92.6492 28.0234C92.6492 28.0918 92.6883 28.1211 92.7566 28.1211H98.1961C98.2645 28.1211 98.2938 28.0918 98.2938 28.0234C98.2938 26.8809 97.4734 25.377 95.491 25.377C93.5574 25.377 92.6492 27.0859 92.6492 28.0234ZM101.434 37.8574V23.9805C101.434 23.9121 101.463 23.8828 101.532 23.8828H103.036C103.075 23.8828 103.104 23.9121 103.133 23.9805L103.338 24.8008C103.387 24.9277 103.485 24.8691 103.534 24.8203C104.041 24.2441 105.399 23.6777 106.395 23.6777C109.334 23.6777 111.151 25.8262 111.151 28.9414C111.151 32.0664 109.334 34.1953 106.395 34.1953C105.018 34.1953 103.758 33.3359 103.534 33.0625C103.426 32.9355 103.338 33.0234 103.338 33.1016V37.8574C103.338 37.9258 103.299 37.9551 103.231 37.9648H101.532C101.463 37.9648 101.434 37.9258 101.434 37.8574ZM103.338 28.9414C103.338 31.0215 104.373 32.4961 106.19 32.4961C108.114 32.4961 109.256 31.0215 109.256 28.9414C109.256 26.8711 108.114 25.377 106.19 25.377C104.373 25.377 103.338 26.8711 103.338 28.9414ZM115.908 33.9023L120.625 20.0156C120.654 19.9473 120.693 19.918 120.742 19.918H123.203C123.252 19.918 123.3 19.9473 123.33 20.0156L127.988 33.9023C127.998 33.9121 127.998 33.9316 127.998 33.9414C127.998 33.9805 127.959 34 127.89 34H126.005C125.966 34 125.937 33.9707 125.908 33.9023L124.99 31.041C124.98 30.9727 124.931 30.9434 124.843 30.9434H119.043C118.994 30.9434 118.955 30.9727 118.925 31.041L117.988 33.9023C117.959 33.9707 117.929 34 117.89 34H116.025C115.937 34 115.898 33.9707 115.908 33.9023ZM121.865 21.9199L119.511 29.2441C119.502 29.2539 119.502 29.2734 119.502 29.2832C119.502 29.3223 119.531 29.3418 119.589 29.3418H124.326C124.384 29.3418 124.414 29.3223 124.414 29.2832C124.414 29.2734 124.414 29.2539 124.404 29.2441L122.07 21.9199C122.021 21.793 121.914 21.793 121.865 21.9199ZM129.361 33.9023V23.9805C129.361 23.9121 129.39 23.8828 129.458 23.8828H130.962C131.001 23.8828 131.03 23.9121 131.06 23.9805L131.255 24.8789C131.304 25.0059 131.431 24.9473 131.48 24.8984C131.695 24.6055 132.017 24.332 132.437 24.0684C132.866 23.8047 133.423 23.6777 134.097 23.6777C136.997 23.6777 138.462 25.7871 138.462 28.4043V33.9023C138.462 33.9707 138.423 34 138.355 34H136.655C136.587 34 136.558 33.9707 136.558 33.9023V28.4043C136.558 26.9004 135.874 25.377 133.902 25.377C132.212 25.377 131.255 26.8418 131.255 28.4043V33.9023C131.255 33.9707 131.226 34 131.157 34H129.458C129.39 34 129.361 33.9707 129.361 33.9023ZM139.552 31.002C139.552 29.2637 140.997 27.9648 143.946 27.9648H146.192C146.524 27.9648 146.72 27.9062 146.768 27.7988C146.817 27.6816 146.846 27.5254 146.846 27.3398C146.846 26.5195 146.651 25.377 144.268 25.377C143.399 25.377 142.774 25.5527 142.393 25.9141C142.012 26.2656 141.827 26.6953 141.827 27.2031C141.827 27.2715 141.798 27.3008 141.729 27.3008H140.011C139.942 27.3008 139.913 27.2715 139.913 27.2031C139.913 24.8496 142.003 23.6777 144.268 23.6777C145.655 23.6777 146.749 23.9902 147.55 24.6152C148.35 25.2305 148.751 26.1582 148.751 27.3789V33.9023C148.751 33.9707 148.721 34 148.653 34H147.149C147.11 34 147.081 33.9707 147.052 33.9023L146.846 33.082C146.817 32.9746 146.739 32.9746 146.69 33.0234C146.202 33.5117 144.864 34.1953 143.565 34.1953C142.218 34.1953 141.212 33.9023 140.548 33.3164C139.884 32.7305 139.552 31.959 139.552 31.002ZM141.446 31.002C141.446 31.7344 141.964 32.4961 143.546 32.4961C145.987 32.4961 146.798 31.0605 146.846 29.8398V29.5566C146.846 29.4883 146.817 29.459 146.749 29.459H143.946C141.817 29.5664 141.446 30.3086 141.446 31.002ZM150.543 33.9023V20.0156C150.543 19.9473 150.582 19.918 150.651 19.918H152.35C152.418 19.918 152.448 19.9473 152.448 20.0156V33.9023C152.448 33.9707 152.418 34 152.35 34H150.651C150.582 34 150.553 33.9707 150.543 33.9023ZM157.492 33.9023L154.113 23.9805C154.104 23.9121 154.143 23.8828 154.23 23.8828H156.047C156.086 23.8828 156.125 23.9121 156.154 23.9805L158.771 32.0176C158.82 32.125 158.918 32.125 158.967 32.0176L161.613 23.9805C161.643 23.9121 161.672 23.8828 161.711 23.8828H163.527C163.605 23.8828 163.645 23.9023 163.645 23.9512C163.645 23.9609 163.645 23.9707 163.635 23.9805L160.207 34L159.631 35.7383C159.016 37.3594 158.479 37.9648 156.828 37.9648H154.23C154.162 37.9648 154.133 37.9258 154.133 37.8574V36.3633C154.133 36.2949 154.162 36.2656 154.23 36.2559H156.486C157.082 36.2559 157.482 36.0898 157.668 35.748C157.854 35.4062 157.854 34.9766 157.668 34.4395L157.492 33.9023ZM163.611 30.6797C163.611 30.6113 163.64 30.582 163.709 30.582H165.388C165.466 30.582 165.505 30.6113 165.505 30.6797C165.505 31.1875 165.74 31.6172 166.218 31.9688C166.697 32.3203 167.332 32.4961 168.132 32.4961C169.148 32.4961 170.632 32.2715 170.632 30.9824C170.632 29.8398 168.982 29.7715 168.132 29.6641C167.166 29.5566 166.082 29.4297 165.232 29.0098C164.812 28.8047 164.47 28.5117 164.197 28.1504C163.923 27.7891 163.787 27.291 163.787 26.6562C163.787 25.0254 165.369 23.6777 167.849 23.6777C170.291 23.6777 172.254 24.8496 172.254 27.2031C172.254 27.2715 172.224 27.3008 172.166 27.3008H170.447C170.379 27.3008 170.349 27.2715 170.349 27.2031C170.349 26.0801 169.48 25.377 167.849 25.377C167.088 25.377 166.541 25.5137 166.199 25.7871C165.857 26.0605 165.691 26.3535 165.691 26.6562C165.691 27.8184 167.117 27.7793 168.132 27.9648C169.119 28.0918 170.242 28.1992 171.072 28.5996C171.492 28.8047 171.843 29.0879 172.117 29.459C172.39 29.8301 172.527 30.3379 172.527 30.9824C172.527 33.2871 170.623 34.1953 168.132 34.1953C165.086 34.1953 163.611 32.6035 163.611 30.6797ZM173.626 22.1152V20.0156C173.626 19.9473 173.655 19.918 173.724 19.918H175.823C175.892 19.918 175.921 19.9473 175.921 20.0156V22.1152C175.921 22.1836 175.892 22.2129 175.823 22.2227H173.724C173.655 22.2227 173.626 22.1836 173.626 22.1152ZM173.821 33.9023V23.9805C173.821 23.9121 173.851 23.8828 173.919 23.8828H175.618C175.687 23.8828 175.716 23.9121 175.726 23.9805V33.9023C175.726 33.9707 175.687 34 175.618 34H173.919C173.851 34 173.821 33.9707 173.821 33.9023ZM177.489 30.6797C177.489 30.6113 177.518 30.582 177.587 30.582H179.266C179.345 30.582 179.384 30.6113 179.384 30.6797C179.384 31.1875 179.618 31.6172 180.096 31.9688C180.575 32.3203 181.21 32.4961 182.011 32.4961C183.026 32.4961 184.511 32.2715 184.511 30.9824C184.511 29.8398 182.86 29.7715 182.011 29.6641C181.044 29.5566 179.96 29.4297 179.11 29.0098C178.69 28.8047 178.348 28.5117 178.075 28.1504C177.802 27.7891 177.665 27.291 177.665 26.6562C177.665 25.0254 179.247 23.6777 181.727 23.6777C184.169 23.6777 186.132 24.8496 186.132 27.2031C186.132 27.2715 186.102 27.3008 186.044 27.3008H184.325C184.257 27.3008 184.227 27.2715 184.227 27.2031C184.227 26.0801 183.358 25.377 181.727 25.377C180.966 25.377 180.419 25.5137 180.077 25.7871C179.735 26.0605 179.569 26.3535 179.569 26.6562C179.569 27.8184 180.995 27.7793 182.011 27.9648C182.997 28.0918 184.12 28.1992 184.95 28.5996C185.37 28.8047 185.721 29.0879 185.995 29.459C186.268 29.8301 186.405 30.3379 186.405 30.9824C186.405 33.2871 184.501 34.1953 182.011 34.1953C178.964 34.1953 177.489 32.6035 177.489 30.6797Z" fill="black"/>
</g>
<defs>
<filter id="filter0_iii_1920_4412" x="-20" y="-20" width="252" height="156" filterUnits="userSpaceOnUse" color-interpolation-filters="sRGB">
<feFlood flood-opacity="0" result="BackgroundImageFix"/>
<feBlend mode="normal" in="SourceGraphic" in2="BackgroundImageFix" result="shape"/>
<feColorMatrix in="SourceAlpha" type="matrix" values="0 0 0 0 0 0 0 0 0 0 0 0 0 0 0 0 0 0 127 0" result="hardAlpha"/>
<feOffset dy="1"/>
<feGaussianBlur stdDeviation="0.5"/>
<feComposite in2="hardAlpha" operator="arithmetic" k2="-1" k3="1"/>
<feColorMatrix type="matrix" values="0 0 0 0 0.580392 0 0 0 0 0.658824 0 0 0 0 0.929412 0 0 0 0.2 0"/>
<feBlend mode="normal" in2="shape" result="effect1_innerShadow_1920_4412"/>
<feColorMatrix in="SourceAlpha" type="matrix" values="0 0 0 0 0 0 0 0 0 0 0 0 0 0 0 0 0 0 127 0" result="hardAlpha"/>
<feOffset dy="-1"/>
<feGaussianBlur stdDeviation="0.5"/>
<feComposite in2="hardAlpha" operator="arithmetic" k2="-1" k3="1"/>
<feColorMatrix type="matrix" values="0 0 0 0 0.580392 0 0 0 0 0.658824 0 0 0 0 0.929412 0 0 0 0.2 0"/>
<feBlend mode="normal" in2="effect1_innerShadow_1920_4412" result="effect2_innerShadow_1920_4412"/>
<feColorMatrix in="SourceAlpha" type="matrix" values="0 0 0 0 0 0 0 0 0 0 0 0 0 0 0 0 0 0 127 0" result="hardAlpha"/>
<feOffset dx="6" dy="80"/>
<feGaussianBlur stdDeviation="40"/>
<feComposite in2="hardAlpha" operator="arithmetic" k2="-1" k3="1"/>
<feColorMatrix type="matrix" values="0 0 0 0 0.580392 0 0 0 0 0.658824 0 0 0 0 0.929412 0 0 0 0.02 0"/>
<feBlend mode="normal" in2="effect2_innerShadow_1920_4412" result="effect3_innerShadow_1920_4412"/>
</filter>
<filter id="filter1_iii_1920_4412" x="-16" y="-16" width="88" height="148" filterUnits="userSpaceOnUse" color-interpolation-filters="sRGB">
<feFlood flood-opacity="0" result="BackgroundImageFix"/>
<feBlend mode="normal" in="SourceGraphic" in2="BackgroundImageFix" result="shape"/>
<feColorMatrix in="SourceAlpha" type="matrix" values="0 0 0 0 0 0 0 0 0 0 0 0 0 0 0 0 0 0 127 0" result="hardAlpha"/>
<feOffset dy="1"/>
<feGaussianBlur stdDeviation="0.5"/>
<feComposite in2="hardAlpha" operator="arithmetic" k2="-1" k3="1"/>
<feColorMatrix type="matrix" values="0 0 0 0 0.580392 0 0 0 0 0.658824 0 0 0 0 0.929412 0 0 0 0.2 0"/>
<feBlend mode="normal" in2="shape" result="effect1_innerShadow_1920_4412"/>
<feColorMatrix in="SourceAlpha" type="matrix" values="0 0 0 0 0 0 0 0 0 0 0 0 0 0 0 0 0 0 127 0" result="hardAlpha"/>
<feOffset dy="-1"/>
<feGaussianBlur stdDeviation="0.5"/>
<feComposite in2="hardAlpha" operator="arithmetic" k2="-1" k3="1"/>
<feColorMatrix type="matrix" values="0 0 0 0 0.580392 0 0 0 0 0.658824 0 0 0 0 0.929412 0 0 0 0.2 0"/>
<feBlend mode="normal" in2="effect1_innerShadow_1920_4412" result="effect2_innerShadow_1920_4412"/>
<feColorMatrix in="SourceAlpha" type="matrix" values="0 0 0 0 0 0 0 0 0 0 0 0 0 0 0 0 0 0 127 0" result="hardAlpha"/>
<feOffset dx="6" dy="80"/>
<feGaussianBlur stdDeviation="40"/>
<feComposite in2="hardAlpha" operator="arithmetic" k2="-1" k3="1"/>
<feColorMatrix type="matrix" values="0 0 0 0 0.580392 0 0 0 0 0.658824 0 0 0 0 0.929412 0 0 0 0.02 0"/>
<feBlend mode="normal" in2="effect2_innerShadow_1920_4412" result="effect3_innerShadow_1920_4412"/>
</filter>
</defs>
</svg>
