<svg width="204" height="56" viewBox="0 0 204 56" fill="none" xmlns="http://www.w3.org/2000/svg">
<g filter="url(#filter0_iii_1920_4416)">
<rect width="204" height="56" rx="28" fill="#77A9E8" fill-opacity="0.04"/>
<g filter="url(#filter1_iii_1920_4416)">
<rect x="4" y="4" width="48" height="48" rx="24" fill="#77A9E8" fill-opacity="0.16"/>
<path d="M19.501 29.6785C19.501 25.4944 23.0818 21.3596 25.5951 18.9727C26.9601 17.6764 29.0419 17.6764 30.4068 18.9727C32.9202 21.3596 36.501 25.4944 36.501 29.6785C36.501 33.7809 33.2822 38.0005 28.001 38.0005C22.7198 38.0005 19.501 33.7809 19.501 29.6785Z" fill="#2A5FDD" fill-opacity="0.16"/>
<path d="M25.002 29.0005H25.8023C26.4323 29.0005 26.7473 29.0005 27.0005 29.1498C27.2537 29.2992 27.3945 29.5681 27.6763 30.1061L29.1924 33.0005L31.2877 27.0005L32.8038 29.8949C33.0856 30.4328 33.2264 30.7018 33.4796 30.8511C33.7328 31.0005 34.0478 31.0005 34.6778 31.0005H36.002" stroke="#2A5FDD" stroke-width="1.5" stroke-linecap="round" stroke-linejoin="round"/>
<path d="M36.501 28.0005C35.733 24.4159 32.7246 21.0392 30.5251 18.9727C29.1453 17.6764 27.041 17.6764 25.6612 18.9727C23.1206 21.3596 19.501 25.4944 19.501 29.6785C19.501 33.7809 22.7546 38.0005 28.0931 38.0005C31.486 38.0005 34.0368 36.296 35.4454 34.0005" stroke="#2A5FDD" stroke-width="1.5" stroke-linecap="round"/>
</g>
<path d="M65.3574 21.9023V8.01562C65.3574 7.94727 65.3965 7.91797 65.4648 7.91797H72.1152C74.3125 7.91797 75.7969 9.73438 75.7969 11.9219C75.7969 13.2305 75.0059 14.2266 74.2246 14.5391C74.1172 14.5879 74.1074 14.6758 74.2246 14.7441C75.1719 15.1055 76.1191 16.6191 76.1191 17.9961C76.1191 20.3789 74.4004 22 72.0176 22H65.4648C65.3965 22 65.3672 21.9707 65.3574 21.9023ZM67.2617 15.7012V20.2031C67.2617 20.2715 67.291 20.3008 67.3594 20.3008H71.7441C73.1992 20.3008 74.2246 19.207 74.2246 17.9961C74.2246 16.8242 73.1602 15.6035 71.8809 15.6035H67.3594C67.291 15.6035 67.2617 15.6328 67.2617 15.7012ZM67.2617 9.69531V13.7969C67.2617 13.8652 67.291 13.8945 67.3594 13.9043H71.7441C72.7695 13.8555 73.9023 13.0938 73.9023 11.9219C73.9023 10.7305 73.1602 9.59766 71.7441 9.59766H67.3594C67.291 9.59766 67.2617 9.62695 67.2617 9.69531ZM77.5504 21.9023V8.01562C77.5504 7.94727 77.5895 7.91797 77.6578 7.91797H79.357C79.4254 7.91797 79.4547 7.94727 79.4547 8.01562V21.9023C79.4547 21.9707 79.4254 22 79.357 22H77.6578C77.5895 22 77.5602 21.9707 77.5504 21.9023ZM80.8664 16.9414C80.8664 13.7871 82.673 11.6777 85.8176 11.6777C88.9523 11.6777 90.7785 13.8262 90.7785 16.9414C90.7785 20.0664 88.9523 22.1953 85.8176 22.1953C82.673 22.1953 80.8664 20.0664 80.8664 16.9414ZM82.7609 16.9414C82.7609 19.0215 83.9328 20.4961 85.8176 20.4961C87.7414 20.4961 88.884 19.0215 88.884 16.9414C88.884 14.8711 87.7414 13.377 85.8176 13.377C83.923 13.377 82.7609 14.8711 82.7609 16.9414ZM91.6141 16.9414C91.6141 13.7871 93.4207 11.6777 96.5652 11.6777C99.7 11.6777 101.526 13.8262 101.526 16.9414C101.526 20.0664 99.7 22.1953 96.5652 22.1953C93.4207 22.1953 91.6141 20.0664 91.6141 16.9414ZM93.5086 16.9414C93.5086 19.0215 94.6805 20.4961 96.5652 20.4961C98.4891 20.4961 99.6316 19.0215 99.6316 16.9414C99.6316 14.8711 98.4891 13.377 96.5652 13.377C94.6707 13.377 93.5086 14.8711 93.5086 16.9414ZM102.362 16.9414C102.362 13.8262 104.178 11.6777 107.118 11.6777C108.524 11.6777 109.715 12.5566 109.979 12.8203C110.086 12.9473 110.174 12.8594 110.174 12.7812V8.01562C110.174 7.94727 110.213 7.91797 110.282 7.91797H111.981C112.049 7.91797 112.079 7.94727 112.079 8.01562V21.9023C112.079 21.9707 112.049 22 111.981 22H110.477C110.438 22 110.409 21.9707 110.379 21.9023L110.174 21.082C110.125 20.9551 110.028 21.0137 109.979 21.0625C109.481 21.6387 108.114 22.1953 107.118 22.1953C104.178 22.1953 102.362 20.0664 102.362 16.9414ZM104.256 16.9414C104.256 19.0215 105.399 20.4961 107.313 20.4961C109.139 20.4961 110.174 19.0215 110.174 16.9414C110.174 14.8711 109.139 13.377 107.313 13.377C105.399 13.377 104.256 14.8711 104.256 16.9414ZM117.724 16.9414C117.724 13.7871 119.531 11.6777 122.675 11.6777C125.81 11.6777 127.636 13.8262 127.636 16.9414C127.636 20.0664 125.81 22.1953 122.675 22.1953C119.531 22.1953 117.724 20.0664 117.724 16.9414ZM119.619 16.9414C119.619 19.0215 120.791 20.4961 122.675 20.4961C124.599 20.4961 125.742 19.0215 125.742 16.9414C125.742 14.8711 124.599 13.377 122.675 13.377C120.781 13.377 119.619 14.8711 119.619 16.9414ZM128.013 21.9707C128.003 21.9609 128.003 21.9609 128.003 21.9512C128.003 21.9414 128.013 21.9219 128.032 21.9023L131.655 17.0977C131.695 17.0293 131.695 16.9707 131.655 16.9023L128.032 11.9805C128.023 11.9512 128.013 11.9316 128.013 11.9219C128.013 11.8926 128.032 11.8828 128.071 11.8828H129.995C130.044 11.8828 130.103 11.9121 130.152 11.9805L132.739 15.4375C132.808 15.5254 132.866 15.5254 132.935 15.4375L135.513 11.9805C135.552 11.9121 135.611 11.8828 135.679 11.8828H137.593C137.642 11.8828 137.671 11.8926 137.671 11.9219C137.671 11.9316 137.661 11.9512 137.652 11.9805L133.999 16.9023C133.96 16.9707 133.96 17.0293 133.999 17.0977L137.652 21.9023C137.7 21.9512 137.72 22 137.612 22H135.591C135.523 22 135.474 21.9707 135.435 21.9023L132.915 18.543C132.866 18.4941 132.808 18.4941 132.759 18.543L130.22 21.9023C130.171 21.9707 130.112 22 130.054 22H128.071C128.042 22 128.023 21.9902 128.013 21.9707ZM141.661 21.9023L138.282 11.9805C138.272 11.9121 138.311 11.8828 138.399 11.8828H140.216C140.255 11.8828 140.294 11.9121 140.323 11.9805L142.94 20.0176C142.989 20.125 143.087 20.125 143.136 20.0176L145.782 11.9805C145.811 11.9121 145.841 11.8828 145.88 11.8828H147.696C147.774 11.8828 147.813 11.9023 147.813 11.9512C147.813 11.9609 147.813 11.9707 147.804 11.9805L144.376 22L143.8 23.7383C143.184 25.3594 142.647 25.9648 140.997 25.9648H138.399C138.331 25.9648 138.302 25.9258 138.302 25.8574V24.3633C138.302 24.2949 138.331 24.2656 138.399 24.2559H140.655C141.251 24.2559 141.651 24.0898 141.837 23.748C142.022 23.4062 142.022 22.9766 141.837 22.4395L141.661 21.9023ZM148.014 16.9414C148.014 13.8262 149.83 11.6777 152.77 11.6777C153.795 11.6777 155.026 12.2441 155.631 12.8008C155.68 12.8496 155.778 12.9082 155.827 12.7812L156.032 11.9805C156.061 11.9121 156.09 11.8828 156.129 11.8828H157.633C157.702 11.8828 157.731 11.9121 157.731 11.9805V21.6191C157.731 24.3145 155.807 26.1602 152.985 26.1602C150.534 26.1602 148.668 24.7832 148.512 23.1816C148.512 23.1133 148.541 23.084 148.61 23.084H150.348C150.387 23.084 150.416 23.1133 150.446 23.1816C150.592 23.6309 151.354 24.4609 152.985 24.4609C155.094 24.4609 155.827 23.0059 155.827 21.6191V21.082C155.827 21.0039 155.709 20.8965 155.631 21.043C155.407 21.3262 154.166 22.1953 152.77 22.1953C150.045 22.1953 148.014 20.0664 148.014 16.9414ZM149.909 16.9414C149.909 19.0215 151.051 20.4961 152.965 20.4961C154.791 20.4961 155.827 19.0215 155.827 16.9414C155.827 14.8711 154.791 13.377 152.965 13.377C151.051 13.377 149.909 14.8711 149.909 16.9414ZM158.586 16.9414C158.586 13.7871 160.324 11.6777 163.439 11.6777C166.545 11.6777 168.322 13.8262 168.322 16.9414C168.322 17.166 168.303 17.3613 168.264 17.5176C168.234 17.5859 168.205 17.6152 168.166 17.6152H160.705C160.637 17.6152 160.607 17.6543 160.598 17.7227C160.598 19.1777 161.672 20.4961 163.439 20.4961C164.162 20.4961 164.709 20.3594 165.09 20.0957C165.471 19.832 165.773 19.5 165.979 19.0996C166.008 19.0312 166.057 19.002 166.125 19.002H167.902C167.98 19.002 168.01 19.0312 168 19.0996C167.736 20.0859 167.189 20.8574 166.369 21.3945C165.549 21.9316 164.572 22.1953 163.439 22.1953C160.441 22.1953 158.586 20.0664 158.586 16.9414ZM160.598 16.0234C160.598 16.0918 160.637 16.1211 160.705 16.1211H166.145C166.213 16.1211 166.242 16.0918 166.242 16.0234C166.242 14.8809 165.422 13.377 163.439 13.377C161.506 13.377 160.598 15.0859 160.598 16.0234ZM169.324 21.9023V11.9805C169.324 11.9121 169.353 11.8828 169.421 11.8828H170.925C170.964 11.8828 170.994 11.9121 171.023 11.9805L171.218 12.8789C171.267 13.0059 171.394 12.9473 171.443 12.8984C171.658 12.6055 171.98 12.332 172.4 12.0684C172.83 11.8047 173.386 11.6777 174.06 11.6777C176.961 11.6777 178.425 13.7871 178.425 16.4043V21.9023C178.425 21.9707 178.386 22 178.318 22H176.619C176.55 22 176.521 21.9707 176.521 21.9023V16.4043C176.521 14.9004 175.838 13.377 173.865 13.377C172.175 13.377 171.218 14.8418 171.218 16.4043V21.9023C171.218 21.9707 171.189 22 171.121 22H169.421C169.353 22 169.324 21.9707 169.324 21.9023ZM65.2598 45.9023V35.9805C65.2598 35.9121 65.2891 35.8828 65.3574 35.8828H66.8613C66.9004 35.8828 66.9297 35.9121 66.959 35.9805L67.1641 36.8789C67.2129 37.0059 67.3496 36.957 67.3984 36.8789C67.7793 36.166 68.5996 35.6777 69.5762 35.6777C70.9922 35.6777 72.1445 36.1758 72.6816 37.084C72.7598 37.2012 72.8379 37.2012 72.916 37.084C73.4727 36.1953 74.4199 35.6777 75.9434 35.6777C78.5605 35.6777 79.8789 37.3867 79.8789 40.4043V45.9023C79.8789 45.9707 79.8496 46 79.7812 46H78.082C78.0137 46 77.9844 45.9707 77.9844 45.9023V40.4043C77.9844 38.9004 77.7109 37.377 75.7383 37.377C73.8438 37.377 73.5215 38.8418 73.5215 40.4043V45.9023C73.5215 45.9316 73.5117 45.9512 73.4824 45.9805C73.4727 45.9902 73.4531 46 73.4238 46H71.7246H71.6953C71.6562 46 71.6367 45.9902 71.6367 45.9609C71.627 45.9512 71.6172 45.9316 71.6172 45.9023V40.4043C71.6172 38.8516 71.3047 37.377 69.3809 37.377C67.6816 37.377 67.1641 38.8418 67.1641 40.4043V45.9023C67.1641 45.9707 67.125 46 67.0566 46H65.3574C65.2891 46 65.2598 45.9707 65.2598 45.9023ZM81.5055 40.9414C81.5055 37.7871 83.3121 35.6777 86.4566 35.6777C89.5914 35.6777 91.4176 37.8262 91.4176 40.9414C91.4176 44.0664 89.5914 46.1953 86.4566 46.1953C83.3121 46.1953 81.5055 44.0664 81.5055 40.9414ZM83.4 40.9414C83.4 43.0215 84.5719 44.4961 86.4566 44.4961C88.3805 44.4961 89.523 43.0215 89.523 40.9414C89.523 38.8711 88.3805 37.377 86.4566 37.377C84.5621 37.377 83.4 38.8711 83.4 40.9414ZM92.5949 45.9023V35.9805C92.5949 35.9121 92.6242 35.8828 92.6926 35.8828H94.1965C94.2355 35.8828 94.2648 35.9121 94.2941 35.9805L94.4895 36.8789C94.5383 37.0059 94.6652 36.9473 94.7141 36.8984C94.9289 36.6055 95.2512 36.332 95.6711 36.0684C96.1008 35.8047 96.6574 35.6777 97.3312 35.6777C100.232 35.6777 101.696 37.7871 101.696 40.4043V45.9023C101.696 45.9707 101.657 46 101.589 46H99.8898C99.8215 46 99.7922 45.9707 99.7922 45.9023V40.4043C99.7922 38.9004 99.1086 37.377 97.1359 37.377C95.4465 37.377 94.4895 38.8418 94.4895 40.4043V45.9023C94.4895 45.9707 94.4602 46 94.3918 46H92.6926C92.6242 46 92.5949 45.9707 92.5949 45.9023ZM103.128 34.1152V32.0156C103.128 31.9473 103.157 31.918 103.225 31.918H105.325C105.393 31.918 105.423 31.9473 105.423 32.0156V34.1152C105.423 34.1836 105.393 34.2129 105.325 34.2227H103.225C103.157 34.2227 103.128 34.1836 103.128 34.1152ZM103.323 45.9023V35.9805C103.323 35.9121 103.352 35.8828 103.421 35.8828H105.12C105.188 35.8828 105.218 35.9121 105.227 35.9805V45.9023C105.227 45.9707 105.188 46 105.12 46H103.421C103.352 46 103.323 45.9707 103.323 45.9023ZM106.473 37.2793V35.9805C106.473 35.9121 106.502 35.8828 106.571 35.8828H108.348C108.416 35.8828 108.446 35.8438 108.446 35.7754V33.0801C108.446 33.0117 108.485 32.9824 108.553 32.9824H110.252C110.321 32.9824 110.35 33.0117 110.35 33.0801V35.7754C110.35 35.8438 110.379 35.873 110.448 35.8828H112.606C112.674 35.8828 112.704 35.9121 112.713 35.9805V37.2793C112.713 37.3477 112.674 37.377 112.606 37.377H110.448C110.379 37.377 110.35 37.416 110.35 37.4844V43.3047C110.35 43.9199 110.623 44.3008 111.434 44.3008H112.606C112.674 44.3008 112.704 44.3301 112.713 44.3984V45.9023C112.713 45.9707 112.674 46 112.606 46H111.073H110.916C110.155 46 109.559 45.8145 109.129 45.4531C108.67 45.0625 108.446 44.457 108.446 43.6367V37.4844C108.446 37.416 108.416 37.3867 108.348 37.377H106.571C106.502 37.377 106.473 37.3477 106.473 37.2793ZM113.363 40.9414C113.363 37.7871 115.17 35.6777 118.314 35.6777C121.449 35.6777 123.275 37.8262 123.275 40.9414C123.275 44.0664 121.449 46.1953 118.314 46.1953C115.17 46.1953 113.363 44.0664 113.363 40.9414ZM115.258 40.9414C115.258 43.0215 116.43 44.4961 118.314 44.4961C120.238 44.4961 121.381 43.0215 121.381 40.9414C121.381 38.8711 120.238 37.377 118.314 37.377C116.42 37.377 115.258 38.8711 115.258 40.9414ZM124.511 45.9023V35.9805C124.511 35.9121 124.541 35.8828 124.609 35.8828H126.113C126.152 35.8828 126.181 35.9121 126.211 35.9805L126.416 36.8789C126.464 37.0059 126.582 36.9473 126.63 36.8984C127.324 36.2051 128.037 35.6777 129.052 35.6777H130.068C130.136 35.6777 130.166 35.707 130.175 35.7754V37.2793C130.175 37.3477 130.136 37.377 130.068 37.377H129.052C127.353 37.377 126.416 38.8418 126.416 40.4043V45.9023C126.416 45.9707 126.377 46 126.308 46H124.609C124.541 46 124.511 45.9707 124.511 45.9023ZM131.196 34.1152V32.0156C131.196 31.9473 131.226 31.918 131.294 31.918H133.394C133.462 31.918 133.491 31.9473 133.491 32.0156V34.1152C133.491 34.1836 133.462 34.2129 133.394 34.2227H131.294C131.226 34.2227 131.196 34.1836 131.196 34.1152ZM131.392 45.9023V35.9805C131.392 35.9121 131.421 35.8828 131.489 35.8828H133.189C133.257 35.8828 133.286 35.9121 133.296 35.9805V45.9023C133.296 45.9707 133.257 46 133.189 46H131.489C131.421 46 131.392 45.9707 131.392 45.9023ZM135.46 45.9023V35.9805C135.46 35.9121 135.489 35.8828 135.557 35.8828H137.061C137.1 35.8828 137.13 35.9121 137.159 35.9805L137.354 36.8789C137.403 37.0059 137.53 36.9473 137.579 36.8984C137.794 36.6055 138.116 36.332 138.536 36.0684C138.966 35.8047 139.522 35.6777 140.196 35.6777C143.096 35.6777 144.561 37.7871 144.561 40.4043V45.9023C144.561 45.9707 144.522 46 144.454 46H142.755C142.686 46 142.657 45.9707 142.657 45.9023V40.4043C142.657 38.9004 141.973 37.377 140.001 37.377C138.311 37.377 137.354 38.8418 137.354 40.4043V45.9023C137.354 45.9707 137.325 46 137.257 46H135.557C135.489 46 135.46 45.9707 135.46 45.9023ZM145.573 40.9414C145.573 37.8262 147.389 35.6777 150.329 35.6777C151.354 35.6777 152.584 36.2441 153.19 36.8008C153.239 36.8496 153.336 36.9082 153.385 36.7812L153.59 35.9805C153.62 35.9121 153.649 35.8828 153.688 35.8828H155.192C155.26 35.8828 155.289 35.9121 155.289 35.9805V45.6191C155.289 48.3145 153.366 50.1602 150.543 50.1602C148.092 50.1602 146.227 48.7832 146.071 47.1816C146.071 47.1133 146.1 47.084 146.168 47.084H147.907C147.946 47.084 147.975 47.1133 148.004 47.1816C148.151 47.6309 148.912 48.4609 150.543 48.4609C152.653 48.4609 153.385 47.0059 153.385 45.6191V45.082C153.385 45.0039 153.268 44.8965 153.19 45.043C152.965 45.3262 151.725 46.1953 150.329 46.1953C147.604 46.1953 145.573 44.0664 145.573 40.9414ZM147.467 40.9414C147.467 43.0215 148.61 44.4961 150.524 44.4961C152.35 44.4961 153.385 43.0215 153.385 40.9414C153.385 38.8711 152.35 37.377 150.524 37.377C148.61 37.377 147.467 38.8711 147.467 40.9414Z" fill="black"/>
</g>
<defs>
<filter id="filter0_iii_1920_4416" x="-20" y="-20" width="244" height="156" filterUnits="userSpaceOnUse" color-interpolation-filters="sRGB">
<feFlood flood-opacity="0" result="BackgroundImageFix"/>
<feBlend mode="normal" in="SourceGraphic" in2="BackgroundImageFix" result="shape"/>
<feColorMatrix in="SourceAlpha" type="matrix" values="0 0 0 0 0 0 0 0 0 0 0 0 0 0 0 0 0 0 127 0" result="hardAlpha"/>
<feOffset dy="1"/>
<feGaussianBlur stdDeviation="0.5"/>
<feComposite in2="hardAlpha" operator="arithmetic" k2="-1" k3="1"/>
<feColorMatrix type="matrix" values="0 0 0 0 0.580392 0 0 0 0 0.658824 0 0 0 0 0.929412 0 0 0 0.2 0"/>
<feBlend mode="normal" in2="shape" result="effect1_innerShadow_1920_4416"/>
<feColorMatrix in="SourceAlpha" type="matrix" values="0 0 0 0 0 0 0 0 0 0 0 0 0 0 0 0 0 0 127 0" result="hardAlpha"/>
<feOffset dy="-1"/>
<feGaussianBlur stdDeviation="0.5"/>
<feComposite in2="hardAlpha" operator="arithmetic" k2="-1" k3="1"/>
<feColorMatrix type="matrix" values="0 0 0 0 0.580392 0 0 0 0 0.658824 0 0 0 0 0.929412 0 0 0 0.2 0"/>
<feBlend mode="normal" in2="effect1_innerShadow_1920_4416" result="effect2_innerShadow_1920_4416"/>
<feColorMatrix in="SourceAlpha" type="matrix" values="0 0 0 0 0 0 0 0 0 0 0 0 0 0 0 0 0 0 127 0" result="hardAlpha"/>
<feOffset dx="6" dy="80"/>
<feGaussianBlur stdDeviation="40"/>
<feComposite in2="hardAlpha" operator="arithmetic" k2="-1" k3="1"/>
<feColorMatrix type="matrix" values="0 0 0 0 0.580392 0 0 0 0 0.658824 0 0 0 0 0.929412 0 0 0 0.02 0"/>
<feBlend mode="normal" in2="effect2_innerShadow_1920_4416" result="effect3_innerShadow_1920_4416"/>
</filter>
<filter id="filter1_iii_1920_4416" x="-16" y="-16" width="88" height="148" filterUnits="userSpaceOnUse" color-interpolation-filters="sRGB">
<feFlood flood-opacity="0" result="BackgroundImageFix"/>
<feBlend mode="normal" in="SourceGraphic" in2="BackgroundImageFix" result="shape"/>
<feColorMatrix in="SourceAlpha" type="matrix" values="0 0 0 0 0 0 0 0 0 0 0 0 0 0 0 0 0 0 127 0" result="hardAlpha"/>
<feOffset dy="1"/>
<feGaussianBlur stdDeviation="0.5"/>
<feComposite in2="hardAlpha" operator="arithmetic" k2="-1" k3="1"/>
<feColorMatrix type="matrix" values="0 0 0 0 0.580392 0 0 0 0 0.658824 0 0 0 0 0.929412 0 0 0 0.2 0"/>
<feBlend mode="normal" in2="shape" result="effect1_innerShadow_1920_4416"/>
<feColorMatrix in="SourceAlpha" type="matrix" values="0 0 0 0 0 0 0 0 0 0 0 0 0 0 0 0 0 0 127 0" result="hardAlpha"/>
<feOffset dy="-1"/>
<feGaussianBlur stdDeviation="0.5"/>
<feComposite in2="hardAlpha" operator="arithmetic" k2="-1" k3="1"/>
<feColorMatrix type="matrix" values="0 0 0 0 0.580392 0 0 0 0 0.658824 0 0 0 0 0.929412 0 0 0 0.2 0"/>
<feBlend mode="normal" in2="effect1_innerShadow_1920_4416" result="effect2_innerShadow_1920_4416"/>
<feColorMatrix in="SourceAlpha" type="matrix" values="0 0 0 0 0 0 0 0 0 0 0 0 0 0 0 0 0 0 127 0" result="hardAlpha"/>
<feOffset dx="6" dy="80"/>
<feGaussianBlur stdDeviation="40"/>
<feComposite in2="hardAlpha" operator="arithmetic" k2="-1" k3="1"/>
<feColorMatrix type="matrix" values="0 0 0 0 0.580392 0 0 0 0 0.658824 0 0 0 0 0.929412 0 0 0 0.02 0"/>
<feBlend mode="normal" in2="effect2_innerShadow_1920_4416" result="effect3_innerShadow_1920_4416"/>
</filter>
</defs>
</svg>
