<svg width="247" height="56" viewBox="0 0 247 56" fill="none" xmlns="http://www.w3.org/2000/svg">
<g filter="url(#filter0_iii_1920_4420)">
<rect width="247" height="56" rx="28" fill="#77A9E8" fill-opacity="0.04"/>
<g filter="url(#filter1_iii_1920_4420)">
<rect x="4" y="4" width="48" height="48" rx="24" fill="#77A9E8" fill-opacity="0.16"/>
<path d="M27 37C23.2503 37 21.3754 37 20.0611 36.0451C19.6366 35.7367 19.2633 35.3634 18.9549 34.9389C18 33.6246 18 31.7497 18 28C18 24.2503 18 22.3754 18.9549 21.0611C19.2633 20.6366 19.6366 20.2633 20.0611 19.9549C21.3754 19 23.2503 19 27 19L29 19C32.7497 19 34.6246 19 35.9389 19.9549C36.3634 20.2633 36.7367 20.6366 37.0451 21.0611C38 22.3754 38 24.2503 38 28C38 31.7497 38 33.6246 37.0451 34.9389C36.7367 35.3634 36.3634 35.7367 35.9389 36.0451C34.6246 37 32.7497 37 29 37H27Z" fill="#2A5FDD" fill-opacity="0.16"/>
<path d="M27.0004 37H29.0004C32.7501 37 34.625 37 35.9393 36.0451C36.3638 35.7367 36.7371 35.3634 37.0455 34.9389C37.7027 34.0343 37.9076 32.8642 37.9714 31H18.0293C18.0932 32.8642 18.298 34.0343 18.9553 34.9389C19.2637 35.3634 19.637 35.7367 20.0614 36.0451C21.3758 37 23.2506 37 27.0004 37H27.0004Z" fill="#2A5FDD" fill-opacity="0.16"/>
<path d="M27 37.5C23.2503 37.5 21.3754 37.5 20.0611 36.492C19.6366 36.1665 19.2633 35.7725 18.9549 35.3244C18 33.9371 18 31.9581 18 28C18 24.042 18 22.0629 18.9549 20.6756C19.2633 20.2275 19.6366 19.8335 20.0611 19.508C21.3754 18.5 23.2503 18.5 27 18.5L29 18.5C32.7497 18.5 34.6246 18.5 35.9389 19.508C36.3634 19.8335 36.7367 20.2275 37.0451 20.6756C38 22.0629 38 24.0419 38 28C38 31.9581 38 33.9371 37.0451 35.3244C36.7367 35.7725 36.3634 36.1665 35.9389 36.492C34.6246 37.5 32.7497 37.5 29 37.5H27Z" stroke="#2A5FDD" stroke-width="1.5"/>
<path d="M18.5 31H37.5" stroke="#2A5FDD" stroke-width="1.5" stroke-linecap="round" stroke-linejoin="round"/>
<path fill-rule="evenodd" clip-rule="evenodd" d="M23.009 34H23H23.009Z" fill="#2A5FDD" fill-opacity="0.16"/>
<path fill-rule="evenodd" clip-rule="evenodd" d="M27 34H26.991H27Z" fill="#2A5FDD" fill-opacity="0.16"/>
<path d="M23.009 34H23M27 34H26.991" stroke="#2A5FDD" stroke-width="2" stroke-linecap="round" stroke-linejoin="round"/>
<path d="M33 26.2C32.5447 26.2 32.0655 26.2282 31.6569 25.9771C31.5011 25.8814 31.3977 25.7491 31.191 25.4845L29.25 23L26.75 27L24.9434 25.2656C24.6872 25.0197 24.4375 24.7704 24.0985 24.6718C23.8519 24.6 23.5679 24.6 23 24.6" stroke="#2A5FDD" stroke-width="1.5" stroke-linecap="round" stroke-linejoin="round"/>
</g>
<path d="M65.2598 33.9023V20.0156C65.2598 19.9473 65.2891 19.918 65.3574 19.918H74.9766C75.0449 19.918 75.0742 19.9473 75.084 20.0156V21.5195C75.084 21.5879 75.0449 21.6172 74.9766 21.6172H67.2617C67.1934 21.6172 67.1641 21.6562 67.1641 21.7246V25.7969C67.1641 25.8652 67.1934 25.8945 67.2617 25.9043H74.1562C74.2246 25.9043 74.2539 25.9336 74.2637 26.002V27.4961C74.2637 27.5645 74.2246 27.5938 74.1562 27.6035H67.2617C67.1934 27.6035 67.1641 27.6328 67.1641 27.7012V32.2031C67.1641 32.2715 67.1934 32.3008 67.2617 32.3008H74.9766C75.0449 32.3008 75.0742 32.3301 75.084 32.3984V33.9023C75.084 33.9707 75.0449 34 74.9766 34H65.3574C65.2891 34 65.2598 33.9707 65.2598 33.9023ZM77.0035 33.9023V20.0156C77.0035 19.9473 77.0426 19.918 77.1109 19.918H78.8102C78.8785 19.918 78.9078 19.9473 78.9078 20.0156V33.9023C78.9078 33.9707 78.8785 34 78.8102 34H77.1109C77.0426 34 77.0133 33.9707 77.0035 33.9023ZM80.3 28.9414C80.3 25.7871 82.0383 23.6777 85.1535 23.6777C88.259 23.6777 90.0363 25.8262 90.0363 28.9414C90.0363 29.166 90.0168 29.3613 89.9777 29.5176C89.9484 29.5859 89.9191 29.6152 89.8801 29.6152H82.4191C82.3508 29.6152 82.3215 29.6543 82.3117 29.7227C82.3117 31.1777 83.3859 32.4961 85.1535 32.4961C85.8762 32.4961 86.423 32.3594 86.8039 32.0957C87.1848 31.832 87.4875 31.5 87.6926 31.0996C87.7219 31.0312 87.7707 31.002 87.8391 31.002H89.6164C89.6945 31.002 89.7238 31.0312 89.7141 31.0996C89.4504 32.0859 88.9035 32.8574 88.0832 33.3945C87.2629 33.9316 86.2863 34.1953 85.1535 34.1953C82.1555 34.1953 80.3 32.0664 80.3 28.9414ZM82.3117 28.0234C82.3117 28.0918 82.3508 28.1211 82.4191 28.1211H87.8586C87.927 28.1211 87.9563 28.0918 87.9563 28.0234C87.9563 26.8809 87.1359 25.377 85.1535 25.377C83.2199 25.377 82.3117 27.0859 82.3117 28.0234ZM90.6961 28.9414C90.6961 25.7871 92.4832 23.6777 95.6277 23.6777C96.907 23.668 97.9617 23.9805 98.7723 24.6055C99.8563 25.4355 100.393 26.3047 100.393 27.2324C100.393 27.2812 100.364 27.3008 100.296 27.3008H98.5086C98.4598 27.3008 98.4207 27.2715 98.3914 27.2031C97.9324 25.9922 97.0145 25.3867 95.6277 25.377C93.7332 25.377 92.5906 26.8711 92.5906 28.9414C92.5906 31.0215 93.7332 32.4961 95.6277 32.4961C97.0145 32.4961 97.9324 31.8906 98.3914 30.6797C98.4207 30.6113 98.4598 30.582 98.5086 30.582H100.296C100.364 30.582 100.393 30.6016 100.393 30.6504C100.393 31.5781 99.8465 32.4473 98.7625 33.2773C97.952 33.8926 96.907 34.1953 95.6277 34.1953C92.4734 34.1953 90.6961 32.0664 90.6961 28.9414ZM100.555 25.2793V23.9805C100.555 23.9121 100.584 23.8828 100.653 23.8828H102.43C102.498 23.8828 102.528 23.8438 102.528 23.7754V21.0801C102.528 21.0117 102.567 20.9824 102.635 20.9824H104.334C104.403 20.9824 104.432 21.0117 104.432 21.0801V23.7754C104.432 23.8438 104.461 23.873 104.53 23.8828H106.688C106.756 23.8828 106.786 23.9121 106.795 23.9805V25.2793C106.795 25.3477 106.756 25.377 106.688 25.377H104.53C104.461 25.377 104.432 25.416 104.432 25.4844V31.3047C104.432 31.9199 104.705 32.3008 105.516 32.3008H106.688C106.756 32.3008 106.786 32.3301 106.795 32.3984V33.9023C106.795 33.9707 106.756 34 106.688 34H105.155H104.998C104.237 34 103.641 33.8145 103.211 33.4531C102.752 33.0625 102.528 32.457 102.528 31.6367V25.4844C102.528 25.416 102.498 25.3867 102.43 25.377H100.653C100.584 25.377 100.555 25.3477 100.555 25.2793ZM108.041 33.9023V23.9805C108.041 23.9121 108.07 23.8828 108.139 23.8828H109.643C109.682 23.8828 109.711 23.9121 109.74 23.9805L109.945 24.8789C109.994 25.0059 110.111 24.9473 110.16 24.8984C110.854 24.2051 111.566 23.6777 112.582 23.6777H113.598C113.666 23.6777 113.695 23.707 113.705 23.7754V25.2793C113.705 25.3477 113.666 25.377 113.598 25.377H112.582C110.883 25.377 109.945 26.8418 109.945 28.4043V33.9023C109.945 33.9707 109.906 34 109.838 34H108.139C108.07 34 108.041 33.9707 108.041 33.9023ZM113.818 28.9414C113.818 25.7871 115.625 23.6777 118.769 23.6777C121.904 23.6777 123.73 25.8262 123.73 28.9414C123.73 32.0664 121.904 34.1953 118.769 34.1953C115.625 34.1953 113.818 32.0664 113.818 28.9414ZM115.713 28.9414C115.713 31.0215 116.884 32.4961 118.769 32.4961C120.693 32.4961 121.836 31.0215 121.836 28.9414C121.836 26.8711 120.693 25.377 118.769 25.377C116.875 25.377 115.713 26.8711 115.713 28.9414ZM124.566 28.9414C124.566 25.7871 126.353 23.6777 129.497 23.6777C130.777 23.668 131.831 23.9805 132.642 24.6055C133.726 25.4355 134.263 26.3047 134.263 27.2324C134.263 27.2812 134.234 27.3008 134.165 27.3008H132.378C132.329 27.3008 132.29 27.2715 132.261 27.2031C131.802 25.9922 130.884 25.3867 129.497 25.377C127.603 25.377 126.46 26.8711 126.46 28.9414C126.46 31.0215 127.603 32.4961 129.497 32.4961C130.884 32.4961 131.802 31.8906 132.261 30.6797C132.29 30.6113 132.329 30.582 132.378 30.582H134.165C134.234 30.582 134.263 30.6016 134.263 30.6504C134.263 31.5781 133.716 32.4473 132.632 33.2773C131.821 33.8926 130.777 34.1953 129.497 34.1953C126.343 34.1953 124.566 32.0664 124.566 28.9414ZM134.864 31.002C134.864 29.2637 136.309 27.9648 139.259 27.9648H141.505C141.837 27.9648 142.032 27.9062 142.081 27.7988C142.13 27.6816 142.159 27.5254 142.159 27.3398C142.159 26.5195 141.964 25.377 139.581 25.377C138.712 25.377 138.087 25.5527 137.706 25.9141C137.325 26.2656 137.139 26.6953 137.139 27.2031C137.139 27.2715 137.11 27.3008 137.042 27.3008H135.323C135.255 27.3008 135.225 27.2715 135.225 27.2031C135.225 24.8496 137.315 23.6777 139.581 23.6777C140.968 23.6777 142.061 23.9902 142.862 24.6152C143.663 25.2305 144.063 26.1582 144.063 27.3789V33.9023C144.063 33.9707 144.034 34 143.966 34H142.462C142.423 34 142.393 33.9707 142.364 33.9023L142.159 33.082C142.13 32.9746 142.052 32.9746 142.003 33.0234C141.514 33.5117 140.177 34.1953 138.878 34.1953C137.53 34.1953 136.524 33.9023 135.86 33.3164C135.196 32.7305 134.864 31.959 134.864 31.002ZM136.759 31.002C136.759 31.7344 137.276 32.4961 138.858 32.4961C141.3 32.4961 142.11 31.0605 142.159 29.8398V29.5566C142.159 29.4883 142.13 29.459 142.061 29.459H139.259C137.13 29.5664 136.759 30.3086 136.759 31.002ZM145.758 33.9023V23.9805C145.758 23.9121 145.787 23.8828 145.856 23.8828H147.36C147.399 23.8828 147.428 23.9121 147.457 23.9805L147.662 24.8789C147.711 25.0059 147.829 24.9473 147.877 24.8984C148.571 24.2051 149.284 23.6777 150.299 23.6777H151.315C151.383 23.6777 151.412 23.707 151.422 23.7754V25.2793C151.422 25.3477 151.383 25.377 151.315 25.377H150.299C148.6 25.377 147.662 26.8418 147.662 28.4043V33.9023C147.662 33.9707 147.623 34 147.555 34H145.856C145.787 34 145.758 33.9707 145.758 33.9023ZM151.535 28.9414C151.535 25.8262 153.352 23.6777 156.291 23.6777C157.697 23.6777 158.889 24.5566 159.152 24.8203C159.26 24.9473 159.348 24.8594 159.348 24.7812V20.0156C159.348 19.9473 159.387 19.918 159.455 19.918H161.154C161.223 19.918 161.252 19.9473 161.252 20.0156V33.9023C161.252 33.9707 161.223 34 161.154 34H159.65C159.611 34 159.582 33.9707 159.553 33.9023L159.348 33.082C159.299 32.9551 159.201 33.0137 159.152 33.0625C158.654 33.6387 157.287 34.1953 156.291 34.1953C153.352 34.1953 151.535 32.0664 151.535 28.9414ZM153.43 28.9414C153.43 31.0215 154.572 32.4961 156.486 32.4961C158.312 32.4961 159.348 31.0215 159.348 28.9414C159.348 26.8711 158.312 25.377 156.486 25.377C154.572 25.377 153.43 26.8711 153.43 28.9414ZM163.171 22.1152V20.0156C163.171 19.9473 163.201 19.918 163.269 19.918H165.369C165.437 19.918 165.466 19.9473 165.466 20.0156V22.1152C165.466 22.1836 165.437 22.2129 165.369 22.2227H163.269C163.201 22.2227 163.171 22.1836 163.171 22.1152ZM163.367 33.9023V23.9805C163.367 23.9121 163.396 23.8828 163.464 23.8828H165.164C165.232 23.8828 165.261 23.9121 165.271 23.9805V33.9023C165.271 33.9707 165.232 34 165.164 34H163.464C163.396 34 163.367 33.9707 163.367 33.9023ZM166.702 28.9414C166.702 25.7871 168.509 23.6777 171.654 23.6777C174.788 23.6777 176.614 25.8262 176.614 28.9414C176.614 32.0664 174.788 34.1953 171.654 34.1953C168.509 34.1953 166.702 32.0664 166.702 28.9414ZM168.597 28.9414C168.597 31.0215 169.769 32.4961 171.654 32.4961C173.577 32.4961 174.72 31.0215 174.72 28.9414C174.72 26.8711 173.577 25.377 171.654 25.377C169.759 25.377 168.597 26.8711 168.597 28.9414ZM177.43 28.9414C177.43 25.8262 179.247 23.6777 182.186 23.6777C183.212 23.6777 184.442 24.2441 185.048 24.8008C185.096 24.8496 185.194 24.9082 185.243 24.7812L185.448 23.9805C185.477 23.9121 185.507 23.8828 185.546 23.8828H187.05C187.118 23.8828 187.147 23.9121 187.147 23.9805V33.6191C187.147 36.3145 185.223 38.1602 182.401 38.1602C179.95 38.1602 178.085 36.7832 177.929 35.1816C177.929 35.1133 177.958 35.084 178.026 35.084H179.764C179.804 35.084 179.833 35.1133 179.862 35.1816C180.009 35.6309 180.77 36.4609 182.401 36.4609C184.511 36.4609 185.243 35.0059 185.243 33.6191V33.082C185.243 33.0039 185.126 32.8965 185.048 33.043C184.823 33.3262 183.583 34.1953 182.186 34.1953C179.462 34.1953 177.43 32.0664 177.43 28.9414ZM179.325 28.9414C179.325 31.0215 180.468 32.4961 182.382 32.4961C184.208 32.4961 185.243 31.0215 185.243 28.9414C185.243 26.8711 184.208 25.377 182.382 25.377C180.468 25.377 179.325 26.8711 179.325 28.9414ZM188.813 33.9023V23.9805C188.813 23.9121 188.842 23.8828 188.911 23.8828H190.414C190.454 23.8828 190.483 23.9121 190.512 23.9805L190.717 24.8789C190.766 25.0059 190.883 24.9473 190.932 24.8984C191.625 24.2051 192.338 23.6777 193.354 23.6777H194.37C194.438 23.6777 194.467 23.707 194.477 23.7754V25.2793C194.477 25.3477 194.438 25.377 194.37 25.377H193.354C191.655 25.377 190.717 26.8418 190.717 28.4043V33.9023C190.717 33.9707 190.678 34 190.61 34H188.911C188.842 34 188.813 33.9707 188.813 33.9023ZM195.156 31.002C195.156 29.2637 196.602 27.9648 199.551 27.9648H201.797C202.129 27.9648 202.324 27.9062 202.373 27.7988C202.422 27.6816 202.451 27.5254 202.451 27.3398C202.451 26.5195 202.256 25.377 199.873 25.377C199.004 25.377 198.379 25.5527 197.998 25.9141C197.617 26.2656 197.432 26.6953 197.432 27.2031C197.432 27.2715 197.402 27.3008 197.334 27.3008H195.615C195.547 27.3008 195.518 27.2715 195.518 27.2031C195.518 24.8496 197.607 23.6777 199.873 23.6777C201.26 23.6777 202.354 23.9902 203.154 24.6152C203.955 25.2305 204.355 26.1582 204.355 27.3789V33.9023C204.355 33.9707 204.326 34 204.258 34H202.754C202.715 34 202.686 33.9707 202.656 33.9023L202.451 33.082C202.422 32.9746 202.344 32.9746 202.295 33.0234C201.807 33.5117 200.469 34.1953 199.17 34.1953C197.822 34.1953 196.816 33.9023 196.152 33.3164C195.488 32.7305 195.156 31.959 195.156 31.002ZM197.051 31.002C197.051 31.7344 197.568 32.4961 199.15 32.4961C201.592 32.4961 202.402 31.0605 202.451 29.8398V29.5566C202.451 29.4883 202.422 29.459 202.354 29.459H199.551C197.422 29.5664 197.051 30.3086 197.051 31.002ZM206.05 33.9023V23.9805C206.05 23.9121 206.08 23.8828 206.148 23.8828H207.652C207.691 23.8828 207.72 23.9121 207.75 23.9805L207.955 24.8789C208.004 25.0059 208.14 24.957 208.189 24.8789C208.57 24.166 209.39 23.6777 210.367 23.6777C211.783 23.6777 212.935 24.1758 213.472 25.084C213.55 25.2012 213.629 25.2012 213.707 25.084C214.263 24.1953 215.211 23.6777 216.734 23.6777C219.351 23.6777 220.67 25.3867 220.67 28.4043V33.9023C220.67 33.9707 220.64 34 220.572 34H218.873C218.804 34 218.775 33.9707 218.775 33.9023V28.4043C218.775 26.9004 218.502 25.377 216.529 25.377C214.634 25.377 214.312 26.8418 214.312 28.4043V33.9023C214.312 33.9316 214.302 33.9512 214.273 33.9805C214.263 33.9902 214.244 34 214.214 34H212.515H212.486C212.447 34 212.427 33.9902 212.427 33.9609C212.418 33.9512 212.408 33.9316 212.408 33.9023V28.4043C212.408 26.8516 212.095 25.377 210.171 25.377C208.472 25.377 207.955 26.8418 207.955 28.4043V33.9023C207.955 33.9707 207.916 34 207.847 34H206.148C206.08 34 206.05 33.9707 206.05 33.9023Z" fill="black"/>
</g>
<defs>
<filter id="filter0_iii_1920_4420" x="-20" y="-20" width="287" height="156" filterUnits="userSpaceOnUse" color-interpolation-filters="sRGB">
<feFlood flood-opacity="0" result="BackgroundImageFix"/>
<feBlend mode="normal" in="SourceGraphic" in2="BackgroundImageFix" result="shape"/>
<feColorMatrix in="SourceAlpha" type="matrix" values="0 0 0 0 0 0 0 0 0 0 0 0 0 0 0 0 0 0 127 0" result="hardAlpha"/>
<feOffset dy="1"/>
<feGaussianBlur stdDeviation="0.5"/>
<feComposite in2="hardAlpha" operator="arithmetic" k2="-1" k3="1"/>
<feColorMatrix type="matrix" values="0 0 0 0 0.580392 0 0 0 0 0.658824 0 0 0 0 0.929412 0 0 0 0.2 0"/>
<feBlend mode="normal" in2="shape" result="effect1_innerShadow_1920_4420"/>
<feColorMatrix in="SourceAlpha" type="matrix" values="0 0 0 0 0 0 0 0 0 0 0 0 0 0 0 0 0 0 127 0" result="hardAlpha"/>
<feOffset dy="-1"/>
<feGaussianBlur stdDeviation="0.5"/>
<feComposite in2="hardAlpha" operator="arithmetic" k2="-1" k3="1"/>
<feColorMatrix type="matrix" values="0 0 0 0 0.580392 0 0 0 0 0.658824 0 0 0 0 0.929412 0 0 0 0.2 0"/>
<feBlend mode="normal" in2="effect1_innerShadow_1920_4420" result="effect2_innerShadow_1920_4420"/>
<feColorMatrix in="SourceAlpha" type="matrix" values="0 0 0 0 0 0 0 0 0 0 0 0 0 0 0 0 0 0 127 0" result="hardAlpha"/>
<feOffset dx="6" dy="80"/>
<feGaussianBlur stdDeviation="40"/>
<feComposite in2="hardAlpha" operator="arithmetic" k2="-1" k3="1"/>
<feColorMatrix type="matrix" values="0 0 0 0 0.580392 0 0 0 0 0.658824 0 0 0 0 0.929412 0 0 0 0.02 0"/>
<feBlend mode="normal" in2="effect2_innerShadow_1920_4420" result="effect3_innerShadow_1920_4420"/>
</filter>
<filter id="filter1_iii_1920_4420" x="-16" y="-16" width="88" height="148" filterUnits="userSpaceOnUse" color-interpolation-filters="sRGB">
<feFlood flood-opacity="0" result="BackgroundImageFix"/>
<feBlend mode="normal" in="SourceGraphic" in2="BackgroundImageFix" result="shape"/>
<feColorMatrix in="SourceAlpha" type="matrix" values="0 0 0 0 0 0 0 0 0 0 0 0 0 0 0 0 0 0 127 0" result="hardAlpha"/>
<feOffset dy="1"/>
<feGaussianBlur stdDeviation="0.5"/>
<feComposite in2="hardAlpha" operator="arithmetic" k2="-1" k3="1"/>
<feColorMatrix type="matrix" values="0 0 0 0 0.580392 0 0 0 0 0.658824 0 0 0 0 0.929412 0 0 0 0.2 0"/>
<feBlend mode="normal" in2="shape" result="effect1_innerShadow_1920_4420"/>
<feColorMatrix in="SourceAlpha" type="matrix" values="0 0 0 0 0 0 0 0 0 0 0 0 0 0 0 0 0 0 127 0" result="hardAlpha"/>
<feOffset dy="-1"/>
<feGaussianBlur stdDeviation="0.5"/>
<feComposite in2="hardAlpha" operator="arithmetic" k2="-1" k3="1"/>
<feColorMatrix type="matrix" values="0 0 0 0 0.580392 0 0 0 0 0.658824 0 0 0 0 0.929412 0 0 0 0.2 0"/>
<feBlend mode="normal" in2="effect1_innerShadow_1920_4420" result="effect2_innerShadow_1920_4420"/>
<feColorMatrix in="SourceAlpha" type="matrix" values="0 0 0 0 0 0 0 0 0 0 0 0 0 0 0 0 0 0 127 0" result="hardAlpha"/>
<feOffset dx="6" dy="80"/>
<feGaussianBlur stdDeviation="40"/>
<feComposite in2="hardAlpha" operator="arithmetic" k2="-1" k3="1"/>
<feColorMatrix type="matrix" values="0 0 0 0 0.580392 0 0 0 0 0.658824 0 0 0 0 0.929412 0 0 0 0.02 0"/>
<feBlend mode="normal" in2="effect2_innerShadow_1920_4420" result="effect3_innerShadow_1920_4420"/>
</filter>
</defs>
</svg>
