<svg width="218" height="56" viewBox="0 0 218 56" fill="none" xmlns="http://www.w3.org/2000/svg">
<g filter="url(#filter0_iii_1920_4424)">
<rect width="218" height="56" rx="28" fill="#77A9E8" fill-opacity="0.04"/>
<g filter="url(#filter1_iii_1920_4424)">
<rect x="4" y="4" width="48" height="48" rx="24" fill="#77A9E8" fill-opacity="0.16"/>
<path d="M26.8889 18C31.7981 18 35.7778 21.9787 35.7778 26.8866V26.8867C35.7778 27.4664 35.7778 27.7562 35.802 27.9187C35.8598 28.3072 36.0411 28.6414 36.2194 28.9873L38 32.4407L36.6006 33.1402C36.195 33.3429 35.9923 33.4443 35.851 33.6314C35.7097 33.8184 35.67 34.0296 35.5904 34.4519L35.5904 34.4519L35.5826 34.4931C35.4004 35.4606 35.1993 36.5286 34.6329 37.2024C34.4329 37.4403 34.1853 37.6336 33.9059 37.7699C33.4447 37.9948 32.8777 37.9948 31.7437 37.9948C31.219 37.9948 30.6928 38.0069 30.1682 37.9942L24 37.9948H20.2222V34.4451C20.2222 33.1737 19.8893 32.5128 19.2348 31.4078C18.4503 30.0833 18 28.5375 18 26.8866C18 21.9787 21.9797 18 26.8889 18Z" fill="#2A5FDD" fill-opacity="0.16"/>
<path d="M20.2222 37.9948V34.4451C20.2222 33.1737 19.8893 32.5128 19.2348 31.4078C18.4503 30.0833 18 28.5375 18 26.8866C18 21.9787 21.9797 18 26.8889 18C31.7981 18 35.7778 21.9787 35.7778 26.8866C35.7778 27.4663 35.7778 27.7562 35.802 27.9187C35.8598 28.3072 36.0411 28.6414 36.2194 28.9873L38 32.4407L36.6006 33.1402C36.195 33.3429 35.9923 33.4443 35.851 33.6314C35.7097 33.8184 35.67 34.0296 35.5904 34.4519L35.5826 34.4931C35.4004 35.4606 35.1993 36.5286 34.6329 37.2024C34.4329 37.4403 34.1853 37.6336 33.9059 37.7699C33.4447 37.9948 32.8777 37.9948 31.7437 37.9948C31.219 37.9948 30.6928 38.0069 30.1682 37.9942C28.9247 37.9639 28 36.9184 28 35.7044" stroke="#2A5FDD" stroke-width="1.5" stroke-linecap="round" stroke-linejoin="round"/>
<path d="M29.8312 23.2762C30.0053 23.214 30.1927 23.1802 30.388 23.1802C32.5373 23.1802 32.5373 26.5315 30.388 26.5315C30.388 27.6774 29.7241 28.7658 28.4461 28.7658C27.1681 28.7658 26.5043 29.8541 26.5043 31C25.3077 30.6 24.3244 28.8692 23.9823 28.0538C23.6811 28.4844 23.1834 28.7658 22.6205 28.7658C20.613 28.7658 20.4023 25.7283 22.3732 25.4328C21.1988 23.4331 23.6674 21.1903 25.5192 22.4402C26.3349 20.1 29.9362 20.7782 29.8312 23.2762Z" fill="#2A5FDD" fill-opacity="0.16"/>
<path d="M30.388 26.5315C29.9617 26.5315 29.5729 26.3702 29.2784 26.1048M30.388 26.5315C30.388 27.6774 29.7241 28.7658 28.4461 28.7658C27.1681 28.7658 26.5043 29.8541 26.5043 31M30.388 26.5315C32.5373 26.5315 32.5373 23.1802 30.388 23.1802C30.1927 23.1802 30.0053 23.214 29.8312 23.2762C29.9362 20.7782 26.3349 20.1 25.5192 22.4402M26.5043 24.2973C26.5043 23.5232 26.1133 22.8411 25.5192 22.4402M25.5192 22.4402C23.6674 21.1903 21.1988 23.4331 22.3732 25.4328C20.4023 25.7283 20.613 28.7658 22.6205 28.7658C23.1834 28.7658 23.6811 28.4844 23.9823 28.0538" stroke="#2A5FDD" stroke-width="1.5" stroke-linecap="round" stroke-linejoin="round"/>
</g>
<path d="M64.6836 30.1426C64.6836 30.0742 64.7129 30.0449 64.7812 30.0352H66.5586C66.6367 30.0352 66.6758 30.0742 66.6758 30.1621C66.6758 31.1777 67.7598 32.4961 70.0156 32.4961C72.1543 32.4961 73.3555 31.3633 73.3555 30.0352C73.3555 28.2578 71.7637 27.8574 70.0156 27.7012C68.8926 27.5938 67.6328 27.3691 66.627 26.793C65.6406 26.2168 64.918 25.2891 64.918 23.7363C64.918 21.168 67.3789 19.7227 69.8008 19.7227C72.3105 19.7227 74.7129 21.0312 74.8203 23.7754C74.8203 23.8438 74.791 23.873 74.7227 23.8828H72.916C72.8477 23.873 72.8184 23.8438 72.8184 23.7754C72.8184 22.4473 71.5781 21.4219 69.8008 21.4219C68.2188 21.4219 66.9199 22.3887 66.9199 23.7363C66.9199 25.377 68.6387 25.6406 70.0156 25.7969C70.6699 25.875 71.3145 25.9824 71.9492 26.1289C72.5938 26.2754 73.1699 26.4902 73.668 26.793C74.6738 27.3887 75.3574 28.3945 75.3574 30.0352C75.3574 32.0566 73.9023 34.1953 70.0156 34.1953C66.5488 34.1953 64.6836 32.3105 64.6836 30.1426ZM75.0895 25.2793V23.9805C75.0895 23.9121 75.1187 23.8828 75.1871 23.8828H76.9645C77.0328 23.8828 77.0621 23.8438 77.0621 23.7754V21.0801C77.0621 21.0117 77.1012 20.9824 77.1695 20.9824H78.8687C78.9371 20.9824 78.9664 21.0117 78.9664 21.0801V23.7754C78.9664 23.8438 78.9957 23.873 79.0641 23.8828H81.2223C81.2906 23.8828 81.3199 23.9121 81.3297 23.9805V25.2793C81.3297 25.3477 81.2906 25.377 81.2223 25.377H79.0641C78.9957 25.377 78.9664 25.416 78.9664 25.4844V31.3047C78.9664 31.9199 79.2398 32.3008 80.0504 32.3008H81.2223C81.2906 32.3008 81.3199 32.3301 81.3297 32.3984V33.9023C81.3297 33.9707 81.2906 34 81.2223 34H79.6891H79.5328C78.7711 34 78.1754 33.8145 77.7457 33.4531C77.2867 33.0625 77.0621 32.457 77.0621 31.6367V25.4844C77.0621 25.416 77.0328 25.3867 76.9645 25.377H75.1871C75.1187 25.377 75.0895 25.3477 75.0895 25.2793ZM82.5754 33.9023V23.9805C82.5754 23.9121 82.6047 23.8828 82.673 23.8828H84.177C84.216 23.8828 84.2453 23.9121 84.2746 23.9805L84.4797 24.8789C84.5285 25.0059 84.6457 24.9473 84.6945 24.8984C85.3879 24.2051 86.1008 23.6777 87.1164 23.6777H88.132C88.2004 23.6777 88.2297 23.707 88.2395 23.7754V25.2793C88.2395 25.3477 88.2004 25.377 88.132 25.377H87.1164C85.4172 25.377 84.4797 26.8418 84.4797 28.4043V33.9023C84.4797 33.9707 84.4406 34 84.3723 34H82.673C82.6047 34 82.5754 33.9707 82.5754 33.9023ZM88.3328 28.9414C88.3328 25.7871 90.0711 23.6777 93.1863 23.6777C96.2918 23.6777 98.0691 25.8262 98.0691 28.9414C98.0691 29.166 98.0496 29.3613 98.0105 29.5176C97.9813 29.5859 97.952 29.6152 97.9129 29.6152H90.452C90.3836 29.6152 90.3543 29.6543 90.3445 29.7227C90.3445 31.1777 91.4188 32.4961 93.1863 32.4961C93.909 32.4961 94.4559 32.3594 94.8367 32.0957C95.2176 31.832 95.5203 31.5 95.7254 31.0996C95.7547 31.0312 95.8035 31.002 95.8719 31.002H97.6492C97.7273 31.002 97.7566 31.0312 97.7469 31.0996C97.4832 32.0859 96.9363 32.8574 96.116 33.3945C95.2957 33.9316 94.3191 34.1953 93.1863 34.1953C90.1883 34.1953 88.3328 32.0664 88.3328 28.9414ZM90.3445 28.0234C90.3445 28.0918 90.3836 28.1211 90.452 28.1211H95.8914C95.9598 28.1211 95.9891 28.0918 95.9891 28.0234C95.9891 26.8809 95.1688 25.377 93.1863 25.377C91.2527 25.377 90.3445 27.0859 90.3445 28.0234ZM98.8656 30.6797C98.8656 30.6113 98.8949 30.582 98.9633 30.582H100.643C100.721 30.582 100.76 30.6113 100.76 30.6797C100.76 31.1875 100.995 31.6172 101.473 31.9688C101.952 32.3203 102.586 32.4961 103.387 32.4961C104.403 32.4961 105.887 32.2715 105.887 30.9824C105.887 29.8398 104.237 29.7715 103.387 29.6641C102.42 29.5566 101.336 29.4297 100.487 29.0098C100.067 28.8047 99.725 28.5117 99.4516 28.1504C99.1781 27.7891 99.0414 27.291 99.0414 26.6562C99.0414 25.0254 100.623 23.6777 103.104 23.6777C105.545 23.6777 107.508 24.8496 107.508 27.2031C107.508 27.2715 107.479 27.3008 107.42 27.3008H105.702C105.633 27.3008 105.604 27.2715 105.604 27.2031C105.604 26.0801 104.735 25.377 103.104 25.377C102.342 25.377 101.795 25.5137 101.454 25.7871C101.112 26.0605 100.946 26.3535 100.946 26.6562C100.946 27.8184 102.371 27.7793 103.387 27.9648C104.373 28.0918 105.496 28.1992 106.327 28.5996C106.746 28.8047 107.098 29.0879 107.371 29.459C107.645 29.8301 107.782 30.3379 107.782 30.9824C107.782 33.2871 105.877 34.1953 103.387 34.1953C100.34 34.1953 98.8656 32.6035 98.8656 30.6797ZM108.617 30.6797C108.617 30.6113 108.646 30.582 108.715 30.582H110.395C110.473 30.582 110.512 30.6113 110.512 30.6797C110.512 31.1875 110.746 31.6172 111.225 31.9688C111.703 32.3203 112.338 32.4961 113.139 32.4961C114.154 32.4961 115.639 32.2715 115.639 30.9824C115.639 29.8398 113.988 29.7715 113.139 29.6641C112.172 29.5566 111.088 29.4297 110.238 29.0098C109.818 28.8047 109.477 28.5117 109.203 28.1504C108.93 27.7891 108.793 27.291 108.793 26.6562C108.793 25.0254 110.375 23.6777 112.855 23.6777C115.297 23.6777 117.26 24.8496 117.26 27.2031C117.26 27.2715 117.23 27.3008 117.172 27.3008H115.453C115.385 27.3008 115.355 27.2715 115.355 27.2031C115.355 26.0801 114.486 25.377 112.855 25.377C112.094 25.377 111.547 25.5137 111.205 25.7871C110.863 26.0605 110.697 26.3535 110.697 26.6562C110.697 27.8184 112.123 27.7793 113.139 27.9648C114.125 28.0918 115.248 28.1992 116.078 28.5996C116.498 28.8047 116.85 29.0879 117.123 29.459C117.396 29.8301 117.533 30.3379 117.533 30.9824C117.533 33.2871 115.629 34.1953 113.139 34.1953C110.092 34.1953 108.617 32.6035 108.617 30.6797ZM121.968 33.9023L126.685 20.0156C126.714 19.9473 126.753 19.918 126.802 19.918H129.263C129.312 19.918 129.361 19.9473 129.39 20.0156L134.048 33.9023C134.058 33.9121 134.058 33.9316 134.058 33.9414C134.058 33.9805 134.019 34 133.95 34H132.066C132.027 34 131.997 33.9707 131.968 33.9023L131.05 31.041C131.04 30.9727 130.991 30.9434 130.904 30.9434H125.103C125.054 30.9434 125.015 30.9727 124.986 31.041L124.048 33.9023C124.019 33.9707 123.989 34 123.95 34H122.085C121.997 34 121.958 33.9707 121.968 33.9023ZM127.925 21.9199L125.571 29.2441C125.562 29.2539 125.562 29.2734 125.562 29.2832C125.562 29.3223 125.591 29.3418 125.65 29.3418H130.386C130.445 29.3418 130.474 29.3223 130.474 29.2832C130.474 29.2734 130.474 29.2539 130.464 29.2441L128.13 21.9199C128.081 21.793 127.974 21.793 127.925 21.9199ZM135.421 33.9023V23.9805C135.421 23.9121 135.45 23.8828 135.518 23.8828H137.022C137.061 23.8828 137.091 23.9121 137.12 23.9805L137.315 24.8789C137.364 25.0059 137.491 24.9473 137.54 24.8984C137.755 24.6055 138.077 24.332 138.497 24.0684C138.927 23.8047 139.483 23.6777 140.157 23.6777C143.057 23.6777 144.522 25.7871 144.522 28.4043V33.9023C144.522 33.9707 144.483 34 144.415 34H142.716C142.647 34 142.618 33.9707 142.618 33.9023V28.4043C142.618 26.9004 141.934 25.377 139.962 25.377C138.272 25.377 137.315 26.8418 137.315 28.4043V33.9023C137.315 33.9707 137.286 34 137.218 34H135.518C135.45 34 135.421 33.9707 135.421 33.9023ZM145.612 31.002C145.612 29.2637 147.057 27.9648 150.006 27.9648H152.252C152.584 27.9648 152.78 27.9062 152.829 27.7988C152.877 27.6816 152.907 27.5254 152.907 27.3398C152.907 26.5195 152.711 25.377 150.329 25.377C149.459 25.377 148.834 25.5527 148.454 25.9141C148.073 26.2656 147.887 26.6953 147.887 27.2031C147.887 27.2715 147.858 27.3008 147.789 27.3008H146.071C146.002 27.3008 145.973 27.2715 145.973 27.2031C145.973 24.8496 148.063 23.6777 150.329 23.6777C151.715 23.6777 152.809 23.9902 153.61 24.6152C154.411 25.2305 154.811 26.1582 154.811 27.3789V33.9023C154.811 33.9707 154.782 34 154.713 34H153.209C153.17 34 153.141 33.9707 153.112 33.9023L152.907 33.082C152.877 32.9746 152.799 32.9746 152.75 33.0234C152.262 33.5117 150.924 34.1953 149.625 34.1953C148.278 34.1953 147.272 33.9023 146.608 33.3164C145.944 32.7305 145.612 31.959 145.612 31.002ZM147.506 31.002C147.506 31.7344 148.024 32.4961 149.606 32.4961C152.047 32.4961 152.858 31.0605 152.907 29.8398V29.5566C152.907 29.4883 152.877 29.459 152.809 29.459H150.006C147.877 29.5664 147.506 30.3086 147.506 31.002ZM156.604 33.9023V20.0156C156.604 19.9473 156.643 19.918 156.711 19.918H158.41C158.479 19.918 158.508 19.9473 158.508 20.0156V33.9023C158.508 33.9707 158.479 34 158.41 34H156.711C156.643 34 156.613 33.9707 156.604 33.9023ZM163.552 33.9023L160.173 23.9805C160.164 23.9121 160.203 23.8828 160.291 23.8828H162.107C162.146 23.8828 162.185 23.9121 162.214 23.9805L164.832 32.0176C164.88 32.125 164.978 32.125 165.027 32.0176L167.673 23.9805C167.703 23.9121 167.732 23.8828 167.771 23.8828H169.588C169.666 23.8828 169.705 23.9023 169.705 23.9512C169.705 23.9609 169.705 23.9707 169.695 23.9805L166.267 34L165.691 35.7383C165.076 37.3594 164.539 37.9648 162.888 37.9648H160.291C160.222 37.9648 160.193 37.9258 160.193 37.8574V36.3633C160.193 36.2949 160.222 36.2656 160.291 36.2559H162.546C163.142 36.2559 163.543 36.0898 163.728 35.748C163.914 35.4062 163.914 34.9766 163.728 34.4395L163.552 33.9023ZM169.671 30.6797C169.671 30.6113 169.7 30.582 169.769 30.582H171.448C171.527 30.582 171.566 30.6113 171.566 30.6797C171.566 31.1875 171.8 31.6172 172.279 31.9688C172.757 32.3203 173.392 32.4961 174.193 32.4961C175.208 32.4961 176.693 32.2715 176.693 30.9824C176.693 29.8398 175.042 29.7715 174.193 29.6641C173.226 29.5566 172.142 29.4297 171.292 29.0098C170.872 28.8047 170.53 28.5117 170.257 28.1504C169.984 27.7891 169.847 27.291 169.847 26.6562C169.847 25.0254 171.429 23.6777 173.909 23.6777C176.351 23.6777 178.314 24.8496 178.314 27.2031C178.314 27.2715 178.284 27.3008 178.226 27.3008H176.507C176.439 27.3008 176.409 27.2715 176.409 27.2031C176.409 26.0801 175.54 25.377 173.909 25.377C173.148 25.377 172.601 25.5137 172.259 25.7871C171.917 26.0605 171.751 26.3535 171.751 26.6562C171.751 27.8184 173.177 27.7793 174.193 27.9648C175.179 28.0918 176.302 28.1992 177.132 28.5996C177.552 28.8047 177.904 29.0879 178.177 29.459C178.45 29.8301 178.587 30.3379 178.587 30.9824C178.587 33.2871 176.683 34.1953 174.193 34.1953C171.146 34.1953 169.671 32.6035 169.671 30.6797ZM179.686 22.1152V20.0156C179.686 19.9473 179.716 19.918 179.784 19.918H181.884C181.952 19.918 181.981 19.9473 181.981 20.0156V22.1152C181.981 22.1836 181.952 22.2129 181.884 22.2227H179.784C179.716 22.2227 179.686 22.1836 179.686 22.1152ZM179.882 33.9023V23.9805C179.882 23.9121 179.911 23.8828 179.979 23.8828H181.679C181.747 23.8828 181.776 23.9121 181.786 23.9805V33.9023C181.786 33.9707 181.747 34 181.679 34H179.979C179.911 34 179.882 33.9707 179.882 33.9023ZM183.549 30.6797C183.549 30.6113 183.579 30.582 183.647 30.582H185.327C185.405 30.582 185.444 30.6113 185.444 30.6797C185.444 31.1875 185.678 31.6172 186.157 31.9688C186.635 32.3203 187.27 32.4961 188.071 32.4961C189.086 32.4961 190.571 32.2715 190.571 30.9824C190.571 29.8398 188.92 29.7715 188.071 29.6641C187.104 29.5566 186.02 29.4297 185.17 29.0098C184.75 28.8047 184.409 28.5117 184.135 28.1504C183.862 27.7891 183.725 27.291 183.725 26.6562C183.725 25.0254 185.307 23.6777 187.787 23.6777C190.229 23.6777 192.192 24.8496 192.192 27.2031C192.192 27.2715 192.162 27.3008 192.104 27.3008H190.385C190.317 27.3008 190.287 27.2715 190.287 27.2031C190.287 26.0801 189.418 25.377 187.787 25.377C187.026 25.377 186.479 25.5137 186.137 25.7871C185.795 26.0605 185.629 26.3535 185.629 26.6562C185.629 27.8184 187.055 27.7793 188.071 27.9648C189.057 28.0918 190.18 28.1992 191.01 28.5996C191.43 28.8047 191.782 29.0879 192.055 29.459C192.329 29.8301 192.465 30.3379 192.465 30.9824C192.465 33.2871 190.561 34.1953 188.071 34.1953C185.024 34.1953 183.549 32.6035 183.549 30.6797Z" fill="black"/>
</g>
<defs>
<filter id="filter0_iii_1920_4424" x="-20" y="-20" width="258" height="156" filterUnits="userSpaceOnUse" color-interpolation-filters="sRGB">
<feFlood flood-opacity="0" result="BackgroundImageFix"/>
<feBlend mode="normal" in="SourceGraphic" in2="BackgroundImageFix" result="shape"/>
<feColorMatrix in="SourceAlpha" type="matrix" values="0 0 0 0 0 0 0 0 0 0 0 0 0 0 0 0 0 0 127 0" result="hardAlpha"/>
<feOffset dy="1"/>
<feGaussianBlur stdDeviation="0.5"/>
<feComposite in2="hardAlpha" operator="arithmetic" k2="-1" k3="1"/>
<feColorMatrix type="matrix" values="0 0 0 0 0.580392 0 0 0 0 0.658824 0 0 0 0 0.929412 0 0 0 0.2 0"/>
<feBlend mode="normal" in2="shape" result="effect1_innerShadow_1920_4424"/>
<feColorMatrix in="SourceAlpha" type="matrix" values="0 0 0 0 0 0 0 0 0 0 0 0 0 0 0 0 0 0 127 0" result="hardAlpha"/>
<feOffset dy="-1"/>
<feGaussianBlur stdDeviation="0.5"/>
<feComposite in2="hardAlpha" operator="arithmetic" k2="-1" k3="1"/>
<feColorMatrix type="matrix" values="0 0 0 0 0.580392 0 0 0 0 0.658824 0 0 0 0 0.929412 0 0 0 0.2 0"/>
<feBlend mode="normal" in2="effect1_innerShadow_1920_4424" result="effect2_innerShadow_1920_4424"/>
<feColorMatrix in="SourceAlpha" type="matrix" values="0 0 0 0 0 0 0 0 0 0 0 0 0 0 0 0 0 0 127 0" result="hardAlpha"/>
<feOffset dx="6" dy="80"/>
<feGaussianBlur stdDeviation="40"/>
<feComposite in2="hardAlpha" operator="arithmetic" k2="-1" k3="1"/>
<feColorMatrix type="matrix" values="0 0 0 0 0.580392 0 0 0 0 0.658824 0 0 0 0 0.929412 0 0 0 0.02 0"/>
<feBlend mode="normal" in2="effect2_innerShadow_1920_4424" result="effect3_innerShadow_1920_4424"/>
</filter>
<filter id="filter1_iii_1920_4424" x="-16" y="-16" width="88" height="148" filterUnits="userSpaceOnUse" color-interpolation-filters="sRGB">
<feFlood flood-opacity="0" result="BackgroundImageFix"/>
<feBlend mode="normal" in="SourceGraphic" in2="BackgroundImageFix" result="shape"/>
<feColorMatrix in="SourceAlpha" type="matrix" values="0 0 0 0 0 0 0 0 0 0 0 0 0 0 0 0 0 0 127 0" result="hardAlpha"/>
<feOffset dy="1"/>
<feGaussianBlur stdDeviation="0.5"/>
<feComposite in2="hardAlpha" operator="arithmetic" k2="-1" k3="1"/>
<feColorMatrix type="matrix" values="0 0 0 0 0.580392 0 0 0 0 0.658824 0 0 0 0 0.929412 0 0 0 0.2 0"/>
<feBlend mode="normal" in2="shape" result="effect1_innerShadow_1920_4424"/>
<feColorMatrix in="SourceAlpha" type="matrix" values="0 0 0 0 0 0 0 0 0 0 0 0 0 0 0 0 0 0 127 0" result="hardAlpha"/>
<feOffset dy="-1"/>
<feGaussianBlur stdDeviation="0.5"/>
<feComposite in2="hardAlpha" operator="arithmetic" k2="-1" k3="1"/>
<feColorMatrix type="matrix" values="0 0 0 0 0.580392 0 0 0 0 0.658824 0 0 0 0 0.929412 0 0 0 0.2 0"/>
<feBlend mode="normal" in2="effect1_innerShadow_1920_4424" result="effect2_innerShadow_1920_4424"/>
<feColorMatrix in="SourceAlpha" type="matrix" values="0 0 0 0 0 0 0 0 0 0 0 0 0 0 0 0 0 0 127 0" result="hardAlpha"/>
<feOffset dx="6" dy="80"/>
<feGaussianBlur stdDeviation="40"/>
<feComposite in2="hardAlpha" operator="arithmetic" k2="-1" k3="1"/>
<feColorMatrix type="matrix" values="0 0 0 0 0.580392 0 0 0 0 0.658824 0 0 0 0 0.929412 0 0 0 0.02 0"/>
<feBlend mode="normal" in2="effect2_innerShadow_1920_4424" result="effect3_innerShadow_1920_4424"/>
</filter>
</defs>
</svg>
