<svg width="176" height="56" viewBox="0 0 176 56" fill="none" xmlns="http://www.w3.org/2000/svg">
<g filter="url(#filter0_iii_1920_4428)">
<rect width="176" height="56" rx="28" fill="#77A9E8" fill-opacity="0.04"/>
<g filter="url(#filter1_iii_1920_4428)">
<rect x="4" y="4" width="48" height="48" rx="24" fill="#77A9E8" fill-opacity="0.16"/>
<path d="M38 22C38 19.7909 36.2091 18 34 18C31.7909 18 30 19.7909 30 22C30 24.2091 31.7909 26 34 26C36.2091 26 38 24.2091 38 22Z" fill="#2A5FDD" fill-opacity="0.16"/>
<path d="M38 34C38 31.7909 36.2091 30 34 30C31.7909 30 30 31.7909 30 34C30 36.2091 31.7909 38 34 38C36.2091 38 38 36.2091 38 34Z" fill="#2A5FDD" fill-opacity="0.16"/>
<path d="M26 22C26 19.7909 24.2091 18 22 18C19.7909 18 18 19.7909 18 22C18 24.2091 19.7909 26 22 26C24.2091 26 26 24.2091 26 22Z" fill="#2A5FDD" fill-opacity="0.16"/>
<path d="M26 34C26 31.7909 24.2091 30 22 30C19.7909 30 18 31.7909 18 34C18 36.2091 19.7909 38 22 38C24.2091 38 26 36.2091 26 34Z" fill="#2A5FDD" fill-opacity="0.16"/>
<path d="M26 22C26 19.7909 24.2091 18 22 18C19.7909 18 18 19.7909 18 22C18 24.2091 19.7909 26 22 26C24.2091 26 26 24.2091 26 22Z" stroke="#2A5FDD" stroke-width="1.5"/>
<path d="M26 34C26 31.7909 24.2091 30 22 30C19.7909 30 18 31.7909 18 34C18 36.2091 19.7909 38 22 38C24.2091 38 26 36.2091 26 34Z" stroke="#2A5FDD" stroke-width="1.5"/>
<path d="M38 22C38 19.7909 36.2091 18 34 18C31.7909 18 30 19.7909 30 22C30 24.2091 31.7909 26 34 26C36.2091 26 38 24.2091 38 22Z" stroke="#2A5FDD" stroke-width="1.5"/>
<path d="M38 34C38 31.7909 36.2091 30 34 30C31.7909 30 30 31.7909 30 34C30 36.2091 31.7909 38 34 38C36.2091 38 38 36.2091 38 34Z" stroke="#2A5FDD" stroke-width="1.5"/>
</g>
<path d="M64.7812 33.9023L69.498 20.0156C69.5273 19.9473 69.5664 19.918 69.6152 19.918H72.0762C72.125 19.918 72.1738 19.9473 72.2031 20.0156L76.8613 33.9023C76.8711 33.9121 76.8711 33.9316 76.8711 33.9414C76.8711 33.9805 76.832 34 76.7637 34H74.8789C74.8398 34 74.8105 33.9707 74.7812 33.9023L73.8633 31.041C73.8535 30.9727 73.8047 30.9434 73.7168 30.9434H67.916C67.8672 30.9434 67.8281 30.9727 67.7988 31.041L66.8613 33.9023C66.832 33.9707 66.8027 34 66.7637 34H64.8984C64.8105 34 64.7715 33.9707 64.7812 33.9023ZM70.7383 21.9199L68.3848 29.2441C68.375 29.2539 68.375 29.2734 68.375 29.2832C68.375 29.3223 68.4043 29.3418 68.4629 29.3418H73.1992C73.2578 29.3418 73.2871 29.3223 73.2871 29.2832C73.2871 29.2734 73.2871 29.2539 73.2773 29.2441L70.9434 21.9199C70.8945 21.793 70.7871 21.793 70.7383 21.9199ZM78.234 33.9023V23.9805C78.234 23.9121 78.2633 23.8828 78.3316 23.8828H79.8355C79.8746 23.8828 79.9039 23.9121 79.9332 23.9805L80.1285 24.8789C80.1773 25.0059 80.3043 24.9473 80.3531 24.8984C80.568 24.6055 80.8902 24.332 81.3102 24.0684C81.7398 23.8047 82.2965 23.6777 82.9703 23.6777C85.8707 23.6777 87.3355 25.7871 87.3355 28.4043V33.9023C87.3355 33.9707 87.2965 34 87.2281 34H85.5289C85.4605 34 85.4312 33.9707 85.4312 33.9023V28.4043C85.4312 26.9004 84.7477 25.377 82.775 25.377C81.0855 25.377 80.1285 26.8418 80.1285 28.4043V33.9023C80.1285 33.9707 80.0992 34 80.0309 34H78.3316C78.2633 34 78.234 33.9707 78.234 33.9023ZM88.3664 28.9414C88.3664 25.8262 90.1828 23.6777 93.1223 23.6777C94.5285 23.6777 95.7199 24.5566 95.9836 24.8203C96.091 24.9473 96.1789 24.8594 96.1789 24.7812V20.0156C96.1789 19.9473 96.218 19.918 96.2863 19.918H97.9855C98.0539 19.918 98.0832 19.9473 98.0832 20.0156V33.9023C98.0832 33.9707 98.0539 34 97.9855 34H96.4816C96.4426 34 96.4133 33.9707 96.384 33.9023L96.1789 33.082C96.1301 32.9551 96.0324 33.0137 95.9836 33.0625C95.4855 33.6387 94.1184 34.1953 93.1223 34.1953C90.1828 34.1953 88.3664 32.0664 88.3664 28.9414ZM90.2609 28.9414C90.2609 31.0215 91.4035 32.4961 93.3176 32.4961C95.1437 32.4961 96.1789 31.0215 96.1789 28.9414C96.1789 26.8711 95.1437 25.377 93.3176 25.377C91.4035 25.377 90.2609 26.8711 90.2609 28.9414ZM104.325 33.9023V20.0156C104.325 19.9473 104.354 19.918 104.422 19.918H107.664C107.713 19.918 107.762 19.9473 107.801 20.0156L111.366 32.0176C111.414 32.125 111.512 32.125 111.561 32.0176L115.125 20.0156C115.155 19.9473 115.194 19.918 115.262 19.918H118.504C118.573 19.918 118.602 19.9473 118.602 20.0156V33.9023C118.602 33.9707 118.573 34 118.504 34H116.805C116.737 34 116.707 33.9707 116.707 33.9023V21.9199C116.707 21.793 116.532 21.793 116.502 21.9004L112.987 33.9023C112.957 33.9707 112.909 34 112.821 34H110.106C110.028 34 109.979 33.9707 109.95 33.9023L106.424 21.9004C106.375 21.7734 106.229 21.793 106.229 21.9199V33.9023C106.229 33.9707 106.19 34 106.121 34H104.422C104.354 34 104.325 33.9707 104.325 33.9023ZM120.238 28.9414C120.238 25.7871 122.045 23.6777 125.189 23.6777C128.324 23.6777 130.15 25.8262 130.15 28.9414C130.15 32.0664 128.324 34.1953 125.189 34.1953C122.045 34.1953 120.238 32.0664 120.238 28.9414ZM122.133 28.9414C122.133 31.0215 123.305 32.4961 125.189 32.4961C127.113 32.4961 128.256 31.0215 128.256 28.9414C128.256 26.8711 127.113 25.377 125.189 25.377C123.295 25.377 122.133 26.8711 122.133 28.9414ZM131.386 33.9023V23.9805C131.386 23.9121 131.416 23.8828 131.484 23.8828H132.988C133.027 23.8828 133.056 23.9121 133.086 23.9805L133.291 24.8789C133.339 25.0059 133.457 24.9473 133.505 24.8984C134.199 24.2051 134.912 23.6777 135.927 23.6777H136.943C137.011 23.6777 137.041 23.707 137.05 23.7754V25.2793C137.05 25.3477 137.011 25.377 136.943 25.377H135.927C134.228 25.377 133.291 26.8418 133.291 28.4043V33.9023C133.291 33.9707 133.252 34 133.183 34H131.484C131.416 34 131.386 33.9707 131.386 33.9023ZM137.144 28.9414C137.144 25.7871 138.882 23.6777 141.997 23.6777C145.103 23.6777 146.88 25.8262 146.88 28.9414C146.88 29.166 146.861 29.3613 146.821 29.5176C146.792 29.5859 146.763 29.6152 146.724 29.6152H139.263C139.195 29.6152 139.165 29.6543 139.155 29.7227C139.155 31.1777 140.23 32.4961 141.997 32.4961C142.72 32.4961 143.267 32.3594 143.648 32.0957C144.029 31.832 144.331 31.5 144.536 31.0996C144.566 31.0312 144.614 31.002 144.683 31.002H146.46C146.538 31.002 146.568 31.0312 146.558 31.0996C146.294 32.0859 145.747 32.8574 144.927 33.3945C144.107 33.9316 143.13 34.1953 141.997 34.1953C138.999 34.1953 137.144 32.0664 137.144 28.9414ZM139.155 28.0234C139.155 28.0918 139.195 28.1211 139.263 28.1211H144.702C144.771 28.1211 144.8 28.0918 144.8 28.0234C144.8 26.8809 143.98 25.377 141.997 25.377C140.064 25.377 139.155 27.0859 139.155 28.0234ZM147.618 33.9023V31.4609C147.618 31.3926 147.647 31.3633 147.716 31.3633H150.118C150.186 31.3633 150.216 31.3926 150.216 31.4609V33.9023C150.216 33.9707 150.186 34 150.118 34H147.716C147.647 34 147.618 33.9707 147.618 33.9023ZM148.175 29.7422L147.979 23.8828V20.0156C147.979 19.9473 148.009 19.918 148.077 19.918H149.757C149.825 19.918 149.854 19.9473 149.854 20.0156V23.8828L149.659 29.7422C149.659 29.8105 149.62 29.8398 149.552 29.8398H148.272C148.204 29.8398 148.175 29.8105 148.175 29.7422Z" fill="black"/>
</g>
<defs>
<filter id="filter0_iii_1920_4428" x="-20" y="-20" width="216" height="156" filterUnits="userSpaceOnUse" color-interpolation-filters="sRGB">
<feFlood flood-opacity="0" result="BackgroundImageFix"/>
<feBlend mode="normal" in="SourceGraphic" in2="BackgroundImageFix" result="shape"/>
<feColorMatrix in="SourceAlpha" type="matrix" values="0 0 0 0 0 0 0 0 0 0 0 0 0 0 0 0 0 0 127 0" result="hardAlpha"/>
<feOffset dy="1"/>
<feGaussianBlur stdDeviation="0.5"/>
<feComposite in2="hardAlpha" operator="arithmetic" k2="-1" k3="1"/>
<feColorMatrix type="matrix" values="0 0 0 0 0.580392 0 0 0 0 0.658824 0 0 0 0 0.929412 0 0 0 0.2 0"/>
<feBlend mode="normal" in2="shape" result="effect1_innerShadow_1920_4428"/>
<feColorMatrix in="SourceAlpha" type="matrix" values="0 0 0 0 0 0 0 0 0 0 0 0 0 0 0 0 0 0 127 0" result="hardAlpha"/>
<feOffset dy="-1"/>
<feGaussianBlur stdDeviation="0.5"/>
<feComposite in2="hardAlpha" operator="arithmetic" k2="-1" k3="1"/>
<feColorMatrix type="matrix" values="0 0 0 0 0.580392 0 0 0 0 0.658824 0 0 0 0 0.929412 0 0 0 0.2 0"/>
<feBlend mode="normal" in2="effect1_innerShadow_1920_4428" result="effect2_innerShadow_1920_4428"/>
<feColorMatrix in="SourceAlpha" type="matrix" values="0 0 0 0 0 0 0 0 0 0 0 0 0 0 0 0 0 0 127 0" result="hardAlpha"/>
<feOffset dx="6" dy="80"/>
<feGaussianBlur stdDeviation="40"/>
<feComposite in2="hardAlpha" operator="arithmetic" k2="-1" k3="1"/>
<feColorMatrix type="matrix" values="0 0 0 0 0.580392 0 0 0 0 0.658824 0 0 0 0 0.929412 0 0 0 0.02 0"/>
<feBlend mode="normal" in2="effect2_innerShadow_1920_4428" result="effect3_innerShadow_1920_4428"/>
</filter>
<filter id="filter1_iii_1920_4428" x="-16" y="-16" width="88" height="148" filterUnits="userSpaceOnUse" color-interpolation-filters="sRGB">
<feFlood flood-opacity="0" result="BackgroundImageFix"/>
<feBlend mode="normal" in="SourceGraphic" in2="BackgroundImageFix" result="shape"/>
<feColorMatrix in="SourceAlpha" type="matrix" values="0 0 0 0 0 0 0 0 0 0 0 0 0 0 0 0 0 0 127 0" result="hardAlpha"/>
<feOffset dy="1"/>
<feGaussianBlur stdDeviation="0.5"/>
<feComposite in2="hardAlpha" operator="arithmetic" k2="-1" k3="1"/>
<feColorMatrix type="matrix" values="0 0 0 0 0.580392 0 0 0 0 0.658824 0 0 0 0 0.929412 0 0 0 0.2 0"/>
<feBlend mode="normal" in2="shape" result="effect1_innerShadow_1920_4428"/>
<feColorMatrix in="SourceAlpha" type="matrix" values="0 0 0 0 0 0 0 0 0 0 0 0 0 0 0 0 0 0 127 0" result="hardAlpha"/>
<feOffset dy="-1"/>
<feGaussianBlur stdDeviation="0.5"/>
<feComposite in2="hardAlpha" operator="arithmetic" k2="-1" k3="1"/>
<feColorMatrix type="matrix" values="0 0 0 0 0.580392 0 0 0 0 0.658824 0 0 0 0 0.929412 0 0 0 0.2 0"/>
<feBlend mode="normal" in2="effect1_innerShadow_1920_4428" result="effect2_innerShadow_1920_4428"/>
<feColorMatrix in="SourceAlpha" type="matrix" values="0 0 0 0 0 0 0 0 0 0 0 0 0 0 0 0 0 0 127 0" result="hardAlpha"/>
<feOffset dx="6" dy="80"/>
<feGaussianBlur stdDeviation="40"/>
<feComposite in2="hardAlpha" operator="arithmetic" k2="-1" k3="1"/>
<feColorMatrix type="matrix" values="0 0 0 0 0.580392 0 0 0 0 0.658824 0 0 0 0 0.929412 0 0 0 0.02 0"/>
<feBlend mode="normal" in2="effect2_innerShadow_1920_4428" result="effect3_innerShadow_1920_4428"/>
</filter>
</defs>
</svg>
