<svg width="505" height="112" viewBox="0 0 505 112" fill="none" xmlns="http://www.w3.org/2000/svg">
<path d="M465.465 1.77135V3.51773H468.458H471.451L471.501 10.6779L471.576 17.863L473.521 17.9379L475.442 18.0127V10.7527V3.51773H478.31H481.178V1.77135V0.0249691H473.322H465.465V1.77135Z" fill="white"/>
<path d="M484.166 8.85667C484.166 18.8859 483.917 17.9877 486.561 17.9877H488.157L488.207 11.3016L488.282 4.6404L490.402 11.0022C491.549 14.495 492.597 17.5137 492.746 17.6884C492.896 17.9129 493.445 17.9877 494.343 17.9379L495.715 17.863L498.034 11.127L500.354 4.39092L500.429 11.127L500.503 17.863L502.449 17.9379L504.369 18.0127V9.00636V0.0249691H501.401H498.408L497.934 1.32228C497.66 2.04578 496.737 4.66535 495.864 7.11029C494.991 9.55522 494.268 11.4762 494.218 11.3515C494.168 11.2268 493.27 8.65708 492.198 5.63834L490.252 0.14971L487.209 0.0748653L484.166 2.09808e-05V8.85667Z" fill="white"/>
<path d="M408.348 0.327797C392.635 2.22387 379.141 11.6543 372.232 25.5006C369.115 31.7377 367.668 37.9748 367.668 45.11C367.668 55.3887 371.16 65.1684 377.67 73.1519C379.74 75.6966 383.93 79.6135 386.674 81.5844C389.642 83.705 395.628 86.7237 399.095 87.8464C409.022 91.0648 419.372 90.965 429.15 87.572C432.467 86.4244 437.804 83.6551 440.772 81.5595C443.84 79.4139 449.377 73.8504 451.547 70.7818C454.964 65.9668 457.683 59.7297 459.03 53.5675C459.529 51.2473 459.579 50.2743 459.579 45.085C459.579 39.9457 459.504 38.8979 459.005 36.6026C457.733 30.6899 454.84 24.0037 451.572 19.3883C448.479 15.0722 442.743 9.73331 438.203 6.93909C429.249 1.47542 418.499 -0.919617 408.348 0.327797ZM418.325 15.9953C423.712 16.8186 428.152 18.7646 432.666 22.2823C441.995 29.5423 446.035 41.6671 442.868 52.819C441.546 57.4594 438.328 62.8233 435.061 65.867C431.868 68.8109 426.73 71.9045 423.064 73.102C416.504 75.2475 408.473 74.9232 402.138 72.2787C393.707 68.7859 387.472 62.0499 384.778 53.5176C383.481 49.3761 383.132 45.2597 383.755 41.0933C384.728 34.7066 387.497 29.2429 392.136 24.6274C399.07 17.6918 408.647 14.5483 418.325 15.9953Z" fill="white"/>
<path d="M0.000282339 0.207359C-0.124427 0.431892 41.1044 71.9587 43.2494 75.2519C45.2198 78.2457 48.3874 81.3143 50.6821 82.437C53.5753 83.859 55.2963 84.2083 59.0376 84.1833C65.6472 84.1335 69.8125 82.0627 73.5537 76.9483C75.2997 74.5783 118.025 0.431892 117.776 0.207359C117.676 0.0826187 114.334 0.0327225 110.393 0.0826187C103.808 0.182411 103.035 0.232307 101.514 0.731277C99.4932 1.40488 97.2235 3.05147 96.0263 4.6731C95.303 5.69598 85.2016 23.1099 64.9737 58.287C63.0033 61.7049 61.0579 64.8235 60.6588 65.1977C59.6113 66.1707 58.1896 66.1707 57.1919 65.1977C56.7928 64.8235 48.7616 51.1518 39.3335 34.7857C29.9305 18.4196 21.7745 4.54836 21.2258 3.94961C20.0036 2.52755 18.1829 1.37993 16.1875 0.706322C14.7908 0.232307 13.8929 0.182411 7.38306 0.0826187C3.36743 0.0327225 0.050166 0.0826187 0.000282339 0.207359Z" fill="white"/>
<path d="M130.242 0.457355C130.242 0.607044 134.981 8.93978 140.793 18.9939C146.604 29.0481 151.942 38.3538 152.69 39.6511C155.034 43.7676 157.953 46.0379 161.669 46.6367C163.614 46.936 176.459 46.9859 176.335 46.6866C176.31 46.5618 170.922 37.2312 164.412 25.9296C157.504 13.9793 152.116 4.9231 151.518 4.22455C150.171 2.72765 148.4 1.58003 146.38 0.906425C144.983 0.432407 144.085 0.382511 137.55 0.282715C132.412 0.20787 130.242 0.257767 130.242 0.457355Z" fill="white"/>
<path d="M219.949 0.353523C219.203 0.4776 217.759 0.973923 216.764 1.44542C213.231 3.10809 213.754 2.31397 197.259 30.8522C189.098 44.9724 175.315 68.8452 166.607 83.8836C157.899 98.9221 150.708 111.404 150.634 111.603C150.484 111.95 151.231 112 157.55 112C165.238 112 166.408 111.851 168.796 110.561C171.607 109.047 171.657 108.972 185.49 85.0748C192.581 72.791 206.489 48.7444 216.391 31.6463C226.293 14.5482 234.379 0.452789 234.379 0.328712C234.379 0.00610352 221.865 0.0557327 219.949 0.353523Z" fill="white"/>
<path d="M245.227 0.240631C245.227 0.340424 246.449 2.56083 247.945 5.15545C249.442 7.75008 257.149 21.0974 265.055 34.819C272.962 48.5406 281.367 63.1104 283.712 67.2019C290.596 79.1521 293.339 82.096 299.026 83.6428C301.545 84.3164 306.608 84.3663 309.128 83.7676C313.243 82.7696 316.66 80.2 319.478 75.9837C320.052 75.1604 327.859 61.6883 336.888 46.0457C345.892 30.4031 355.445 13.8375 358.113 9.22202C360.757 4.63154 363.002 0.664757 363.102 0.440224C363.251 0.0410461 362.752 0.016098 356.941 0.016098C353.449 0.016098 349.833 0.140839 348.86 0.265579C345.917 0.714653 342.824 2.46103 341.302 4.60659C340.903 5.1804 333.196 18.4279 324.167 34.0705C315.163 49.7131 307.407 63.1353 306.933 63.9087C306.085 65.3308 305.311 65.8796 304.139 65.8796C302.717 65.8796 302.069 65.1062 299.051 59.8671C297.455 57.0729 289.673 43.5509 281.766 29.8293C270.168 9.67109 267.15 4.63154 266.103 3.55876C264.457 1.86227 261.938 0.614861 259.568 0.265579C257.423 -0.0337982 245.227 -0.0587463 245.227 0.240631Z" fill="white"/>
</svg>
