<svg width="16" height="16" viewBox="0 0 16 16" fill="none" xmlns="http://www.w3.org/2000/svg">
<path fill-rule="evenodd" clip-rule="evenodd" d="M7.95928 1.16659H8.03551C9.49597 1.16658 10.6431 1.16657 11.5387 1.28698C12.4565 1.41037 13.1847 1.6684 13.7568 2.24053C14.3289 2.81266 14.5869 3.54083 14.7103 4.4586C14.8307 5.35421 14.8307 6.50135 14.8307 7.96181V8.03805C14.8307 9.49852 14.8307 10.6456 14.7103 11.5412C14.5869 12.459 14.3289 13.1872 13.7568 13.7593C13.1847 14.3314 12.4565 14.5895 11.5387 14.7129C10.6431 14.8333 9.49598 14.8333 8.03552 14.8333H8.03551H7.95926H7.95925C6.49879 14.8333 5.35168 14.8333 4.45608 14.7129C3.53831 14.5895 2.81014 14.3314 2.238 13.7593C1.66587 13.1872 1.40785 12.459 1.28446 11.5412C1.16405 10.6456 1.16405 9.49851 1.16406 8.03804V8.03804V7.9618V7.9618C1.16405 6.50133 1.16405 5.35421 1.28446 4.4586C1.40785 3.54083 1.66587 2.81266 2.238 2.24053C2.81014 1.6684 3.53831 1.41037 4.45608 1.28698C5.35168 1.16657 6.49882 1.16658 7.95928 1.16659ZM5.32943 7.00004C5.32943 6.63185 5.03095 6.33337 4.66276 6.33337C4.29457 6.33337 3.99609 6.63185 3.99609 7.00004L3.99609 11.3334C3.99609 11.7016 4.29457 12 4.66276 12C5.03095 12 5.32943 11.7016 5.32943 11.3334L5.32943 7.00004ZM7.33464 6C7.60488 6 7.83757 6.1608 7.94224 6.39194C8.34752 6.14334 8.82434 6 9.33463 6C10.8074 6 12.0013 7.19391 12.0013 8.66667V11.3333C12.0013 11.7015 11.7028 12 11.3346 12C10.9664 12 10.668 11.7015 10.668 11.3333V8.66667C10.668 7.93029 10.071 7.33333 9.33463 7.33333C8.59826 7.33333 8.0013 7.93029 8.0013 8.66667V11.3333C8.0013 11.7015 7.70283 12 7.33464 12C6.96645 12 6.66797 11.7015 6.66797 11.3333L6.66797 6.66667C6.66797 6.29848 6.96645 6 7.33464 6ZM5.50391 4.66667C5.50391 5.1269 5.13081 5.5 4.67057 5.5H4.66459C4.20435 5.5 3.83125 5.1269 3.83125 4.66667C3.83125 4.20643 4.20435 3.83333 4.66459 3.83333H4.67057C5.13081 3.83333 5.50391 4.20643 5.50391 4.66667Z" fill="#0A66C2"/>
</svg>
