<svg width="32" height="32" viewBox="0 0 32 32" fill="none" xmlns="http://www.w3.org/2000/svg">
<path d="M5.33594 15.9999C5.33594 10.9716 5.33594 8.45745 6.89803 6.89535C8.46013 5.33325 10.9743 5.33325 16.0026 5.33325C21.0309 5.33325 23.5451 5.33325 25.1072 6.89535C26.6693 8.45745 26.6693 10.9716 26.6693 15.9999C26.6693 21.0282 26.6693 23.5424 25.1072 25.1045C23.5451 26.6666 21.0309 26.6666 16.0026 26.6666C10.9743 26.6666 8.46013 26.6666 6.89803 25.1045C5.33594 23.5424 5.33594 21.0282 5.33594 15.9999Z" fill="white" fill-opacity="0.16"/>
<path d="M5.33594 15.9999C5.33594 10.9716 5.33594 8.45745 6.89803 6.89535C8.46013 5.33325 10.9743 5.33325 16.0026 5.33325C21.0309 5.33325 23.5451 5.33325 25.1072 6.89535C26.6693 8.45745 26.6693 10.9716 26.6693 15.9999C26.6693 21.0282 26.6693 23.5424 25.1072 25.1045C23.5451 26.6666 21.0309 26.6666 16.0026 26.6666C10.9743 26.6666 8.46013 26.6666 6.89803 25.1045C5.33594 23.5424 5.33594 21.0282 5.33594 15.9999Z" stroke="white" stroke-width="2" stroke-linejoin="round"/>
<path d="M12.668 2.66663V5.33329" stroke="white" stroke-width="2" stroke-linecap="round" stroke-linejoin="round"/>
<path d="M19.3359 1.33325V5.33325" stroke="white" stroke-width="2" stroke-linecap="round" stroke-linejoin="round"/>
<path d="M12.668 26.6666V30.6666" stroke="white" stroke-width="2" stroke-linecap="round" stroke-linejoin="round"/>
<path d="M19.3359 26.6666V29.3333" stroke="white" stroke-width="2" stroke-linecap="round" stroke-linejoin="round"/>
<path d="M17.3372 11.9999L12.0039 17.3332" stroke="white" stroke-width="2" stroke-linecap="round" stroke-linejoin="round"/>
<path d="M20.0026 17.3333L17.3359 19.9999" stroke="white" stroke-width="2" stroke-linecap="round" stroke-linejoin="round"/>
<path d="M30.668 19.3333L26.668 19.3333" stroke="white" stroke-width="2" stroke-linecap="round" stroke-linejoin="round"/>
<path d="M5.33594 12.6666L1.33594 12.6666" stroke="white" stroke-width="2" stroke-linecap="round" stroke-linejoin="round"/>
<path d="M5.33594 19.3333L2.66927 19.3333" stroke="white" stroke-width="2" stroke-linecap="round" stroke-linejoin="round"/>
<path d="M29.3359 12.6666L26.6693 12.6666" stroke="white" stroke-width="2" stroke-linecap="round" stroke-linejoin="round"/>
</svg>
