<svg width="32" height="32" viewBox="0 0 32 32" fill="none" xmlns="http://www.w3.org/2000/svg">
<path d="M0.53125 23.4667H4.79785V19.2001H0.53125V23.4667Z" fill="white" fill-opacity="0.16"/>
<path d="M27.1953 23.4667H31.4619V19.2001H27.1953V23.4667Z" fill="white" fill-opacity="0.16"/>
<path d="M0.53125 12.2668H4.79785V8.00012H0.53125V12.2668Z" fill="white" fill-opacity="0.16"/>
<path d="M13.8672 30.4001H18.1338V26.1334H13.8672V30.4001Z" fill="white" fill-opacity="0.16"/>
<path d="M13.8672 5.86689H18.1338V1.60022H13.8672V5.86689Z" fill="white" fill-opacity="0.16"/>
<path d="M27.1953 12.2668H31.4619V8.00012H27.1953V12.2668Z" fill="white" fill-opacity="0.16"/>
<path d="M16.0012 21.3332L10.668 18.6666V12.7999L16.0012 14.9333V21.3332Z" fill="white" fill-opacity="0.16"/>
<path d="M16.0039 21.3332L21.3372 18.6666V12.7999L16.0039 14.9333V21.3332Z" fill="white" fill-opacity="0.16"/>
<path d="M16.0012 14.9333L10.668 12.7999L16.0012 10.1333L21.3346 12.7999L16.0012 14.9333Z" fill="white" fill-opacity="0.16"/>
<path d="M11.1995 18.3369L15.4661 20.4703V15.2943L11.1995 13.5877V18.3369ZM15.9994 21.8665C15.9179 21.8665 15.8363 21.8479 15.761 21.8106L10.4278 19.1439C10.247 19.0532 10.1328 18.8687 10.1328 18.6666V12.8C10.1328 12.6229 10.2208 12.4575 10.367 12.3583C10.5142 12.2592 10.7014 12.2394 10.864 12.3045L16.1973 14.4378C16.3999 14.5194 16.5327 14.7152 16.5327 14.9333V21.3332C16.5327 21.5183 16.4367 21.69 16.2794 21.7871C16.1941 21.8398 16.097 21.8665 15.9994 21.8665Z" fill="white"/>
<path d="M16.5316 15.2946V20.4705L20.7982 18.3372V13.5879L16.5316 15.2946ZM15.9982 21.8668C15.9006 21.8668 15.8035 21.8396 15.7182 21.7868C15.5609 21.6897 15.4648 21.518 15.4648 21.3335V14.9336C15.4648 14.7154 15.5976 14.5191 15.8003 14.4381L21.1335 12.3047C21.2962 12.2391 21.4829 12.2588 21.6306 12.3586C21.7768 12.4578 21.8648 12.6231 21.8648 12.8002V18.6669C21.8648 18.869 21.7507 19.0535 21.5698 19.1437L16.2366 21.8103C16.1614 21.8482 16.0798 21.8668 15.9982 21.8668Z" fill="white"/>
<path d="M11.9669 12.7459L15.9994 14.3587L20.0313 12.7459L15.9994 10.7299L11.9669 12.7459ZM15.9994 15.4669C15.9322 15.4669 15.865 15.4542 15.801 15.4286L10.4677 13.2952C10.2725 13.2174 10.1419 13.0323 10.1333 12.8222C10.1242 12.6125 10.2394 12.4168 10.4272 12.323L15.7605 9.65635C15.9109 9.58118 16.088 9.58118 16.2378 9.65635L21.5711 12.323C21.7588 12.4168 21.874 12.6126 21.8654 12.8222C21.8564 13.0323 21.7257 13.2174 21.5305 13.2952L16.1972 15.4286C16.1332 15.4541 16.0665 15.4669 15.9994 15.4669Z" fill="white"/>
<path d="M10.6689 13.3335C10.5484 13.3335 10.4278 13.2929 10.3276 13.2097L7.27637 10.6668H4.80283C4.50787 10.6668 4.26953 10.4279 4.26953 10.1335C4.26953 9.83913 4.50794 9.60022 4.80283 9.60022H7.46947C7.59426 9.60022 7.71531 9.64394 7.81132 9.72393L11.0113 12.3906C11.2369 12.5788 11.2678 12.9154 11.0796 13.1415C10.9734 13.2678 10.822 13.3335 10.6689 13.3335Z" fill="white"/>
<path d="M21.3347 13.3335C21.1817 13.3335 21.0302 13.2679 20.9241 13.1415C20.7358 12.9154 20.7667 12.5788 20.9923 12.3906L24.1923 9.72393C24.2883 9.64394 24.4094 9.60022 24.5342 9.60022H27.2008C27.4958 9.60022 27.7341 9.83914 27.7341 10.1335C27.7341 10.4279 27.4957 10.6668 27.2008 10.6668H24.7272L21.676 13.2097C21.5758 13.293 21.4553 13.3335 21.3347 13.3335Z" fill="white"/>
<path d="M27.2008 21.8667H24.5342C24.4094 21.8667 24.2883 21.8229 24.1923 21.7429L20.9923 19.0763C20.7667 18.888 20.7358 18.5515 20.9241 18.3254C21.1129 18.0992 21.4489 18.0683 21.6761 18.2571L24.7273 20.8001H27.2009C27.4958 20.8001 27.7342 21.039 27.7342 21.3334C27.7341 21.6277 27.4957 21.8667 27.2008 21.8667Z" fill="white"/>
<path d="M7.46947 21.8667H4.80283C4.50787 21.8667 4.26953 21.6278 4.26953 21.3334C4.26953 21.039 4.50794 20.8001 4.80283 20.8001H7.27643L10.3276 18.2572C10.5553 18.0684 10.8908 18.0994 11.0796 18.3255C11.2679 18.5516 11.237 18.8881 11.0114 19.0764L7.81138 21.743C7.71537 21.823 7.59426 21.8667 7.46947 21.8667Z" fill="white"/>
<path d="M16.0021 10.6669C15.7071 10.6669 15.4688 10.428 15.4688 10.1336V5.86692C15.4688 5.57253 15.7072 5.33362 16.0021 5.33362C16.297 5.33362 16.5354 5.57253 16.5354 5.86692V10.1336C16.5354 10.4279 16.297 10.6669 16.0021 10.6669Z" fill="white"/>
<path d="M16.0021 26.6666C15.7071 26.6666 15.4688 26.4277 15.4688 26.1333V21.3334C15.4688 21.039 15.7072 20.8 16.0021 20.8C16.297 20.8 16.5354 21.039 16.5354 21.3334V26.1333C16.5354 26.4277 16.297 26.6666 16.0021 26.6666Z" fill="white"/>
<path d="M1.0666 22.9334H4.2666V19.7333H1.0666V22.9334ZM4.7999 24H0.533302C0.238343 24 0 23.7611 0 23.4667V19.2C0 18.9057 0.238407 18.6667 0.533302 18.6667H4.79997C5.09436 18.6667 5.33327 18.9057 5.33327 19.2V23.4667C5.33327 23.761 5.09436 24 4.7999 24Z" fill="white"/>
<path d="M27.7307 22.9334H30.9307V19.7333H27.7307V22.9334ZM31.464 24H27.1974C26.9024 24 26.6641 23.7611 26.6641 23.4667V19.2C26.6641 18.9057 26.9025 18.6667 27.1974 18.6667H31.464C31.7584 18.6667 31.9973 18.9057 31.9973 19.2V23.4667C31.9974 23.761 31.7585 24 31.464 24Z" fill="white"/>
<path d="M1.0666 11.7334H4.2666V8.5334H1.0666V11.7334ZM4.7999 12.8001H0.533302C0.238343 12.8001 0 12.5612 0 12.2668V8.0001C0 7.70571 0.238407 7.4668 0.533302 7.4668H4.79997C5.09436 7.4668 5.33327 7.70571 5.33327 8.0001V12.2668C5.33327 12.5612 5.09436 12.8001 4.7999 12.8001Z" fill="white"/>
<path d="M14.4026 29.8666H17.6026V26.6666H14.4026V29.8666ZM18.1359 30.9332H13.8692C13.5743 30.9332 13.3359 30.6943 13.3359 30.3999V26.1333C13.3359 25.8389 13.5743 25.6 13.8692 25.6H18.1359C18.4303 25.6 18.6692 25.8389 18.6692 26.1333V30.3999C18.6693 30.6943 18.4304 30.9332 18.1359 30.9332Z" fill="white"/>
<path d="M14.4026 5.33338H17.6026V2.13338H14.4026V5.33338ZM18.1359 6.40004H13.8692C13.5743 6.40004 13.3359 6.16113 13.3359 5.86674V1.60007C13.3359 1.30569 13.5743 1.06677 13.8692 1.06677H18.1359C18.4303 1.06677 18.6692 1.30569 18.6692 1.60007V5.86674C18.6693 6.16113 18.4304 6.40004 18.1359 6.40004Z" fill="white"/>
<path d="M27.7307 11.7334H30.9307V8.5334H27.7307V11.7334ZM31.464 12.8001H27.1974C26.9024 12.8001 26.6641 12.5612 26.6641 12.2668V8.0001C26.6641 7.70571 26.9025 7.4668 27.1974 7.4668H31.464C31.7584 7.4668 31.9973 7.70571 31.9973 8.0001V12.2668C31.9974 12.5612 31.7585 12.8001 31.464 12.8001Z" fill="white"/>
</svg>
