<svg width="30" height="30" viewBox="0 0 30 30" fill="none" xmlns="http://www.w3.org/2000/svg">
<path d="M28.3307 15C28.3307 7.63625 22.3612 1.66671 14.9974 1.66671C7.6336 1.66671 1.66406 7.63625 1.66406 15C1.66406 22.3638 7.6336 28.3334 14.9974 28.3334C22.3612 28.3334 28.3307 22.3638 28.3307 15Z" fill="white" fill-opacity="0.16"/>
<path d="M28.3307 15C28.3307 7.63625 22.3612 1.66671 14.9974 1.66671C7.6336 1.66671 1.66406 7.63625 1.66406 15C1.66406 22.3638 7.6336 28.3334 14.9974 28.3334C22.3612 28.3334 28.3307 22.3638 28.3307 15Z" stroke="white" stroke-width="2"/>
<path d="M16.3846 10.5449C17.7174 11.4075 19.7166 11.1916 21.7159 8.60378C22.7385 7.2801 24.1789 6.7675 25.3751 6.62631C22.9308 3.60129 19.1907 1.66675 14.9987 1.66675C14.2255 1.66675 13.4677 1.73256 12.7306 1.85888C11.9954 3.41332 12.2506 5.30362 13.7189 6.01628C16.0654 7.15523 14.3853 9.25101 16.3846 10.5449Z" fill="white" fill-opacity="0.16"/>
<path d="M21.7159 8.60378L22.5072 9.21515V9.21515L21.7159 8.60378ZM16.3846 10.5449L15.8412 11.3844L16.3846 10.5449ZM13.7189 6.01628L13.2822 6.91591H13.2822L13.7189 6.01628ZM12.7306 1.85888L11.8266 1.43134L12.7306 1.85888ZM20.9245 7.99241C20.0089 9.17755 19.1718 9.71653 18.518 9.9089C17.8869 10.0946 17.3547 9.98163 16.9279 9.70538L15.8412 11.3844C16.7472 11.9708 17.881 12.1811 19.0826 11.8276C20.2615 11.4807 21.4236 10.6178 22.5072 9.21515L20.9245 7.99241ZM16.9279 9.70538C16.3508 9.33188 16.3005 8.9454 16.171 8.07533C16.1096 7.66246 16.0197 7.09416 15.7239 6.54691C15.4094 5.96521 14.9085 5.48211 14.1555 5.11666L13.2822 6.91591C13.7025 7.11993 13.8715 7.32591 13.9645 7.49794C14.0761 7.70441 14.131 7.95447 14.1928 8.36965C14.3098 9.15568 14.4191 10.464 15.8412 11.3844L16.9279 9.70538ZM14.1555 5.11666C13.7439 4.91687 13.4811 4.5533 13.378 4.05185C13.2713 3.53296 13.3482 2.89189 13.6346 2.28642L11.8266 1.43134C11.3778 2.38031 11.2148 3.46161 11.4189 4.45464C11.6267 5.46512 12.2256 6.40304 13.2822 6.91591L14.1555 5.11666ZM13.6346 2.28642C13.658 2.23691 13.6827 2.18785 13.7088 2.13933L11.9462 1.19416C11.9042 1.27243 11.8644 1.35153 11.8266 1.43134L13.6346 2.28642ZM14.9987 0.666749C14.1687 0.666749 13.3544 0.737404 12.5617 0.873246L12.8995 2.84451C13.5811 2.72771 14.2824 2.66675 14.9987 2.66675V0.666749ZM25.5935 5.60132C25.4838 5.60922 25.3718 5.61975 25.2579 5.6332L25.4923 7.61941C25.5755 7.6096 25.6572 7.60191 25.7373 7.59614L25.5935 5.60132ZM25.2579 5.6332C23.8888 5.79481 22.1615 6.39136 20.9245 7.99241L22.5072 9.21515C23.3156 8.16884 24.4691 7.7402 25.4923 7.61941L25.2579 5.6332ZM26.1529 5.99782C23.527 2.74794 19.5055 0.666749 14.9987 0.666749V2.66675C18.8759 2.66675 22.3347 4.45464 24.5973 7.2548L26.1529 5.99782Z" fill="white"/>
<path d="M9.94189 18.6691C9.94189 16.02 9.24864 15.3577 5.78238 15.3577C4.13783 15.3577 2.7371 14.5812 1.72481 13.719C1.68462 14.1406 1.66406 14.5679 1.66406 15.0001C1.66406 20.5961 5.11153 25.387 9.99851 27.3647L10.3449 27.0001C11.2437 25.89 11.0861 24.5976 10.6351 23.3052C9.94189 21.3183 9.94189 21.3183 9.94189 18.6691Z" fill="white" fill-opacity="0.16"/>
<path d="M10.6351 23.3052L9.69096 23.6346L10.6351 23.3052ZM10.3449 27.0001L11.0699 27.6888C11.088 27.6697 11.1054 27.6499 11.122 27.6293L10.3449 27.0001ZM1.72481 13.719L2.37323 12.9577L1.72481 13.719ZM5.78238 16.3577C6.62736 16.3577 7.24849 16.3989 7.71051 16.4854C8.17106 16.5717 8.40243 16.6905 8.52843 16.7937C8.74132 16.968 8.94189 17.3404 8.94189 18.6691H10.9419C10.9419 17.3487 10.7958 16.0654 9.79554 15.2463C9.31494 14.8527 8.72308 14.6403 8.07875 14.5196C7.4359 14.3992 6.67053 14.3577 5.78238 14.3577V16.3577ZM8.94189 18.6691C8.94189 19.9597 8.93919 20.7123 9.03954 21.3834C9.14297 22.075 9.3537 22.668 9.69096 23.6346L11.5793 22.9758C11.2233 21.9555 11.0874 21.555 11.0176 21.0876C10.9446 20.5998 10.9419 20.0277 10.9419 18.6691H8.94189ZM9.69096 23.6346C10.1105 24.837 10.1273 25.6796 9.56767 26.3708L11.122 27.6293C12.36 26.1003 12.0617 24.3582 11.5793 22.9758L9.69096 23.6346ZM1.0084 14.4218C1.03088 14.4413 1.05355 14.4608 1.0764 14.4803L2.37323 12.9577C2.35526 12.9424 2.33743 12.9271 2.31972 12.9117L1.0084 14.4218ZM1.0764 14.4803C2.19462 15.4327 3.81743 16.3577 5.78238 16.3577V14.3577C4.45823 14.3577 3.27958 13.7297 2.37323 12.9577L1.0764 14.4803ZM0.729325 13.6241C0.686131 14.0772 0.664062 14.5362 0.664062 15.0001H2.66406C2.66406 14.5997 2.68311 14.204 2.7203 13.8139L0.729325 13.6241ZM9.61986 26.3113L9.2735 26.6759L10.7235 28.0534L11.0699 27.6888L9.61986 26.3113ZM0.664062 15.0001C0.664062 21.0174 4.37172 26.1664 9.62338 28.2916L10.3736 26.4377C5.85135 24.6076 2.66406 20.1749 2.66406 15.0001H0.664062ZM9.62338 28.2916C9.62417 28.292 9.62429 28.292 9.62409 28.2919C9.62402 28.2919 9.62379 28.2918 9.62346 28.2917C9.62345 28.2917 9.62222 28.2912 9.62067 28.2905C9.6202 28.2903 9.61932 28.29 9.61821 28.2895C9.61764 28.2893 9.61681 28.2889 9.61579 28.2885C9.61488 28.2881 9.61319 28.2874 9.61107 28.2865C9.61007 28.2861 9.60779 28.2851 9.60649 28.2846C9.60471 28.2838 9.60035 28.2819 9.59778 28.2808C9.59367 28.279 9.5821 28.2737 9.57465 28.2703C9.55656 28.2615 9.43701 28.1916 9.34328 28.1192C9.09739 26.9357 10.2348 26.3933 10.2976 26.4106C10.3125 26.4154 10.334 26.4227 10.3406 26.4251C10.3444 26.4264 10.3505 26.4287 10.3529 26.4296C10.3546 26.4303 10.3575 26.4314 10.3587 26.4318C10.3613 26.4328 10.3633 26.4336 10.3643 26.434C10.3655 26.4345 10.3664 26.4348 10.367 26.4351C10.3683 26.4356 10.3692 26.4359 10.3697 26.4361C10.3707 26.4365 10.3715 26.4369 10.3718 26.437C10.3725 26.4372 10.373 26.4374 10.3731 26.4375C10.3733 26.4376 10.3735 26.4376 10.3735 26.4377C10.3736 26.4377 10.3737 26.4377 10.3736 26.4377C10.3735 26.4376 10.3732 26.4375 10.3729 26.4374C10.3726 26.4373 10.3724 26.4372 10.3722 26.4371C10.3722 26.4371 10.3722 26.4371 10.3723 26.4372C10.3724 26.4372 10.3725 26.4372 10.3727 26.4373C10.3728 26.4374 10.3733 26.4376 10.374 26.4379C10.3743 26.438 10.3751 26.4383 10.3761 26.4387C10.3766 26.4389 10.3775 26.4393 10.3788 26.4398C10.3794 26.4401 10.3803 26.4405 10.3815 26.4409C10.3825 26.4414 10.3845 26.4422 10.3871 26.4433C10.3883 26.4438 10.3912 26.445 10.3928 26.4457C10.3952 26.4468 10.4013 26.4494 10.4049 26.4511C10.4114 26.454 10.4324 26.4639 10.4468 26.471C10.507 26.504 10.9406 27.694 9.92811 28.3616C9.8187 28.348 9.69277 28.3166 9.6742 28.3105C9.66656 28.3079 9.65478 28.3037 9.65062 28.3021C9.648 28.3012 9.6436 28.2995 9.6418 28.2988C9.64049 28.2983 9.63818 28.2975 9.63719 28.2971C9.63505 28.2963 9.63335 28.2956 9.63243 28.2952C9.63141 28.2948 9.63057 28.2945 9.63 28.2943C9.62889 28.2938 9.628 28.2935 9.62754 28.2933C9.62598 28.2927 9.62475 28.2922 9.62474 28.2922C9.62441 28.2921 9.62418 28.292 9.62411 28.2919C9.62391 28.2919 9.62403 28.2919 9.62482 28.2922L10.3722 26.4371C10.3714 26.4368 10.3705 26.4364 10.3698 26.4361C10.3696 26.4361 10.3692 26.4359 10.3688 26.4358C10.3687 26.4357 10.3674 26.4352 10.3658 26.4346C10.3654 26.4344 10.3645 26.434 10.3633 26.4336C10.3628 26.4334 10.3619 26.433 10.3609 26.4326C10.36 26.4323 10.3583 26.4316 10.3561 26.4308C10.3551 26.4304 10.3528 26.4295 10.3515 26.429C10.3497 26.4283 10.3453 26.4267 10.3427 26.4257C10.3386 26.4242 10.3268 26.42 10.3191 26.4173C10.3006 26.4112 10.1746 26.3799 10.0652 26.3663C9.05272 27.0338 9.48631 28.2239 9.54649 28.2569C9.5609 28.264 9.5819 28.2739 9.58838 28.2768C9.59207 28.2784 9.59814 28.2811 9.60051 28.2821C9.60217 28.2828 9.60505 28.2841 9.60627 28.2846C9.60882 28.2857 9.61085 28.2865 9.61185 28.2869C9.61301 28.2874 9.61395 28.2878 9.61458 28.2881C9.6158 28.2886 9.61677 28.289 9.61727 28.2892C9.61829 28.2896 9.61909 28.2899 9.61941 28.29C9.62056 28.2905 9.62155 28.2909 9.62162 28.2909C9.62196 28.2911 9.62228 28.2912 9.62253 28.2913C9.62304 28.2915 9.6236 28.2917 9.6241 28.2919C9.6246 28.2921 9.62515 28.2924 9.62567 28.2926C9.62592 28.2927 9.62624 28.2928 9.62658 28.2929C9.62665 28.293 9.62764 28.2934 9.62879 28.2938C9.62911 28.294 9.62991 28.2943 9.63094 28.2947C9.63144 28.2949 9.63241 28.2953 9.63364 28.2958C9.63426 28.296 9.63521 28.2964 9.63637 28.2968C9.63738 28.2972 9.63942 28.298 9.64199 28.299C9.64322 28.2995 9.64613 28.3006 9.64781 28.3012C9.6502 28.3021 9.65635 28.3044 9.6601 28.3058C9.6667 28.3081 9.68819 28.3154 9.70314 28.3202C9.76593 28.3376 10.9033 27.7952 10.6574 26.6116C10.5637 26.5392 10.4441 26.4693 10.426 26.4606C10.4186 26.4571 10.407 26.4518 10.4029 26.45C10.4003 26.4489 10.396 26.447 10.3942 26.4462C10.3929 26.4457 10.3906 26.4447 10.3896 26.4443C10.3875 26.4434 10.3858 26.4427 10.3849 26.4423C10.3839 26.4419 10.383 26.4415 10.3825 26.4413C10.3814 26.4408 10.3805 26.4405 10.38 26.4403C10.3784 26.4396 10.3771 26.4391 10.377 26.4391C10.3766 26.4389 10.3763 26.4388 10.3761 26.4387C10.3753 26.4384 10.3744 26.438 10.3736 26.4377L9.62338 28.2916Z" fill="white"/>
<path d="M18.4133 19.1186C19.3059 17.4081 21.2876 19.1198 24.1619 17.054C25.6098 16.0134 27.0407 16.2363 28.2014 16.8643C27.4279 22.3935 23.2632 26.8359 17.877 28.0216C21.6259 22.3993 17.1229 21.5917 18.4133 19.1186Z" fill="white" fill-opacity="0.16"/>
<path d="M28.3307 16.9365C28.288 16.9119 28.2449 16.8878 28.2014 16.8643M17.6641 28.3334C17.7378 28.2278 17.8088 28.1239 17.877 28.0216M28.2014 16.8643C27.0407 16.2363 25.6098 16.0134 24.1619 17.054C21.2876 19.1198 19.3059 17.4081 18.4133 19.1186C17.1229 21.5917 21.6259 22.3993 17.877 28.0216M28.2014 16.8643C27.4279 22.3935 23.2632 26.8359 17.877 28.0216" stroke="white" stroke-width="2" stroke-linejoin="round"/>
</svg>
