<svg width="136" height="60" viewBox="0 0 136 60" fill="none" xmlns="http://www.w3.org/2000/svg">
<path d="M50.6517 10.1941C50.6517 10.1941 47.9179 10.6408 44.9969 11.3952C42.7879 11.9625 41.261 12.4393 40.6876 12.6204V12.6023C39.8488 12.8618 39.0335 13.1394 38.2313 13.417C39.072 14.245 39.5624 15.3644 39.6011 16.5438C40.259 16.2567 40.921 15.979 41.5869 15.7109V15.7049C42.3413 15.4333 44.3808 14.6912 46.1378 14.0993C48.3283 13.357 51.3037 12.4452 51.3037 12.4452C59.9639 10.0547 69.5557 8.66763 78.491 8.73352C68.1894 8.11787 58.8172 8.71549 50.6563 10.1946M132.646 42.7802C123.376 51.1988 102.257 56.108 78.1327 56.108C45.3622 56.108 24.1856 46.4942 22.706 33.7755C22.1569 28.9957 25.923 24.3732 32.1812 20.4246C31.0767 19.5917 30.3583 18.2826 30.3282 16.803C21.2935 21.5412 16.1797 27.7751 16.1797 34.1073C16.1797 48.1171 41.2402 60 78.4725 59.4798C103.799 59.1298 123.045 51.9062 132.778 43.0657L132.633 42.782" fill="white"/>
<path d="M31.5557 16.7136C31.5557 14.8248 33.0826 13.292 34.9714 13.292C36.8602 13.292 38.393 14.8248 38.393 16.7136C38.393 18.6023 36.8602 20.1293 34.9714 20.1293C33.0826 20.1293 31.5557 18.6023 31.5557 16.7136ZM33.4629 42.4329V22.8284L36.6857 22.3999V42.4321H33.4629M47.519 42.4329V31.2135C47.519 29.9339 47.4043 29.4091 47.1508 29.0473C46.9215 28.7214 46.5232 28.6248 46.0947 28.6248C45.473 28.6248 44.5376 29.1498 43.7655 30.0975V42.4312H40.5613V30.2015C40.5613 28.1983 40.3017 27.0816 40.1328 26.1638L43.1439 25.3793C43.2284 25.675 43.5121 26.4898 43.5423 27.3467C44.3631 26.3267 45.8715 25.4753 47.3441 25.4753C48.4848 25.4753 49.3901 25.9339 49.9577 26.6578C50.6155 27.4786 50.7242 28.5893 50.7242 29.7059V42.4327H47.5199M61.2052 21.6956C60.837 21.3999 60.2395 21.2068 59.6724 21.2068C58.8757 21.2068 58.3928 21.9611 58.3928 23.2412V25.7946H61.404L60.8065 28.6186H58.3929V42.4319H55.0974V28.6186H53.9929V25.7946H55.0974C55.0974 25.7946 55.043 24.648 55.043 23.5984C55.043 21.1062 55.8639 19.7965 56.6301 19.1388C57.4026 18.5172 58.2773 18.318 59.105 18.318C60.2944 18.318 61.2654 18.5835 62.1162 19.2052L61.2048 21.6973M63.8754 42.4329V25.9032L67.1409 25.4747V42.4321H63.8754V42.4329ZM65.4382 23.4757C64.273 23.4757 63.3379 22.5282 63.3379 21.3454C63.3379 20.1686 64.3035 19.2208 65.4925 19.2208C66.6577 19.2208 67.5986 20.1683 67.5986 21.3454C67.5986 22.5279 66.6329 23.4757 65.4382 23.4757ZM78.2088 42.4329V31.2135C78.2088 29.9339 78.1002 29.4091 77.8407 29.0473C77.6174 28.7214 77.219 28.6248 76.7905 28.6248C76.1629 28.6248 75.2277 29.1498 74.4613 30.0975V42.4312H71.2502V30.2015C71.2502 28.1983 70.9967 27.0816 70.8277 26.1638L73.8389 25.3793C73.9234 25.675 74.207 26.4898 74.2372 27.3467C75.058 26.3267 76.5606 25.4753 78.039 25.4753C79.1737 25.4753 80.085 25.9339 80.6526 26.6578C81.3044 27.4786 81.4191 28.5893 81.4191 29.7059V42.4327H78.2079M91.6638 29.2785C91.35 28.5241 90.837 28.0659 90.0166 28.0659C88.5682 28.0659 87.9406 29.4114 87.8863 32.3625H92.0326C92.0326 31.0528 91.9179 29.9362 91.6644 29.2785H91.6638ZM87.8863 35.0177V35.3496C87.8863 36.43 87.9706 37.4141 88.3691 38.2707C88.8519 39.2845 89.673 39.8462 90.6682 39.8462C91.8334 39.8462 92.8286 39.2547 93.8251 38.2048L95.0989 40.5952C93.6806 42.1407 92.1478 42.8285 90.385 42.8285C86.6075 42.8285 84.4459 39.5815 84.4459 34.0712C84.4459 31.216 84.9347 29.1157 85.9844 27.5414C86.9742 26.0687 88.3379 25.3451 89.9862 25.3451C91.549 25.3451 92.7986 25.9728 93.6794 27.1194C94.8446 28.6279 95.2965 30.6624 95.2965 34.3012V35.0194H87.8848M103.073 28.2959C100.912 28.2959 100.912 32.2307 100.912 33.9392C100.912 35.7436 100.858 39.9084 103.157 39.9084C105.288 39.9084 105.288 35.7436 105.288 34.0062C105.288 32.2018 105.372 28.2971 103.073 28.2971V28.2959ZM103.073 42.8606C98.6433 42.8606 97.4781 38.141 97.4481 34.0733C97.4179 29.9697 98.8965 25.346 103.103 25.346C106.423 25.346 108.806 28.3329 108.806 34.0062C108.806 38.2369 107.418 42.8595 103.073 42.8595M118.47 42.4329V31.2135C118.47 29.9339 118.355 29.4091 118.096 29.0473C117.872 28.7214 117.474 28.6248 117.045 28.6248C116.424 28.6248 115.483 29.1498 114.716 30.0975V42.4312H111.512V30.2015C111.512 28.1983 111.252 27.0816 111.083 26.1638L114.095 25.3793C114.179 25.675 114.463 26.4898 114.493 27.3467C115.314 26.3267 116.816 25.4753 118.295 25.4753C119.43 25.4753 120.341 25.9339 120.908 26.6578C121.56 27.4786 121.675 28.5893 121.675 29.7059V42.4327H118.471" fill="white"/>
</svg>
