<svg width="236" height="30" viewBox="0 0 236 30" fill="none" xmlns="http://www.w3.org/2000/svg">
<g clip-path="url(#clip0_1245_2044)">
<path d="M33.12 29.28V16.17C33.12 11.22 29.97 7.92 24.9 7.86C22.23 7.83 19.47 8.64 17.55 11.58C16.11 9.27 13.83 7.86 10.65 7.86C8.43 7.86 6.24 8.52 4.53 10.95V8.4H0V29.28H4.59V17.7C4.59 14.07 6.6 12.15 9.69 12.15C12.69 12.15 14.22 14.13 14.22 17.67V29.28H18.81V17.7C18.81 14.07 20.91 12.15 23.91 12.15C27 12.15 28.5 14.13 28.5 17.67V29.28H33.12ZM101.04 8.4H93.6V2.04H89.01V8.4H84.78V12.54H89.01V22.08C89.01 26.94 90.9 29.82 96.27 29.82C98.25 29.82 100.5 29.22 101.94 28.2L100.62 24.3C99.27 25.08 97.77 25.47 96.6 25.47C94.32 25.47 93.6 24.06 93.6 21.96V12.54H101.04V8.4ZM139.77 7.86C137.16 7.86 135.45 9.09 134.25 10.92V8.4H129.75V29.28H134.28V17.58C134.28 14.13 135.78 12.21 138.75 12.21C139.68 12.21 140.64 12.33 141.6 12.72L143.01 8.43C142.02 8.04 140.7 7.86 139.77 7.86ZM81.18 10.05C78.99 8.61 75.99 7.86 72.66 7.86C67.38 7.86 63.96 10.38 63.96 14.55C63.96 17.97 66.48 20.07 71.16 20.7L73.29 21C75.78 21.36 76.95 21.99 76.95 23.19C76.95 24.81 75.3 25.71 72.18 25.71C69.03 25.71 66.75 24.69 65.22 23.52L63.09 27.06C65.58 28.89 68.73 29.76 72.15 29.76C78.18 29.76 81.69 26.91 81.69 22.95C81.69 19.29 78.93 17.37 74.4 16.71L72.27 16.41C70.29 16.14 68.73 15.75 68.73 14.37C68.73 12.84 70.23 11.91 72.72 11.91C75.39 11.91 77.97 12.93 79.23 13.71L81.18 10.05ZM202.92 7.86C200.31 7.86 198.6 9.09 197.4 10.92V8.4H192.9V29.28H197.43V17.58C197.43 14.13 198.93 12.21 201.9 12.21C202.83 12.21 203.79 12.33 204.75 12.72L206.16 8.43C205.14 8.04 203.85 7.86 202.92 7.86ZM144.36 18.84C144.36 25.17 148.77 29.82 155.49 29.82C158.64 29.82 160.74 29.13 163.02 27.33L160.83 23.67C159.12 24.9 157.32 25.56 155.37 25.56C151.74 25.53 149.07 22.89 149.07 18.87C149.07 14.85 151.74 12.24 155.37 12.18C157.35 12.18 159.12 12.84 160.83 14.07L163.02 10.41C160.74 8.61 158.64 7.92 155.49 7.92C148.8 7.86 144.36 12.51 144.36 18.84ZM186.93 18.84V8.4H182.4V10.92C180.96 9.03 178.77 7.86 175.8 7.86C169.95 7.86 165.36 12.45 165.36 18.84C165.36 25.23 169.95 29.82 175.8 29.82C178.77 29.82 180.96 28.65 182.4 26.76V29.28H186.93V18.84ZM170.01 18.84C170.01 15.18 172.41 12.15 176.34 12.15C180.09 12.15 182.64 15.03 182.64 18.84C182.64 22.65 180.12 25.53 176.34 25.53C172.41 25.53 170.01 22.5 170.01 18.84ZM115.17 7.86C109.05 7.86 104.76 12.33 104.76 18.84C104.76 25.47 109.23 29.82 115.47 29.82C118.62 29.82 121.5 29.04 124.02 26.88L121.8 23.52C120.06 24.93 117.81 25.71 115.74 25.71C112.8 25.71 110.16 24.36 109.5 20.61H125.01C125.04 20.04 125.1 19.47 125.1 18.87C125.07 12.33 121.05 7.86 115.17 7.86ZM115.11 11.94C118.05 11.94 119.91 13.77 120.39 17.01H109.56C110.04 13.98 111.87 11.94 115.11 11.94ZM229.11 18.84V0H224.58V10.92C223.14 9.03 220.95 7.86 217.98 7.86C212.13 7.86 207.54 12.45 207.54 18.84C207.54 25.23 212.13 29.82 217.98 29.82C220.95 29.82 223.14 28.65 224.58 26.76V29.28H229.11V18.84ZM234.42 27.36C234.6 27.36 234.78 27.39 234.93 27.45C235.08 27.51 235.23 27.6 235.35 27.72C235.47 27.84 235.56 27.99 235.65 28.14C235.71 28.29 235.77 28.47 235.77 28.65C235.77 28.83 235.74 29.01 235.65 29.16C235.59 29.31 235.47 29.46 235.35 29.58C235.23 29.7 235.08 29.79 234.93 29.88C234.78 29.94 234.6 30 234.42 30C234.24 30 234.06 29.97 233.88 29.88C233.7 29.82 233.58 29.7 233.46 29.58C233.34 29.46 233.25 29.31 233.16 29.16C233.1 29.01 233.04 28.83 233.04 28.65C233.04 28.47 233.07 28.29 233.16 28.14C233.22 27.99 233.34 27.84 233.46 27.72C233.58 27.6 233.73 27.51 233.88 27.45C234.03 27.39 234.21 27.36 234.42 27.36ZM234.42 29.7C234.57 29.7 234.69 29.67 234.81 29.61C234.93 29.55 235.05 29.49 235.14 29.4C235.23 29.31 235.32 29.19 235.35 29.07C235.41 28.95 235.44 28.8 235.44 28.68C235.44 28.53 235.41 28.41 235.35 28.29C235.29 28.17 235.23 28.05 235.14 27.96C235.05 27.87 234.93 27.78 234.81 27.75C234.69 27.69 234.54 27.66 234.42 27.66C234.27 27.66 234.15 27.69 234 27.75C233.88 27.81 233.76 27.87 233.67 27.96C233.58 28.05 233.49 28.17 233.46 28.29C233.4 28.41 233.37 28.56 233.37 28.68C233.37 28.83 233.4 28.95 233.46 29.07C233.52 29.19 233.58 29.31 233.67 29.4C233.76 29.49 233.88 29.58 234 29.61C234.12 29.67 234.27 29.7 234.42 29.7ZM234.48 28.05C234.63 28.05 234.75 28.08 234.84 28.17C234.93 28.23 234.96 28.35 234.96 28.47C234.96 28.56 234.93 28.65 234.87 28.71C234.81 28.77 234.69 28.83 234.57 28.83L234.96 29.28H234.63L234.27 28.83H234.15V29.28H233.88V28.05H234.48ZM234.18 28.29V28.62H234.48C234.54 28.62 234.6 28.62 234.66 28.59C234.69 28.56 234.72 28.53 234.72 28.47C234.72 28.41 234.69 28.38 234.66 28.35C234.63 28.32 234.57 28.32 234.48 28.32H234.18V28.29ZM212.19 18.84C212.19 15.18 214.59 12.15 218.52 12.15C222.27 12.15 224.82 15.03 224.82 18.84C224.82 22.65 222.3 25.53 218.52 25.53C214.59 25.53 212.19 22.5 212.19 18.84ZM58.74 18.84V8.4H54.21V10.92C52.77 9.03 50.58 7.86 47.61 7.86C41.76 7.86 37.17 12.45 37.17 18.84C37.17 25.23 41.76 29.82 47.61 29.82C50.58 29.82 52.77 28.65 54.21 26.76V29.28H58.74V18.84ZM41.82 18.84C41.82 15.18 44.22 12.15 48.15 12.15C51.9 12.15 54.45 15.03 54.45 18.84C54.45 22.65 51.93 25.53 48.15 25.53C44.22 25.53 41.82 22.5 41.82 18.84Z" fill="white"/>
</g>
<defs>
<clipPath id="clip0_1245_2044">
<rect width="235.77" height="30" fill="white"/>
</clipPath>
</defs>
</svg>
