<svg width="178" height="40" viewBox="0 0 178 40" fill="none" xmlns="http://www.w3.org/2000/svg">
<g clip-path="url(#clip0_1245_2018)">
<path fill-rule="evenodd" clip-rule="evenodd" d="M120.96 0.799999C121.494 0.266665 122.187 -0.0533348 122.934 -1.47521e-06C123.68 -1.47521e-06 124.374 0.266665 124.907 0.799999C125.44 1.33333 125.707 2.02667 125.707 2.77333C125.707 3.57333 125.44 4.21333 124.907 4.74667C124.374 5.28 123.68 5.6 122.934 5.54667C122.187 5.54667 121.44 5.28 120.96 4.74667C120.427 4.21333 120.107 3.52 120.16 2.77333C120.16 2.02667 120.427 1.38667 120.96 0.799999ZM124.8 9.92H121.12V31.7867H124.8V9.92ZM139.574 9.28C142.667 9.28 145.547 10.6133 147.68 12.96V1.01333H151.36V31.7333H147.68V28.6933C145.6 31.04 142.667 32.3733 139.574 32.3733C133.494 32.3733 128.48 27.2 128.48 20.8533C128.48 14.5067 133.44 9.28 139.574 9.28ZM139.787 28.8533C144.054 28.8533 147.52 25.2267 147.52 20.8C147.52 16.3733 144.054 12.8 139.787 12.8C135.52 12.8 132.054 16.4267 132.054 20.8533C132.054 25.28 135.52 28.8533 139.787 28.8533ZM154.667 20.8C154.667 14.4533 159.84 9.28 166.187 9.28C172.534 9.28 177.707 14.4533 177.707 20.8C177.707 27.1467 172.534 32.32 166.187 32.32C159.84 32.3733 154.667 27.1467 154.667 20.8ZM166.187 28.8533C170.454 28.8533 173.92 25.2267 173.92 20.8C173.92 16.3733 170.454 12.8 166.187 12.8C161.92 12.8 158.454 16.4267 158.454 20.8533C158.454 25.28 161.867 28.8533 166.187 28.8533ZM110.614 5.6V9.92H116.854V13.3333H110.614V31.7867H106.934V13.3333H102.827V9.92H106.934V5.54667C106.934 2.66667 109.28 0.319999 112.16 0.319999H116.854V3.68H112.534C111.467 3.62667 110.614 4.53333 110.614 5.6ZM91.9469 9.28C88.7469 9.28 86.2936 10.56 84.9069 13.0667V9.92H81.2269V31.7867H84.9069V20.3733C84.9069 18.08 85.4936 16.2133 86.6136 14.8267C87.7336 13.44 89.3336 12.8 91.3069 12.8C92.9602 12.8 94.3469 13.3333 95.3069 14.4533C96.2669 15.5733 96.8002 17.2267 96.8002 19.4133V31.7333H100.48V18.72C100.48 15.6267 99.7336 13.2267 98.2402 11.6267C96.8002 10.1333 94.5602 9.28 91.9469 9.28ZM54.6669 20.8C54.6669 14.4533 59.8402 9.28 66.1869 9.28C72.5336 9.28 77.7069 14.4533 77.7069 20.8C77.7069 27.1467 72.5336 32.32 66.1869 32.32C59.8402 32.3733 54.6669 27.1467 54.6669 20.8ZM66.1869 28.8533C70.4536 28.8533 73.9202 25.2267 73.9202 20.8C73.9202 16.3733 70.4536 12.8 66.1869 12.8C61.9202 12.8 58.4536 16.4267 58.4536 20.8533C58.4536 25.28 61.9202 28.8533 66.1869 28.8533ZM27.6803 19.7867C27.6803 23.7333 24.4803 26.9333 20.5336 26.9333C16.5869 26.9333 13.3869 23.7333 13.3869 19.7867C13.3869 15.84 16.5869 12.64 20.5336 12.64C24.4803 12.64 27.6803 15.84 27.6803 19.7867ZM10.0269 34.6133C10.4003 34.3467 10.8269 34.08 11.2003 33.8133C17.2803 30.1867 24.8536 30.1867 30.8803 33.8667C31.0936 33.9733 31.0936 34.3467 30.8803 34.4533L30.7203 34.56C30.4003 34.7733 30.0803 34.9867 29.7603 35.2C27.6269 36.48 25.3336 37.5467 22.9336 38.4C21.3336 38.9867 19.6803 39.4667 17.9203 39.84C16.2669 40.2133 14.6136 39.7867 13.3336 38.6667C12.1069 37.6533 10.9869 36.5333 9.92025 35.36C9.70692 35.1467 9.70692 34.8267 9.92025 34.6133C9.97359 34.6667 10.0269 34.6667 10.0269 34.6133Z" fill="white"/>
<path opacity="0.5" fill-rule="evenodd" clip-rule="evenodd" d="M29.4402 6.13333C29.8669 5.86667 30.2402 5.6 30.6136 5.33333C30.8802 5.17333 30.9336 4.85333 30.7736 4.58667L30.7202 4.53333C29.6536 3.36 28.4802 2.29333 27.3069 1.22667C26.0269 0.159999 24.3202 -0.266667 22.7202 0.106666C21.0136 0.479999 19.3069 0.96 17.7069 1.54667C15.3602 2.4 13.0669 3.46667 10.8802 4.74667C10.5602 4.96 10.2402 5.17333 9.92023 5.38667L9.76023 5.49333C9.54689 5.65333 9.54689 5.97333 9.76023 6.08C15.8402 9.81333 23.4136 9.81333 29.4402 6.13333ZM6.13356 10.88C5.86689 10.4533 5.60023 10.08 5.33356 9.65333C5.17356 9.38667 4.85356 9.33333 4.58689 9.49333L4.53356 9.54667C3.36023 10.6133 2.29356 11.7867 1.22689 12.96C0.160228 14.24 -0.266438 15.9467 0.106895 17.5467C0.480228 19.2533 0.960228 20.9067 1.5469 22.56C2.40023 24.9067 3.46689 27.2 4.74689 29.3867C4.96023 29.7067 5.17356 30.0267 5.38689 30.4L5.49356 30.56C5.65356 30.7733 5.97356 30.7733 6.08023 30.56C9.76023 24.5867 9.76023 16.96 6.13356 10.88ZM34.9869 30.72C30.6136 24.5333 30.2936 16.2667 34.2402 9.76C34.3469 9.6 34.5602 9.54667 34.7202 9.65333C34.7736 9.70667 34.8269 9.70667 34.8269 9.76L34.9336 9.92C35.1469 10.24 35.3602 10.56 35.5736 10.9333C36.8536 13.12 37.9202 15.36 38.7736 17.76C39.3602 19.4133 39.8402 21.0667 40.2136 22.7733C40.5869 24.4267 40.1602 26.1333 39.0936 27.36C38.0802 28.5867 36.9602 29.7067 35.8402 30.7733C35.6269 30.9867 35.3069 30.9867 35.0936 30.7733C34.9869 30.7733 34.9869 30.7733 34.9869 30.72Z" fill="white"/>
</g>
<defs>
<clipPath id="clip0_1245_2018">
<rect width="177.707" height="40" fill="white"/>
</clipPath>
</defs>
</svg>
