<svg width="110" height="60" viewBox="0 0 110 60" fill="none" xmlns="http://www.w3.org/2000/svg">
<path d="M9.9502 47.5011H18.5503L24.4502 24.2511L30.5503 47.5011H39.1502L48.9003 12.5011H41.3002L34.7002 38.0511L28.0503 12.5011H21.3002L14.4502 38.0511L8.0002 12.4512L0.200195 12.5011L9.9502 47.5011Z" fill="white"/>
<path d="M61.8787 47.8011C68.7287 47.8011 73.1787 43.8011 73.9787 38.8011H67.0287C66.4287 41.2011 64.4287 42.4511 61.5787 42.4511C58.0287 42.4511 55.6787 40.2511 55.5287 36.6011V36.2511H74.1787C74.3287 35.4511 74.3787 34.6011 74.3787 33.8511C74.2787 26.3011 69.0787 21.5011 61.3787 21.5011C53.4287 21.5011 48.1787 26.7011 48.1787 34.7011C48.1787 42.6511 53.3287 47.8011 61.8787 47.8011ZM55.6787 31.6511C56.0787 28.6011 58.3787 26.7511 61.4287 26.7511C64.6287 26.7511 66.7787 28.5011 67.2787 31.6511H55.6787Z" fill="white"/>
<path d="M106.181 41.5511C104.381 41.5511 103.681 40.8011 103.681 39.0011V27.7511H109.531V21.8011H103.681V14.6011H96.6314V40.1511C96.6314 45.0511 99.0814 47.5011 103.981 47.5011H109.831V41.5511H106.181ZM84.6314 21.8011H78.2314V47.5011H85.2814V34.9011C85.2814 31.0011 86.8813 28.2011 91.0814 28.2011H93.8814V21.8011H92.6814C88.6814 21.8011 86.6814 23.3511 85.2814 25.6511L84.6314 21.8011Z" fill="white"/>
</svg>
