<svg width="48" height="48" viewBox="0 0 48 48" fill="none" xmlns="http://www.w3.org/2000/svg">
<g filter="url(#filter0_iii_1711_2658)">
<rect width="48" height="48" rx="24" fill="#A170FF" fill-opacity="0.16"/>
<path d="M14 31C14.3699 32.1745 16.1082 32.7698 18 33H23C25.2091 33 27 31.2091 27 29V16H14V31Z" fill="#A170FF" fill-opacity="0.2"/>
<ellipse cx="20.5" cy="16" rx="6.5" ry="2" fill="#A170FF" fill-opacity="0.2"/>
<path d="M27.5 34C31.0899 34 34 33.015 34 31.8V23H21V31.8C21 33.015 23.9101 34 27.5 34Z" fill="#A170FF" fill-opacity="0.2"/>
<ellipse cx="27.5" cy="23" rx="6.5" ry="2" fill="#A170FF" fill-opacity="0.2"/>
<ellipse cx="27.5" cy="23" rx="6.5" ry="2" stroke="#A170FF" stroke-width="1.5"/>
<path d="M34 27.5C34 28.6046 31.0899 29.5 27.5 29.5C23.9101 29.5 21 28.6046 21 27.5" stroke="#A170FF" stroke-width="1.5"/>
<path d="M34 23V31.8C34 33.015 31.0899 34 27.5 34C23.9101 34 21 33.015 21 31.8V23" stroke="#A170FF" stroke-width="1.5"/>
<ellipse cx="20.5" cy="16" rx="6.5" ry="2" stroke="#A170FF" stroke-width="1.5"/>
<path d="M18 23C16.1082 22.7698 14.3699 22.1745 14 21M18 28C16.1082 27.7698 14.3699 27.1745 14 26" stroke="#A170FF" stroke-width="1.5" stroke-linecap="round"/>
<path d="M18 33C16.1082 32.7698 14.3699 32.1745 14 31L14 16" stroke="#A170FF" stroke-width="1.5" stroke-linecap="round"/>
<path d="M27 18V16" stroke="#A170FF" stroke-width="1.5" stroke-linecap="round"/>
</g>
<defs>
<filter id="filter0_iii_1711_2658" x="-20" y="-20" width="88" height="148" filterUnits="userSpaceOnUse" color-interpolation-filters="sRGB">
<feFlood flood-opacity="0" result="BackgroundImageFix"/>
<feBlend mode="normal" in="SourceGraphic" in2="BackgroundImageFix" result="shape"/>
<feColorMatrix in="SourceAlpha" type="matrix" values="0 0 0 0 0 0 0 0 0 0 0 0 0 0 0 0 0 0 127 0" result="hardAlpha"/>
<feOffset dy="1"/>
<feGaussianBlur stdDeviation="0.5"/>
<feComposite in2="hardAlpha" operator="arithmetic" k2="-1" k3="1"/>
<feColorMatrix type="matrix" values="0 0 0 0 0.631373 0 0 0 0 0.439216 0 0 0 0 1 0 0 0 0.2 0"/>
<feBlend mode="normal" in2="shape" result="effect1_innerShadow_1711_2658"/>
<feColorMatrix in="SourceAlpha" type="matrix" values="0 0 0 0 0 0 0 0 0 0 0 0 0 0 0 0 0 0 127 0" result="hardAlpha"/>
<feOffset dy="-1"/>
<feGaussianBlur stdDeviation="0.5"/>
<feComposite in2="hardAlpha" operator="arithmetic" k2="-1" k3="1"/>
<feColorMatrix type="matrix" values="0 0 0 0 0.631373 0 0 0 0 0.439216 0 0 0 0 1 0 0 0 0.2 0"/>
<feBlend mode="normal" in2="effect1_innerShadow_1711_2658" result="effect2_innerShadow_1711_2658"/>
<feColorMatrix in="SourceAlpha" type="matrix" values="0 0 0 0 0 0 0 0 0 0 0 0 0 0 0 0 0 0 127 0" result="hardAlpha"/>
<feOffset dx="6" dy="80"/>
<feGaussianBlur stdDeviation="40"/>
<feComposite in2="hardAlpha" operator="arithmetic" k2="-1" k3="1"/>
<feColorMatrix type="matrix" values="0 0 0 0 0.631373 0 0 0 0 0.439216 0 0 0 0 1 0 0 0 0.02 0"/>
<feBlend mode="normal" in2="effect2_innerShadow_1711_2658" result="effect3_innerShadow_1711_2658"/>
</filter>
</defs>
</svg>
