<svg width="48" height="48" viewBox="0 0 48 48" fill="none" xmlns="http://www.w3.org/2000/svg">
<g filter="url(#filter0_iii_1726_2676)">
<rect width="48" height="48" rx="24" fill="#A170FF" fill-opacity="0.16"/>
<g clip-path="url(#clip0_1726_2676)">
<path d="M10.4648 30.5333H14.1981V26.8H10.4648V30.5333Z" fill="#A170FF" fill-opacity="0.2"/>
<path d="M33.7969 30.5333H37.5302V26.8H33.7969V30.5333Z" fill="#A170FF" fill-opacity="0.2"/>
<path d="M10.4648 20.7334H14.1981V17.0001H10.4648V20.7334Z" fill="#A170FF" fill-opacity="0.2"/>
<path d="M22.1328 36.5999H25.8661V32.8666H22.1328V36.5999Z" fill="#A170FF" fill-opacity="0.2"/>
<path d="M22.1328 15.1334H25.8661V11.4001H22.1328V15.1334Z" fill="#A170FF" fill-opacity="0.2"/>
<path d="M33.7969 20.7334H37.5302V17.0001H33.7969V20.7334Z" fill="#A170FF" fill-opacity="0.2"/>
<path d="M23.9986 28.6666L19.332 26.3333V21.2L23.9986 23.0667V28.6666Z" fill="#A170FF" fill-opacity="0.2"/>
<path d="M24 28.6666L28.6667 26.3333V21.2L24 23.0667V28.6666Z" fill="#A170FF" fill-opacity="0.2"/>
<path d="M23.9986 23.0667L19.332 21.2L23.9986 18.8667L28.6653 21.2L23.9986 23.0667Z" fill="#A170FF" fill-opacity="0.2"/>
<path d="M19.8005 26.0448L23.5339 27.9115V23.3826L19.8005 21.8892V26.0448ZM24.0005 29.1332C23.9291 29.1332 23.8577 29.1169 23.7919 29.0842L19.1253 26.7509C18.9671 26.6716 18.8672 26.5101 18.8672 26.3333V21.2C18.8672 21.045 18.9442 20.9004 19.0721 20.8136C19.2009 20.7268 19.3647 20.7095 19.507 20.7664L24.1736 22.6331C24.3509 22.7045 24.4671 22.8758 24.4671 23.0666V28.6666C24.4671 28.8286 24.3831 28.9788 24.2455 29.0637C24.1708 29.1099 24.0859 29.1332 24.0005 29.1332Z" fill="#A170FF"/>
<path d="M24.4646 23.3827V27.9117L28.198 26.045V21.8893L24.4646 23.3827ZM23.9979 29.1334C23.9125 29.1334 23.8276 29.1096 23.7529 29.0634C23.6153 28.9784 23.5312 28.8282 23.5312 28.6667V23.0668C23.5312 22.8759 23.6475 22.7042 23.8248 22.6332L28.4914 20.7666C28.6337 20.7092 28.797 20.7264 28.9263 20.8137C29.0542 20.9005 29.1312 21.0452 29.1312 21.2001V26.3334C29.1312 26.5103 29.0313 26.6718 28.8731 26.7506L24.2065 29.084C24.1408 29.1171 24.0693 29.1334 23.9979 29.1334Z" fill="#A170FF"/>
<path d="M20.472 21.1526L24.0004 22.5638L27.5284 21.1526L24.0004 19.3886L20.472 21.1526ZM24.0004 23.5336C23.9416 23.5336 23.8828 23.5224 23.8269 23.5L19.1602 21.6333C18.9894 21.5652 18.8751 21.4032 18.8676 21.2194C18.8597 21.036 18.9605 20.8647 19.1248 20.7826L23.7914 18.4493C23.923 18.3835 24.0779 18.3835 24.209 18.4493L28.8756 20.7826C29.0399 20.8647 29.1407 21.036 29.1332 21.2194C29.1253 21.4032 29.011 21.5652 28.8402 21.6333L24.1736 23.5C24.1175 23.5223 24.0592 23.5336 24.0004 23.5336Z" fill="#A170FF"/>
<path d="M19.3338 21.6667C19.2283 21.6667 19.1229 21.6312 19.0351 21.5584L16.3654 19.3334H14.201C13.9429 19.3334 13.7344 19.1243 13.7344 18.8667C13.7344 18.6091 13.943 18.4001 14.201 18.4001H16.5343C16.6435 18.4001 16.7494 18.4383 16.8334 18.5083L19.6334 20.8416C19.8308 21.0064 19.8579 21.3008 19.6932 21.4987C19.6003 21.6092 19.4678 21.6667 19.3338 21.6667Z" fill="#A170FF"/>
<path d="M28.6664 21.6667C28.5325 21.6667 28.3999 21.6093 28.3071 21.4986C28.1424 21.3008 28.1694 21.0063 28.3668 20.8416L31.1668 18.5083C31.2508 18.4383 31.3567 18.4 31.4659 18.4H33.7992C34.0573 18.4 34.2659 18.6091 34.2659 18.8667C34.2659 19.1243 34.0573 19.3333 33.7992 19.3333H31.6348L28.9651 21.5584C28.8774 21.6312 28.7719 21.6667 28.6664 21.6667Z" fill="#A170FF"/>
<path d="M33.7992 29.1333H31.4659C31.3567 29.1333 31.2508 29.095 31.1668 29.025L28.3668 26.6917C28.1694 26.527 28.1424 26.2325 28.3071 26.0347C28.4723 25.8368 28.7663 25.8097 28.9651 25.975L31.6349 28.2H33.7993C34.0574 28.2 34.2659 28.4091 34.2659 28.6666C34.2659 28.9242 34.0573 29.1333 33.7992 29.1333Z" fill="#A170FF"/>
<path d="M16.5343 29.1333H14.201C13.9429 29.1333 13.7344 28.9243 13.7344 28.6667C13.7344 28.4091 13.943 28.2 14.201 28.2H16.3654L19.0352 25.975C19.2345 25.8098 19.528 25.8369 19.6932 26.0347C19.8579 26.2326 19.8309 26.527 19.6335 26.6917L16.8335 29.0251C16.7495 29.0951 16.6435 29.1333 16.5343 29.1333Z" fill="#A170FF"/>
<path d="M24.0018 19.3334C23.7437 19.3334 23.5352 19.1243 23.5352 18.8667V15.1334C23.5352 14.8758 23.7438 14.6667 24.0018 14.6667C24.2599 14.6667 24.4684 14.8758 24.4684 15.1334V18.8667C24.4685 19.1243 24.2599 19.3334 24.0018 19.3334Z" fill="#A170FF"/>
<path d="M24.0018 33.3333C23.7437 33.3333 23.5352 33.1242 23.5352 32.8666V28.6667C23.5352 28.4091 23.7438 28.2 24.0018 28.2C24.2599 28.2 24.4684 28.4091 24.4684 28.6667V32.8666C24.4685 33.1242 24.2599 33.3333 24.0018 33.3333Z" fill="#A170FF"/>
<path d="M10.9333 30.0667H13.7333V27.2667H10.9333V30.0667ZM14.1999 31H10.4666C10.2086 31 10 30.7909 10 30.5333V26.8C10 26.5424 10.2086 26.3334 10.4666 26.3334H14.2C14.4576 26.3334 14.6666 26.5424 14.6666 26.8V30.5333C14.6666 30.7909 14.4576 31 14.1999 31Z" fill="#A170FF"/>
<path d="M34.2654 30.0667H37.0654V27.2667H34.2654V30.0667ZM37.532 31H33.7987C33.5406 31 33.332 30.7909 33.332 30.5333V26.8C33.332 26.5424 33.5406 26.3334 33.7987 26.3334H37.532C37.7896 26.3334 37.9986 26.5424 37.9986 26.8V30.5333C37.9987 30.7909 37.7896 31 37.532 31Z" fill="#A170FF"/>
<path d="M10.9333 20.2667H13.7333V17.4667H10.9333V20.2667ZM14.1999 21.2H10.4666C10.2086 21.2 10 20.9909 10 20.7334V17C10 16.7424 10.2086 16.5334 10.4666 16.5334H14.2C14.4576 16.5334 14.6666 16.7424 14.6666 17V20.7334C14.6666 20.9909 14.4576 21.2 14.1999 21.2Z" fill="#A170FF"/>
<path d="M22.6013 36.1332H25.4013V33.3332H22.6013V36.1332ZM25.8679 37.0665H22.1346C21.8765 37.0665 21.668 36.8575 21.668 36.5999V32.8665C21.668 32.609 21.8766 32.3999 22.1346 32.3999H25.8679C26.1255 32.3999 26.3346 32.609 26.3346 32.8665V36.5999C26.3346 36.8575 26.1256 37.0665 25.8679 37.0665Z" fill="#A170FF"/>
<path d="M22.6013 14.6667H25.4013V11.8667H22.6013V14.6667ZM25.8679 15.6H22.1346C21.8765 15.6 21.668 15.391 21.668 15.1334V11.4C21.668 11.1425 21.8766 10.9334 22.1346 10.9334H25.8679C26.1255 10.9334 26.3346 11.1425 26.3346 11.4V15.1334C26.3346 15.391 26.1256 15.6 25.8679 15.6Z" fill="#A170FF"/>
<path d="M34.2654 20.2667H37.0654V17.4667H34.2654V20.2667ZM37.532 21.2H33.7987C33.5406 21.2 33.332 20.9909 33.332 20.7334V17C33.332 16.7424 33.5406 16.5334 33.7987 16.5334H37.532C37.7896 16.5334 37.9986 16.7424 37.9986 17V20.7334C37.9987 20.9909 37.7896 21.2 37.532 21.2Z" fill="#A170FF"/>
</g>
</g>
<defs>
<filter id="filter0_iii_1726_2676" x="-20" y="-20" width="88" height="148" filterUnits="userSpaceOnUse" color-interpolation-filters="sRGB">
<feFlood flood-opacity="0" result="BackgroundImageFix"/>
<feBlend mode="normal" in="SourceGraphic" in2="BackgroundImageFix" result="shape"/>
<feColorMatrix in="SourceAlpha" type="matrix" values="0 0 0 0 0 0 0 0 0 0 0 0 0 0 0 0 0 0 127 0" result="hardAlpha"/>
<feOffset dy="1"/>
<feGaussianBlur stdDeviation="0.5"/>
<feComposite in2="hardAlpha" operator="arithmetic" k2="-1" k3="1"/>
<feColorMatrix type="matrix" values="0 0 0 0 0.631373 0 0 0 0 0.439216 0 0 0 0 1 0 0 0 0.2 0"/>
<feBlend mode="normal" in2="shape" result="effect1_innerShadow_1726_2676"/>
<feColorMatrix in="SourceAlpha" type="matrix" values="0 0 0 0 0 0 0 0 0 0 0 0 0 0 0 0 0 0 127 0" result="hardAlpha"/>
<feOffset dy="-1"/>
<feGaussianBlur stdDeviation="0.5"/>
<feComposite in2="hardAlpha" operator="arithmetic" k2="-1" k3="1"/>
<feColorMatrix type="matrix" values="0 0 0 0 0.631373 0 0 0 0 0.439216 0 0 0 0 1 0 0 0 0.2 0"/>
<feBlend mode="normal" in2="effect1_innerShadow_1726_2676" result="effect2_innerShadow_1726_2676"/>
<feColorMatrix in="SourceAlpha" type="matrix" values="0 0 0 0 0 0 0 0 0 0 0 0 0 0 0 0 0 0 127 0" result="hardAlpha"/>
<feOffset dx="6" dy="80"/>
<feGaussianBlur stdDeviation="40"/>
<feComposite in2="hardAlpha" operator="arithmetic" k2="-1" k3="1"/>
<feColorMatrix type="matrix" values="0 0 0 0 0.631373 0 0 0 0 0.439216 0 0 0 0 1 0 0 0 0.02 0"/>
<feBlend mode="normal" in2="effect2_innerShadow_1726_2676" result="effect3_innerShadow_1726_2676"/>
</filter>
<clipPath id="clip0_1726_2676">
<rect width="28" height="28" fill="white" transform="translate(10 10)"/>
</clipPath>
</defs>
</svg>
