<svg width="32" height="32" viewBox="0 0 32 32" fill="none" xmlns="http://www.w3.org/2000/svg">
<circle cx="15.9974" cy="15.9998" r="13.3333" fill="white" fill-opacity="0.16"/>
<path d="M15.9987 29.3332C23.3625 29.3332 29.332 23.3636 29.332 15.9998C29.332 8.63604 23.3624 2.6665 15.9986 2.6665C10.0285 2.6665 5.03105 6.59036 3.33203 11.9998H6.66536" stroke="white" stroke-width="2" stroke-linecap="round" stroke-linejoin="round"/>
<path d="M15.9961 10.6665V15.9998L18.6628 18.6665" stroke="white" stroke-width="2" stroke-linecap="round" stroke-linejoin="round"/>
<path d="M2.66406 15.9998C2.66406 16.4495 2.68434 16.8942 2.72398 17.3331M11.9974 29.3331C11.5419 29.1832 11.097 29.0083 10.6641 28.8101M4.27659 22.6664C4.01946 22.171 3.7901 21.6574 3.59069 21.1281M6.43902 25.7417C6.84659 26.1808 7.28147 26.592 7.74079 26.9721" stroke="white" stroke-width="2" stroke-linecap="round" stroke-linejoin="round"/>
</svg>
