<svg width="32" height="32" viewBox="0 0 32 32" fill="none" xmlns="http://www.w3.org/2000/svg">
<path d="M3.33203 15.9999C3.33203 10.0288 3.33203 7.04323 5.18702 5.18824C7.04201 3.33325 10.0276 3.33325 15.9987 3.33325C21.9698 3.33325 24.9554 3.33325 26.8104 5.18824C28.6654 7.04323 28.6654 10.0288 28.6654 15.9999C28.6654 21.971 28.6654 24.9566 26.8104 26.8116C24.9554 28.6666 21.9698 28.6666 15.9987 28.6666C10.0276 28.6666 7.04201 28.6666 5.18702 26.8116C3.33203 24.9566 3.33203 21.971 3.33203 15.9999Z" fill="white" fill-opacity="0.16"/>
<path d="M21.332 4.51266V2.6665M26.1728 5.81809L27.4762 4.51266M27.4888 10.6665H29.332" stroke="white" stroke-width="2" stroke-linecap="round" stroke-linejoin="round"/>
<path d="M29.3307 15.9998C29.3307 22.2852 29.3307 25.4279 27.3781 27.3805C25.4255 29.3332 22.2828 29.3332 15.9974 29.3332C9.712 29.3332 6.56931 29.3332 4.61668 27.3805C2.66406 25.4279 2.66406 22.2852 2.66406 15.9998C2.66406 9.71444 2.66406 6.57175 4.61668 4.61913C6.56931 2.6665 9.712 2.6665 15.9974 2.6665" stroke="white" stroke-width="2" stroke-linecap="round" stroke-linejoin="round"/>
<path d="M15.9974 9.6665C15.4451 9.6665 14.9974 10.1142 14.9974 10.6665C14.9974 11.2188 15.4451 11.6665 15.9974 11.6665V9.6665ZM20.3307 15.9603C20.3307 16.5126 20.7784 16.9603 21.3307 16.9603C21.883 16.9603 22.3307 16.5126 22.3307 15.9603H20.3307ZM15.9974 11.6665H18.6641V9.6665H15.9974V11.6665ZM20.3307 13.3134V15.9603H22.3307V13.3134H20.3307ZM18.6641 11.6665C19.3207 11.6665 19.7133 11.6686 19.9948 11.7062C20.124 11.7234 20.189 11.7438 20.2185 11.7558C20.2254 11.7586 20.2299 11.7608 20.2325 11.7622C20.2352 11.7635 20.2363 11.7643 20.2365 11.7644C20.2366 11.7645 20.2363 11.7642 20.2358 11.7638C20.2353 11.7634 20.2352 11.7633 20.2357 11.7639L21.6447 10.3444C21.2324 9.93514 20.732 9.78682 20.2594 9.72375C19.8148 9.66441 19.2645 9.6665 18.6641 9.6665V11.6665ZM22.3307 13.3134C22.3307 12.718 22.3329 12.1701 22.2729 11.727C22.2088 11.2544 22.058 10.7547 21.6447 10.3444L20.2357 11.7639C20.2362 11.7643 20.2353 11.7634 20.2346 11.7624C20.2342 11.7617 20.2371 11.7658 20.2422 11.7781C20.2536 11.8057 20.2738 11.8685 20.291 11.9955C20.3286 12.2731 20.3307 12.6611 20.3307 13.3134H22.3307ZM20.186 10.3975C16.3572 14.7951 12.0003 16.5753 8.60346 17.2639C6.90115 17.609 5.4395 17.6796 4.40925 17.6646C3.8946 17.6572 3.48915 17.6283 3.21704 17.6022C3.08103 17.5891 2.97851 17.5767 2.9125 17.5679C2.8795 17.5636 2.85565 17.5601 2.84132 17.558C2.83415 17.5569 2.82937 17.5562 2.82702 17.5558C2.82584 17.5556 2.82527 17.5555 2.82532 17.5555C2.82534 17.5555 2.82552 17.5556 2.82585 17.5556C2.82601 17.5556 2.82638 17.5557 2.82646 17.5557C2.82686 17.5558 2.8273 17.5559 2.66406 18.5424C2.50082 19.529 2.50134 19.5291 2.5019 19.5292C2.50214 19.5292 2.50274 19.5293 2.50322 19.5294C2.50417 19.5296 2.50529 19.5298 2.50656 19.53C2.5091 19.5304 2.51227 19.5309 2.51606 19.5315C2.52365 19.5327 2.53373 19.5342 2.54625 19.5361C2.5713 19.5398 2.60612 19.5448 2.65034 19.5507C2.73877 19.5624 2.86483 19.5775 3.02544 19.593C3.34656 19.6239 3.80643 19.6561 4.38017 19.6644C5.52669 19.6811 7.13408 19.6025 9.00081 19.2241C12.742 18.4657 17.5232 16.5018 21.6944 11.7108L20.186 10.3975Z" fill="white"/>
</svg>
